<mxfile host="app.diagrams.net" modified="2024-04-09T04:37:44.210Z" agent="Mozilla/5.0 (Windows NT 10.0; Win64; x64) AppleWebKit/537.36 (KHTML, like Gecko) Chrome/123.0.0.0 Safari/537.36" etag="Hw-_cUYMf1hCGYYjbZN7" version="24.2.2" type="github">
  <diagram name="第 1 页" id="bKdzZkhhQ1RPhtKg6zOh">
    <mxGraphModel dx="3217" dy="1300" grid="1" gridSize="10" guides="1" tooltips="1" connect="1" arrows="1" fold="1" page="1" pageScale="1" pageWidth="827" pageHeight="1169" math="0" shadow="0">
      <root>
        <mxCell id="0" />
        <mxCell id="1" parent="0" />
        <mxCell id="0NX7Yyfh2O2KS_RMifQC-1" value="" style="shape=image;verticalLabelPosition=bottom;labelBackgroundColor=default;verticalAlign=top;aspect=fixed;imageAspect=0;image=data:image/png,iVBORw0KGgoAAAANSUhEUgAAAz0AAAL8CAYAAADKq9vQAAAAAXNSR0IArs4c6QAAAARnQU1BAACxjwv8YQUAAAAJcEhZcwAADsMAAA7DAcdvqGQAALreSURBVHhe7N0HeJTVtsbxFXpHAkIAqQEJRXoRURSVIkUUQbCAYAXbUUHlgkpsKAp2BQuKYMEuCkixohTpJUiQKggk9N7By9rZA/mGmdSZyZT/73l4MusbPcd7roS8s9deK+q/UwQAAAAAwlQu+xUAAAAAwhKhBwAAAEBYI/QAAAAACGuEHgAAAABhjdADAAAAIKwRegAAAACENUIPAAAAgLBG6AEAAAAQ1gg9AAAAAMIaoQcAAABAWCP0AAAAAAhrhB4AAAAAYY3QAwAAACCsEXoAAPCxHTt2SHR0tERFRTl+jR8/3v4VAIBAIvQAAOBj06dPl127dtnqjG+//da+AgAEUtR/p9jXAADAB9q1aydTp061ldOaNWukatWqtgIABAInPQAA+NDatWsdgSc2Nta+SvHll1/aVwCAQCH0AADgQ6NHj7avUrz22mtSokQJW4m888479hUAIFAIPQAA+NBnn31mX4kJO+3bt5cePXrYJyntbX/88YetAACBQOgBAMBHJk+ebEKNiyvsdOzY0Xx1+eSTT+wrAEAgEHoAAPCRsWPH2lcpXGFHT3tSt7jp6Godaw0ACAxCDwAAPqAhxlNrm0vqFjcdZ61jrQEAgUHoAQDAB9ynsqUOOequu+6yr1KMGTPGvgIA+Bt7egAA8IEmTZrI/PnzbSWyePFiqVevnq1SVKtWzXHnh509ABAYnPQAAJBNS5YscQQe3c3jHnjUnXfeaV+lcB9vDQDwD0IPAADZ9Pbbb9tXKR5++GH7yqlr1672VYrUd4AAAP5DexsAANkUHR1thhO4bN++XUqWLGkrJ73rkzrsTJo0yTHwAADge5z0AACQDTp+OnXg6d69u9fAo6655hr7KsXEiRPtKwCAv3DSAwBANrRr106mTp1qq4yd3GTmZAgAkH2c9AAAkEVr1651BB733TzeuI+zdh93DQDwLUIPAABZ5B5W+vXrZ1+lzX1nz3vvvWdfAQD8gfY2AACyKDt7d9z/Xk97fQAAvsFJDwAAWfDHH384Qkvjxo0ztWjUfaz1559/bl8BAHyN0AMAQBZ88skn9lWK/v3721cZ07p1a/sqxciRI+0rAICvEXoAAMikHTt2OEKKDjBwDzHp0VMhHW/totPcJk+ebCsAgC8RegAAyKTp06fbVyl0GltWRk736tXLvkoxduxY+woA4EsMMgAAIJOaNGki8+fPt5XI77//LhdffLGtMsd9Z09mhiEAADKGkx4AADJBd/OkDjyxsbFZDjzKfcy1+ykSACD7CD0AAGTC6NGj7asU7lPYMuv666+3r1K8+OKL9hUAwFdobwMAIBP80Y7m3i7Hzh4A8C1OegAAyCCdrpY68Chtb4uKisrWr9SBR7399tv2FQDAFwg9AABkUKCmq40fP96+AgD4AqEHAIAM0AEGn332ma38S0+TCD4A4Dvc6QEAIAO05axv3762EmncuLF069bNVtm3cOFCR6hq27atTJkyxVYAgOwg9AAAkAHVqlUzQwtcPv30U7OU1Ff0JEnvB6XGzh4A8A3a2wAASMeSJUscgUe1bt3avvINDTd6upPal19+aV8BALKD0AMAQDrcp6npQtGSJUvaynd69+5tX6V455137CsAQHYQegAASMOOHTvOGirQsWNH+8q39PSoRIkStkppb/vjjz9sBQDIKkIPAABpmD59umM3j967ad++va18S0+P3O8JffLJJ/YVACCrCD0AAKRhzJgx9lWK7t2721f+4X6KNHLkSHPaBADIOkIPAABe6ES1qVOn2irF9ddfb1/5h54iuU9x09MmAEDWEXoAAPDCfXqa7uapV6+erfzH/TRpxIgR9hUAICsIPQAAeOE+Pe3222+3r/zL/TRp/vz55tQJAJA1hB4AADyYPHmy33fzeKOnSXqqlNro0aPtKwBAZhF6AADwYOLEifZVCm050wWigeJ+qvTZZ5/ZVwCAzCL0AADgRqel6dS01K655hr7KjC6du1qX6XQUyc9fQIAZB6hBwAAN+4DDHRhqPv+HH/TnT3uAw3Gjh1rXwEAMoPQAwCAm/fee8++ShHowOPifrqkLW7s7AGAzIv67xT7GgAAAADCDic9AAAAAMIaoQcAAABAWCP0AAAAAAhrhB4AAAAAYY3QAwAAACCsEXoAAAAAhDVCDwAAAICwRugBAAAAENYIPQAAAADCGqEHAAA/evvtt+XNN9+0FQAgJ0T9d4p9DQAAfGjDhg1Su3ZtiYqKkpUrV0rZsmXtOwCAQOKkBwAAPxkwYIDs379f9u3bJwMHDrRPAQCBRugBAMAPPvjgA/niiy9sJTJ27FiZMGGCrQAAgUR7GwAAPrZlyxbT1nboRH45vDfJPhWpWbOm/PXXX7YCAAQKJz0AAPiYtrXt2rVLKja8Xq586A85t9ol5vmKFStk8ODB5jUAIHAIPQAA+NC4cePkk08+Ma+LnlvdfE1t6NChMn/+fFsBAAKB0AMAgI9s377dnPKoPPmLSIkKDczrXRsXma8u//d//2dfAQACgdADAICPaODZunWree065dm3bZUcP7LfvHb58ccfZeTIkbYCAPgboQcAAB8YP368fPjhh7Y6FXpKp4Qe91MeFz3tSUo6M+QAAOA/hB4AALJpz549p9vaXEqcZ1vb/vUcevTvoc0NAAKD0AMAQDZp4Nm0aZOtUhQpXc187dH5MmnZsqV57W7MmDHy3Xff2QoA4C/s6QEAIBu++uor6dq1q61S6H2eZj0/kOOHtssvb3WWWbNmSYsWLey7TrVq1ZLly5fbCgDgD5z0AACQRQcPHjyrrU25TnlqViphvl500UUe/zqly0off/xxWwEA/IHQAwBAFmmQWb9+va3OcN3nad6givmqnnvuOYmNjbWV0zPPPCMLFy60FQDA1wg9AABkgd7F8TZ2unTVpuZr1XKFzFeVJ08eE3y8YagBAPgPoQcAgEw6duyY13Y1XUqap2ApKVIwj9SLLW6fpujWrZv06NHDVk7Tpk2TUaNG2QoA4EuEHgAAMkkDz6pVq2zldOOdg8zX2HKFTfBxp6c9+fPnt5WTnvYkJyfbCgDgK4QeAAAy4YcffpDXXnvNVk5Vq1aVy9qlnOTEli9svrqrXLmy1za33bt30+YGAH5A6AEAIBO8tbWp4cOHyz/JR8zrurHFzFdPHnzwQbnkkkts5fTBBx/IxIkTbQUA8AVCDwAAGdS/f38zYtqTO+64Q6699lpZvXm/qbW9LS0MNQCAwCH0AACQAT/++KO89NJLtnKqUKGCjBgxQtZsOiDJO4+Y1raY6AL2Xc90WamGKE8SEhLkiSeesBUAILsIPQAAZEB6bW1FixaVJWv2mDq9Ux4XPe2pUuXMLp/Unn76aVm0aJGtAADZQegBACAdAwcOlCVLltjKqXfv3nL99deb10vX7DVf07rPk1revHlpcwOAACD0AACQht9++02GDRtmK6eYmBjT1ubius/jvp8nLd27dze/PJk6daq8/fbbtgIAZBWhBwCANKTX1hYdHW1eJ+08bO7z6G6e9O7zuNPTnnz58tnKSU97tm3bZisAQFYQegAA8OLxxx+X+fPn28rp5ptvlptuuslWIms2HzBfM3qfJzW91+OtzW3Xrl20uQFANhF6AADwYNasWfLMM8/YyqlkyZLmlCe1tZsPmq/elpKm56GHHpKLL77YVk6jR4+WSZMm2QoAkFmEHgAAPEivra1MmTK2SqHjqlVGhxh4MnToUPvqbJz2AEDWEXoAAHDz1FNPyezZs23lpEMHdGJbavsPHc/0uGpPLrnkEnnwwQdt5bRs2TIZMmSIrQAAmRH13yn2NQAAEW/evHnStGlTWzkVK1ZMli9fLuedd559kkJPefq+tNi0to16qL59mjVHjhyRuLg4Wb9+vX3ipLt76tfP3n8HAEQaTnoAAEglvbY298CjXKc8mRlV7U3+/PnZ3QMAPkboAQDA0rAxY8YMWzl16dJF7rjjDls5uZaSVi1XyHzNrh49epxeeOpuypQp8u6779oKAJARtLcBAHDK4sWLpUGDBrZyKliwoGlr09HSntz87Hyzo2fc4EaZ3tHjzdq1a6VGjRpy/Phx++QMnR6XmJgopUqVsk8AAGnhpAcAgFP69+9vX51N29q8BR69z5PVpaRpqVq1qtc2tx07dtDmBgCZQOgBAEQ8DTU///yzrZw6deokd999t63OtnrzfvPVF/d53On9oosuushWTu+9955MnjzZVgCAtBB6AAARTdvWHn74YVs55cmT56wlpO5c93myupQ0PQw1AIDsI/QAACJaem1t559/vq08W7M5ZSmpr4YYuGvZsqU88MADtnJaunSpPPnkk7YCAHjDIAMAQMR69dVXvQaKdu3ayQ8//GArz3Qp6bWP/Wlef/NMM3Ovxx8OHz5sdvf8888/9onTkiVLpG7durYCALjjpAcAEJH+/vvvdHfypEeHGChtbfNX4FEFChSgzQ0AsoHQAwCISNrW5mkctNLAU7t2bVt552pt88cQA3c33HCDdO3a1VZOOtBABxsAADwj9AAAIs5bb70lEydOtJXTFVdckeY9n9RcQwzqxhYzX/1NT3ty585tKyc97dFR1gCAsxF6AAARRZd+ZretzcU1rjq2nH8mt7mrVq2a1za37du30+YGAF4QegAAEUUDz6FDh2zlpIGifv36tkqbaymp3ufx5VLS9Oh47ebNm9vK6d1335UpU6bYCgDgQugBAEQMDQXffPONrZx0NPTAgQNtlT7XKU9MicAFHheGGgBA5hB6AAARYePGjT5ra1P+XkqalksvvVT+97//2cpp8eLF8tRTT9kKAKAIPQCAiKCBZ+/elKDiTkNCkyZNbJUxS9bsMV/rVg3MEAN3etpToUIFWzkNGTJEli1bZisAAKEHABD2xowZI59//rmtnPR+zOOPP26rjNGlpHqfR3fz5MRJjypYsCBtbgCQQYQeAEBYS0pKSrOtbcSIEfZVxrlOeXRqmz+Xkqbnpptukuuuu85WTpMmTZLRo0fbCgAiG6EHABDWNPB421+jJzzeJqGlZe3mg+ZrTp3ypKanPblyef7jXE97du3aZSsAiFyEHgBA2Pr444/NL08aN26c5Qv/Oq5aBWopaVqqV6/utc1t27ZttLkBwCmEHgBAWNLTnf79+9vqbFlpa3NJ3d4WDB555BFp1qyZrZzefvttmTp1qq0AIDIRegAAYUnb2pKTk23lpPt4dC9PVugpjw4yCPRS0vQw1AAAvCP0AADCjk5q04ltntSrVy/NgJCeYDvlcWnVqpXcd999tnJatGiRPP3007YCgMhD6AEAhBXdxeOvtjblWkoaDPd53GmYO++882zl9MQTT0hCQoKtACCyEHoAAGFF29r+/fdfWzlpGLriiitslTWrN+83X+vFFjdfg0nhwoVpcwMADwg9AICw8fXXX8u7775rK6datWrJ8OHDbZU1STsPn15KGkz3eVK7+eabpUuXLrZymjhxonzwwQe2AoDIQegBAISFQ4cO+XwJqbs1m1NGVQfjKU9q6Z327N6921YAEBkIPQCAsKCBZ926dbZyuv/++6Vdu3a2yjrXUtIy0fnN12B1/vnnew0+OtGONjcAkYbQAwAIed9//7289dZbtnLS5Z2+OOVRwbSUND06lrtp06a2cho1apRMmzbNVgAQ/gg9AICQdvz48XTb2vLkyWOrrNPdPME6rtobhhoAQApCDwAgpGng+fvvv23l1K9fP+nUqZOtskcHGATjUtK0XH755XLvvffaymnhwoXy7LPP2goAwlvUf6fY1wAAhJQpU6bIVVddZSunypUry19//SUFCxa0T7Ln6xmbZeSEddKlZTnp17mKfRr89u/fL3FxcbJp0yb7xGn58uVmsh0AhDNOegAAISu9tjZfBR4VzEtJ01KkSBHa3ABEPEIPACAkPfzww+aUwpPbb7/d666arHItJQ2V+zyp9ezZU6655hpbOX333XcyZswYWwFAeKK9DQAQcn766Se58sorbeV03nnnmTBUrJjvTmR0alvflxabpaTfPNPMPg0tiYmJUrNmTVs5xcTEmPeLFw/u/UMAkFWc9AAAQk5abW3Dhw/3aeBRrlOeYF9Kmha91zN06FBbOSUlJdHmBiCsEXoAACFl0KBBsnjxYls53XLLLdK9e3db+Y7rPo9ObgtlGmyaNGliK6eRI0fKjz/+aCsACC+EHgBAyJgxY4bXS/llypTx2RJSd679PFXLFTJfQxlDDQBEIkIPACBkpNfWVrJkSVv5ju7m0R09KpTb21yuuOIKueeee2zlNH/+fK8tcAAQygg9AICQMGTIEJk3b56tnG688Ua5+eabbeVbOsRAaWubDjIIBxpsypYtayunwYMHy4oVK2wFAOGB0AMACHqzZ8+Wp556ylZO0dHRfmtrU2s2p4SecDjlcdFBD7S5AYgkhB4AQNBLr61NRy77S6guJU2PDn3o3LmzrZwmTJggH374oa0AIPQRegAAQe3pp5+WWbNm2cqpW7du0qdPH1v5RygvJU1Peqc9+/btsxUAhDZCDwAgaOnF+ieeeMJWTkWLFvVrW5vS+zw6xEDv88REF7BPw4cuK3322Wdt5bRlyxba3ACEDUIPACBopdfWVqFCBVv5h2tUdUyJ8As8Lrr3qFGjRrZyevPNN+Wnn36yFQCELkIPACAoPf/88/Lbb7/Zyumaa66RO++801b+4xpiEG73edwx1ABAuCP0AACCzpIlS7z+sF2gQAG/t7W5uE56wvE+T2qtW7eWfv362cpJx4SnFYoAIBQQegAAQSe9traqVavayn9cS0l1N0+9auEzrtobDTbepuBpC1xiYqKtACD0EHoAAEFFT3F+/PFHWzl17NhR7rnnHlv5V6Sc8rgUL16cNjcAYYvQAwAIGn/99ZfXU57cuXObU55AWbv5oPmqk9siRe/eveXqq6+2ldO3334r48aNsxUAhBZCDwAgaKTX1lajRg1b+Z+Oq1bhPsTAXXqnPfv3p+wtAoBQQugBAASF1157TX744QdbObVt21YeeOABWwVGpLW3udSqVcsshPVk06ZNtLkBCElR/51iXwMAkCNWrVoltWvXlmPHjtknTsuWLZM6derYyv/0lKfvS4tNa9uoh+rbp5FFd/csXLjQVk66u+fyyy+3FQAEP056AAA5TtvavAWeF154IaCBR0XqKU9qDDUAEE4IPQCAHDVy5Ej57rvvbOWkpwkPP/ywrQJn6Zq95muk3edJrU2bNtK3b19bOc2dO1eGDRtmKwAIfrS3AQByzPr1601b28GDKZPS3Gl7VYMGDWwVODc/O9/s6Bk3uJHERBewTyPP7t27JS4uTpKTk+2TM6KioszunvPPP98+AYDgxUkPACDH9O/f32vgGTp0aI4EnqSdh08vJY3kwKPOOeccr21u+pkpbW4AQgWhBwCQI9577z35+uuvbeV0ySWX5NgP1Gs2p4yqrhdb3HyNdH369DFLYT3R//999NFHtgKA4EXoAQAEnI4+Tm8nT06JxKWk6UlvqMGBAylBEQCCFaEHABBw2ta2Z0/KhDR3Tz75pDRt2tRWgbdkdco/V9VyhcxXiJme99RTT9nK6d9//6XNDUDQY5ABACCgPvzwQ+ndu7etnC688EKZPXu2rQJv/6Hj0vPZBeZrpA8x8KRhw4ayaNEiWzn98ssvctlll9kKAIILJz0AgIDRKWDB2tamdCmpBh5tbSPwnI3dPQBCFaEHABAwGni2b99uK6fHHntMWrRoYaucwRCDtLVt21buvPNOWznNmTPHLJIFgGBEexsAICA++eQTuemmm2zl1KhRI5k/f76tck78B4kyM2GHxPeJkxZ1StqnSG3nzp1md8+2bdvskzNy5cpldvdUr17dPgGA4MBJDwDA7/QH5WBua3NZvXm/+Rpbjslt3kRHR3ttczt58iRtbgCCEqEHAOB3Gni2bNliK6dHH300KC7A630eXUpaJjo/93nScdttt0mHDh1s5fTVV1/Jxx9/bCsACA6EHgCAX33xxRfywQcf2Mqpbt268vzzz9sqZ7lOeaqVK2K+Im3pDTU4dOiQrQAg5xF6AAB+s2/fvjTb2kaMGGFf5byla/aarywlzZgLLrjA7FTyZOPGjbS5AQgqhB4AgN9o4NmwYYOtnB566CG58sorbZXzlqxhKWlmPfHEE1KvXj1bOb366qvy22+/2QoAchahBwDgF99++6288847tnKqWbNm0AwvULqbR+/zFCmYh3HVmcTuHgChgNADAPC5w4cPS//+/W11Nm1ri4qKslXOc53y6BADDT7IuKuuukruuOMOWznNnj1bXnzxRVsBQM4h9AAAfE7b2tauXWsrp/vuu8/8oBxM9JRHccqTNXraU6pUKVs56WnP6tWrbQUAOYPQAwDwqUmTJsmbb75pK6dq1aoFVVubi2uIQd3YYuYrMqdkyZJe29xOnDhBmxuAHEfoAQD4jP6Am15bW758+WwVPFhKmn233367tG/f3lZOX375pXz66ae2AoDAI/QAAHxG29pWrlxpK6e+ffvK1Vdfbavg4VpKqqOqWUqaPekNNdC7XgCQEwg9AACfmDp1qrzyyiu2cqpUqVJQtrUp1xADTnmyT5fNDhkyxFZO//zzD21uAHIMoQcA4BPpLSEtXDg4QwX3eXwrPj7ehB9PNBTPmDHDVgAQOIQeAEC2PfLII5KQkGArp9tuu02uu+46WwUf132eauWKmK/IPnb3AAg2hB4AQLb8/PPPXnexlCtXLmjb2lTqpaR6pwe+oQMNdLCBJ7NmzTInfwAQSIQeAEC2pNfWds4559gq+HCfx3/0tEdHWXuipz3e9jgBgD8QegAAWTZ48GBZtGiRrZx69eolPXr0sFVwWrv5oPnKKY/v6bJSb21ux44do80NQEARegAAWfL777/L0KFDbeV07rnnhkQLk46rVgwx8I877rhD2rVrZyunzz//XMaPH28rAPAvQg8AIEvSa2vTT/qDHe1t/pfeUIMjR47YCgD8h9ADAMg0HUs8d+5cWzndcMMN0rNnT1sFLz3l0UEGLCX1r/r168sTTzxhK6f169fT5gYgIKL+O8W+BgAgXXPmzJHmzZvbykmHFvz1119StmxZ+yR4fT1js4ycsE7aNCktD/eobp/CX3R3z7Jly2zlpK2SF198sa0AwPc46QEAZEp6bW2hEHgUS0kDi909AHISoQcAkGHPPvuszJw501ZOXbt2lVtvvdVWwc+1lLRebHHzFf7VoUMHr/9+/PHHH/LSSy/ZCgB8j/Y2AECGLFiwQBo3bmwrpyJFisjy5culYsWK9klw0/s8fV9abJaSfvNMM/sU/rZ161aJi4uTXbt22Sdn5MuXTxITE6VKlSr2CQD4Dic9AIAMSautbfjw4SETeFTSrsPmK6c8gVW6dGmvbW5Hjx6lzQ2A3xB6AADpeuGFF+TXX3+1lVPnzp3lrrvuslVocN3nYSlp4Om/K23btrWV02effWZ+AYCvEXoAAGlaunSpPProo7Zyyp8/f0gsIXXnWkpatVwh8xWBld5Qg2PHjtkKAHyD0AMASFN6bW2xsbG2Cg26m8e1lJT2tpzRoEEDefzxx23ltG7dOtrcAPgcoQcA4JVO1Jo+fbqtnNq3by/33nuvrUKH65RHW9t0kAFyxlNPPSW1a9e2lZOeHnqbEggAWUHoAQB4tGLFCq+nPLly5QrJtja1ZnNK6OGUJ+exuwdAoBB6AAAeaeDxttVA29p09HAoYilp8OjUqZP06dPHVk6///67vPzyy7YCgOwh9AAAzvL666/L5MmTbeXUpk0befDBB20VelxLSWPLMbktGOhpzznnnGMrJz3tWb9+va0AIOsIPQAAh9WrV6c7vCBU6X2e5J1HpEx0fomJLmCfIieVKVPGa5vbkSNHaHMD4BOEHgCAgwYeXRTpybBhw+SCCy6wVehxnfJUK1fEfEVw6Nu3rzlB9GT8+PHyxRdf2AoAsobQAwA4bdSoUTJhwgRbObVq1UoeeeQRW4UmlpIGr/SGGhw/ftxWAJB5hB4AgPHPP/+EbVubi2s/D0tJg0/Dhg1l8ODBtnJas2YNbW4AsoXQAwAwNPAcOJAyztndM888Y34oDWW6lFTv8+huHsZVByf996xWrVq2ctLQPWvWLFsBQOYQegAAMnr0aPnyyy9t5XTxxRd7/QQ+lLhOeXSIAUtJgxe7ewD4A6EHACLc5s2bw76tTekpj+KUJ7hdffXV0rt3b1s5zZgxQ1555RVbAUDGEXoAIMJp4Nm9e7etnIYMGSLNmjWzVWhjKWno0NOe4sU9h9NBgwbJhg0bbAUAGUPoAYAINnbsWPn0009t5aRhJz4+3lahj6WkoSMmJsZrm9uhQ4docwOQaYQeAIhQ27Zti4i2NuVaSqqjqllKGhr69esnV155pa2cPvnkE6930ADAE0IPAESo/v37m+DjiQ4u0AEG4cI1xIBTntCS3lCDEydO2AoA0kboAYAIpC1t48aNs5WTjqbW0cHhhPs8oalx48bmDo8nq1evps0NQIZF/XeKfQ0AiAA6tKB27dpmapsnP//8s7Rq1cpW4eHmZ+eb9rZxgxvR3haCdHfPihUrbOU0e/ZsufDCC20FAJ5x0gMAEUbb2rwFnkceeSTsAk/SzsOnl5ISeEITu3sAZBehBwAiiF7+fv/9923ldMEFF8iwYcNsFT7WbD5gvnKfJ3R17txZevXqZSunX3/9VV577TVbAYBnhB4AiBD79++PmGltqa3dfNB81cltCF162lO0aFFbOelpz8aNG20FAGcj9ABAhNDA888//9jK6cEHH5Q2bdrYKrzouGrFEIPQVq5cOa9tbgcPHqTNDUCaCD0AEAEmTJggb7/9tq2c4uLiwvaURzGuOnzcc889csUVV9jK6eOPP5avvvrKVgDgROgBgDB35MiRdNvacuUKzz8O9JRn/6HjLCUNI+kNNWAoLQBPCD0AEOY08OhOE0/uvfde6dChg63Cj+uUp15scfMVoa9JkyZeW9lWrVpFmxsAj9jTAwBhbPLkyV5DTWxsrCxfvlzy589vn4Sf+A8SZWbCDhnQo5q0bVLGPkU40LbMlStX2sppzpw50qxZM1sBACc9ABC2Tp48mW5bWzgHHrV6837zlZOe8MPuHgCZQegBgDClgcfbFvu77rpLrrnmGluFJ73Pw1LS8HXttddKz549beX0yy+/yOuvv24rAKC9DQDC0vTp072OoK5YsaJpaytSpIh9Ep60rU3b21rUKSnxfeLsU4STTZs2mTY33UHlrnDhwqb9rXz58vYJgEjGSQ8AhKG02tpGjBgR9oFHzUrYab6ylDR8aaDx1uZ24MABGThwoK0ARDpCDwCEmUcffVSWLl1qK6dbb71Vunbtaqvwpq1tqmq5QuYrwpNOILz88stt5fTRRx/JN998YysAkYz2NgAII7/++qu0atXKVk5ly5Y1bW0lSpSwT8KX7ua59rE/zetvnmlm7vUgfM2dO9frtLYaNWpIYmKirQBEKk56ACCM9O/f3746m7a1RULgUTrEQGlrG4En/DVt2tSccHqi93qY5gaA0AMAYeKxxx6ThQsX2spJp1zdcMMNtgp/azanhB5GVUcOvdtz/vnn28rp+eefN6dBACIXoQcAwsAff/whzz77rK2cSpUqZXbyRJKla/aar3Vji5mvCH9RUVHs7gHgFaEHAMJAetPaSpcubavI4FpKGluOyW2RpEuXLnLzzTfbyunnn3+WN954w1YAIg2hBwBC3JNPPil//plyad9djx49pFevXraKDK6lpGWi87OUNALpaY/u6PFk0KBBsnnzZlsBiCSEHgAIYRp24uPjbeVUvHjxiGtrU65Tnmrlwn8XEc523nnnydChQ23ltG/fPtrcgAhF6AGAEJZeW1skbqN33edhKWnkuv/+++Wyyy6zldPYsWPl22+/tRWASEHoAYAQpZ9m6wADT6677jq57bbbbBVZlqzZY77WrcoQg0jGUAMAqRF6ACAE6WjqwYMH28qpUKFC5pQnEulSUr3Po7t5OOmJbBdeeKE88sgjtnLSZaV6vwdA5CD0AEAISq+trVKlSraKLK5THp3axlJS6GlP9erVbeWk782fP99WAMIdoQcAQsyLL74ov/zyi62crr76aunbt6+tIs/azQfNV055oHLlykWbGwCD0AMAIWTZsmVeW3by5csXsW1tLjquWrGUFC56v+3GG2+0ldOPP/4ob731lq0AhDNCDwCEkLTa2nQ8dbVq1WwVmVhKCk/0tKdgwYK2ctLTni1bttgKQLgi9ABAiHjllVdk2rRptnK66qqr5L777rNVZHItJdXWNpaSIrWKFSt6bXPbu3cvbW5ABCD0AEAI0GlT/fv3t5VTVFRUxLe1qdRDDAB3//vf/+TSSy+1ldOHH34oEyZMsBWAcEToAYAQoG1tJ0+etJWTtrXVrFnTVpHLtZSU+zzwhqEGQOQi9ABAkHvzzTdl0qRJtnK68sor5aGHHrJVZHPd56kXW9x8Bdw1b95cHn74YVs5rVixQh577DFbAQg3Uf+dYl8DAILMmjVrpHbt2nLkyBH7xGnJkiVSt25dW0WupJ2HpeezC8xunm+eaWafAmc7ceKE1KhRw/ze8kR39zRq1MhWAMIFJz0AEMS0rc1b4Hn++ecJPNaazSmjqjnlQXpy585NmxsQgQg9ABCk3n77bfn2229t5aQXsh999FFbwbWUtEx0fvMVSEu3bt3khhtusJXT9OnTZeTIkbYCEC4IPQAQhDZs2JDmTh6mtTmxlBSZpac9BQp4Hm2upz3Jycm2AhAOCD0AEIQ08Ozfn3Ix393TTz/NnYNU9h86zrhqZFqlSpW8trnt2bNHBg4caCsA4YDQAwBB5v3335cvvvjCVk4tWrRgwpQbXUiqwYelpMisBx54QFq2bGkrpzFjxsj3339vKwChjtADAEFky5Ytaba16U4eOLlOeRhigKxgqAEQGQg9ABBENPDs2rXLVk5PPPGEXHjhhbaCC0tJkR0XXXSR9O/f31ZOy5cvl8cff9xWAEIZe3oAIEiMGzdOevXqZSunpk2byp9//mkrpHbzs/NNi9u4wY1ob0OWHDt2TOLi4mTt2rX2idOCBQukYcOGtgIQijjpAYAgsH37dtraskCntmng0aWkBB5kVd68eWlzA8IcoQcAgoAGnq1bt9rKSX/guuSSS2yF1FZvTplwx30eZNf1118vPXr0sJXTtGnTZNSoUbYCEIoIPQCQw8aPHy8ffvihrZwaNGggQ4cOtRXcue7z6OQ2ILv0tCd/fs8LbvXDB28fTAAIfoQeAMhBug+Etrasc01uq1qukPkKZEflypW9trnt3r2bNjcghBF6ACAHaeDZtGmTrZz0vcsvv9xWcKe7efQ+j6K9Db7y4IMPysUXX2wrJ92hNXHiRFsBCCWEHgDIIV999ZW89957tnKqU6eOvPjii7aCJzrEQGlrmw4yAHyFoQZA+CH0AEAOOHjwIG1t2bRmc0ro4ZQHvqYnPQ899JCtnBISEszOLAChhdADADlAlyGuX7/eVk4PPPCAtG3b1lbwhqWk8Cc97alSpYqtnJ5++mlZvHixrQCEAkIPAATYd99953X8bY0aNTjlySDXuOrYckxug+/ly5ePNjcgjBB6ACCAdPN7em1tuXPnthW8cS0l1fs8LCWFv3Tv3t3s7/FkypQp8s4779gKQLAj9ABAAGlb26pVq2zldM8990jHjh1thbS4RlXHlCDwwL/0tCdv3ry2ctLTnm3bttkKQDAj9ABAgPzwww/y+uuv28qpatWqtLVlgmuIAfd54G/6e9Nbm9vOnTtpcwNCBKEHAAIkvba2AgU4tcgo10kP93kQCHpC26JFC1s5jR49WiZNmmQrAMGK0AMAAaA/NP3111+2crrzzjvl2muvtRXS41pKqrt56lVjXDUCg6EGQGgj9ACAn/3444/y0ksv2cqpQoUKtLVlEqc8yAmXXHKJPPjgg7ZyWrZsmcTHx9sKQDAi9ACAn6XX1la0aFFbISPWbj5ovurkNiCQ9LSnUqVKtnJ68sknZcmSJbYCEGwIPQDgRwMHDvT6g1CfPn28jsOFdzquWjHEAIGWP39+2tyAEEXoAQA/+e2332TYsGG2coqJiaGtLYtob0NOuuGGG6Rbt262ctIJje+++66tAAQTQg8A+ElabW0jRoyQ6OhoWyGj9JRHBxmwlBQ5SU978uTJYysnPe3ZsWOHrQAEC0IPAPjB448/LvPnz7eV08033yw33nijrZAZnPIgGMTGxnptc9PAo22tAIJL1H+n2NcAAB+YNWuW150eJUuWlOXLl0uZMmXsE2RG/AeJMjNhhwzoUU3aNuF/Q+Qs/X2uv989mTx5slx11VW2ApDTOOkBAB9Lr62NwJN1qzfvN1/rxbKfBzmPoQZA6CD0AIAPPfXUUzJ79mxbOXXv3l1uueUWWyGzknYePr2UlPs8CAYtW7aU//3vf7Zy0qmNOsYaQHCgvQ0AfGTevHnStGlTWzkVK1bMtLWdd9559gkyS9vatL2tRZ2SEt8nzj4FctahQ4ckLi5ONmzYYJ84afipW7eurQDkFE56AMBH+vfvb1+dTdvaCDzZ41pKWiY6v/kKBIOCBQvS5gaEAEIPAPiA/tDz+++/28qpS5cucvvtt9sKWcVSUgQrncbYtWtXWznpQIPRo0fbCkBOob0NALJp8eLF0qBBA1s56afA2tZWpUoV+wRZobt5ej67wHwdN7gRd3oQdFavXi01atSQkydP2idnlCpVSlauXMluLiAHcdIDANmUXlsbgSf7WEqKYFetWjWvbW7bt2+nzQ3IYYQeAMiG4cOHy88//2wrp06dOkm/fv1shexYszmltY1R1QhmjzzyiFx44YW2cnrnnXdkypQptgIQaIQeAMiihIQEefjhh23llCdPHhOI4BtL1+w1X7nPg2DHUAMgOBF6ACCL0ltCev7559sK2eVaShpbrrD5CgSryy67TO6//35bOen9P93lBSDwGGQAAFnw6quvygMPPGArp3bt2skPP/xgK2SX3ufp+9JiM6r6o8GN7VMgeB08eNDs7tm4caN94rRs2TKpU6eOrQAEAic9AJBJOoUprVMe2tp8y3XKU61cEfMVCHaFChWizQ0IMoQeAMgkDTzHjx+3lZMGntq1a9sKvuC6z6OT24BQcdNNN5kdXZ5MnDhR3n//fVsBCARCDwBkwltvvWV+YPHkiiuuSHN8NbJmyZo95mvVcoXMVyBU6GlPVFSUrZz0tGfXrl22AuBvhB4AyKC1a9emO7wAvqW7eZJ3HjGvGVeNUKPDTLy1uW3dupU2NyCACD0AkEEaeA4dOmQrJ/3Bpl69eraCr+gQA6WtbUUK5jGvgVDy6KOPSrNmzWzl9Pbbb8vUqVNtBcCfCD0AkAHvvvuufPPNN7ZyatmypQwcONBW8CWWkiIcMNQAyHmEHgBIh46dpa0tZ7CUFOGgVatWct9999nKadGiRfLMM8/YCoC/EHoAIB0aePbuTfnh250uGmzcmN0x/sJSUoQLPe0pX768rZwef/xxWb58ua0A+AOhBwDSMGbMGPn8889t5dS8eXPzwwr8Q+/z6BADvc8TE13APgVCU+HChWlzA3IQoQcAvEhKSkpzBDVtbf7lGlUdU4LAg/DQs2dPufbaa23l9P3338sHH3xgKwC+RugBAC+0rW3nzp22ctITHj3pgf+4hhg0r1PCfAXCQXqnPXv2pIR9AL5F6AEADz766CP5+OOPbeWkd3j0Lg/8i5OenLdkyRJ54YUXpF27dtKkSROzaDP1r+joaPPe3XffLePHjze7rJC2GjVqeA0+ycnJTIIE/CTqv1PsawDAKTt27JDatWubH0A8+e2338yYaviPLiW99rE/zW6eb57xvOME/qMB5rHHHpM1a9bYJxnXtm1b8/defPHF9gk80d09c+fOtZXTtGnTpHXr1rYC4Auc9ACAG21r8xZ49FNYAo//uU55mNoWWHqyU61aNbnhhhuyFHiULtu85JJLpEePHuYDBHjGUAMgsAg9AJDKZ599Zia2eVK/fv00f1CB76zdfNB81cltCAw93dF9MmmFndjYWHOSo7/SG9Wuv5f0NEODFM52+eWXyz333GMrpwULFsizzz5rKwC+QHsbAFi6i0fb2v7991/7xOnHH3+UK664wlbwp/gPEmVmwg6J7xMnLeqUtE/hLxpMNNR70q9fP7nxxhu9tqvp3ztnzhx58cUXPQYmDUp//vmnlCzJ/x/d7du3T+Li4mTz5s32iZPu7qlVq5atAGQHJz0AYGlbm7fAo6OrCTyBQ3tb4GgL2nXXXWerM/QkR0PMW2+9leb9nHr16sldd90lq1evllGjRkmJEs5pe/qfcdNNN9kKqRUtWpQ2NyBACD0AcMrXX38t7777rq2c9PRn+PDhtoK/6VJSHWTAUtLAGD169FknNNq+Nm/ePKlatap9kjEafn755Zezgo/e85k8ebKtkFqvXr3kmmuusZXTd99957XdFkDm0N4GIOIdOnTIBJt169bZJ04//PCDGcuLwPh6xmYZOWGdtGlSWh7uUd0+hb/o2Oldu3bZSkxgWbVqVbba0TTgdOjQwVYptM1NT4NwtsTERKlZs6atnGJiYmTlypVSrFgx+wRAVnDSAyDiaVubt8Bz//33E3gCbOmaveZr3Vh+yPO3P/74wxF4lE4ozO79m/bt20v37t1tlUJPk/S/D2fTez3eBhckJSXR5gb4AKEHQET7/vvvzZ0FT84//3wZMWKErRAoqzfvN1/rxRY3X+E/s2bNsq/O6Nq1q32VPZ5+UP/kk0/sK7gbNGiQ14l4+j1KB6kAyDpCD4CIdfz4cXPK443e48mTJ4+tEAh6nyd55xGzlJT7PP63cOFC+yqFtrZl9h6PNzrgwP2HeF26Ce8YagD4D6EHQMTSwPP333/byknH9Hbq1MlWCJSkXYfNV055AmP37t32VYqmTZvaV77RrVs3MxRh2LBh8vvvv3OnJx1XXnml3H333bZymj9/vgwdOtRWADKLQQYAItKUKVPkqquuspVTlSpVzH6MggUL2icIlHHTNsrYqRukV9uK0rNNBfsU/qL31XSymosGFP29gZyj+8L0js+WLVvsE6cVK1aY9wFkDic9ACJSem1tBJ6csWR1yn6equUKma9ApNEpbbS5Ab5H6AEQcTTw6EmOJ3fccYd06dLFVggk3c2zZvMB85qlpDmD9rPgcMstt8jVV19tK6dvv/1Wxo4daysAGUXoARBRfvrpJ68T2c477zyWkOYglpIGnvvQAh0rvWPHDlshJ6V32rNv3z5bAcgIQg+AiJJeWxsLAHOO65SHIQaBoxPW3E2fPt2+Qk6qVauWPPPMM7Zy2rx5M21uQCYRegBEDP0hYfHixbZy6t2791nLFBFYLCUNvNatW9tXZzz22GOc9gSJwYMHS6NGjWzl9Oabb5qTawAZQ+gBEBFmzJghzz//vK2cypQpQ1tbEHAtJeU+T+Boe5tObEtNW9wef/xxWyGnMdQA8A1CD4CIkF5bW8mSJW2FnOBaSlomOj/3eQJMT3bcjRw50uyL4cQn5+lpnO4N82TevHleP8wB4EToARD2nnjiCfPDgSc33XST3HzzzbZCTnGd8lQrV8R8ReBcfPHFHls7Nfg0a9ZM/vjjD/sEOUVPe/RE2hM97Vm5cqWtAHhD6AEQ1mbPni1PP/20rZyio6NpawsSrvs8OrkNgaf3Qxo3bmyrM7TV7ZJLLpFq1arJ+PHjOfnJIcWLF6fNDcgmQg+AsJZeW1tMTIytkJOWrGEpaU7S9s4pU6Z4DD5Kw88NN9wg1atXN21vkydPtu/41gsvvCBRUVFp/tIA1q5dO/PXrl271v6d4a9Pnz7SqVMnWzl98803Mm7cOFsB8ITQAyBs6QnPrFmzbOV0/fXXmx8ikPN0N4/e5ylSMA/jqnOQBh9tAx00aJB9crZdu3aZtrcOHTqYk1J/BiBvNIBNnTpVHn30UYmNjTUBKFLCT3qnPQcOpIx9B3C2qP9Osa8BIGzMnz9fmjRpYiunokWLyvLly6VChQr2CXLSzIQdEv9BomltG/VQffsUOWnJkiUmVGi4yIgSJUpIjx495K677vK4+yej9PRG/3vVqFGjpHbt2uZ1avp7V//5tN1OQ5jS/379Pe++bDUc6e4eb9P17r33Xnn99ddtBSA1TnoAhKW02tpGjBhB4AkiesqjOOUJHhpctN1NT1V0cpiGirS4ToDq169vPmzQQJJdGnh0yIL7Lw1Wb731lqxater0AAb979dTp0ig0/YaNGhgK6c33nhDfvnlF1sBSI3QAyDs6AjX3377zVZO1157rdxxxx22QjBgKWnw0pMTDRg7d+6USZMmZSgA6YmL3v/Ruzf+nPym7XgarrTFTempFG1uDDUAvCH0AAgr2vbi7Q/9AgUKMK0tCLGUNDS0b98+UwHINflt8ODB9ol/PPzww/aVyNy5c+2r8KYLZfXEy5M///xThg0bZisALoQeAGElvba2SOj5DyWupaR6n4elpKHDUwDyZujQoX5tPUt972fDhg32VfjT057SpUvbykk/+Pn7779tBUARegCEDQ01P/74o62cOnbsGDE9/6HENaqaU57Q5QpA27dv93rCoPd9/H3ioypWrGhfhT89ZfPW5qYzqmhzA5wIPQDCwl9//eX1lCd37ty0tQUp7vOED71j88gjj8jixYs97vvREx9/3PHRaW4uNWvWtK8iw6233mo+0PHk66+/lo8//thWAAg9AMJC//797auz6QlQjRo1bIVg4rrPU61cEfMVoc81+c1T8NFxy760Y8cOefHFF81rHWiQnXHZoSqtoQYDBw6UgwcP2gqIbIQeACHvtddeMz9keaIXfv/3v//ZCsEk9VJSvdOD8KGnPp999tlZgw50wpoOG/EFDTz33HOPGZigxowZY75Gmjp16siTTz5pK6d///2XNjfAIvQACGm6qyOt4QW0tQUv7vOENx0aoicN7jK68NQbbZHT+0HVq1c/Hax0mILu8IlUTzzxhNmR5Il+KPTrr7/aCohchB4AIU3b2o4dO2YrJ2170U9BEZzWbk5pu+GUJ3zddttt9tUZP//8s32VNh13HRUVddYvfa73g6Kjo2XQoEHmgw8dphDp2N0DpI3QAyBk6USo77//3lZOl19+eZonQMh5Oq5aMcQgfGmbm7aYprZ69Wr7Knu0rW3atGkyevToiFlKmpZ27drJnXfeaSunOXPmyAsvvGArIDJF/adzDQEgxKxbt86c4ni7pLtw4UJp0KCBrRCMrn3sT3OvZ9zgRuzoCWM6Kl4/oEjN248e+oP5o48+al6PGjXKsYMntVmzZpkTI1ernLa46djsHj16mDpS6d6kuLg42bZtm31yRq5cuWTlypVSrVo1+wSILJz0AAhJeorjLfBo6wuBJ7jpKY8GHpaShr/KlSvbV5mjgUfv6Xj6paOxdXiJnvboSdKuXbvkhhtukLffftv+3ZFJW/68tbmdPHmSNjdENEIPgJDz3nvvmR0Unmi/P3+wBz+GGMAXdFiChh9XC13fvn19Nh0uVOk9Km93nL788kv55JNPbAVEFkIPgJCiI1iZ1hb6WEqa83QKmraTaUuYtjz5Y3GoWr9+vX3lP9ra5hLppz0qvaEGhw4dshUQOQg9AEKKBp49e1JOCdzproqmTZvaCsHMtZS0Xmxx8xWBpRf/9VRU78/o2GdtE/vhhx/su77lPmTAfbCBL+iJj+s/d/z48eZrJKtbt67Ex8fbymnDhg2chiMiEXoAhIwPP/zQ/IDmyYUXXmh2VSD46X0e11JS7vPkDA0JsbGxtkrh7fdWdrnv5dH/bn/S+z0QGTJkiNSrV89WTq+++qr89ttvtgIiA6EHQEhITk5Os61txIgR9hWCXdKuw+Yrpzw5q3v37vZVCj3t8XWL2+TJk+2rM1q2bGlfwd/Y3QOcQegBEBI08Gzfvt1WTo899phcdNFFtkKwm5Ww03xlKWnOuv766+2rMx588EH7yjdee+01++qM1q1b21e+tWPHDvsKLldddZXccccdtnKaPXs2dyARUQg9AIKeThv66KOPbOXUqFEjefrpp22FUKCtbapquULmK3KGtj6536+ZP3++z5ZY6kAB99a2fv36mYWlvqb3hvSfXbmfYEU6Pe3x9r+5nvboCR8QCQg9AIKaLtujrS186G4e17hq2tty3rBhw+yrM3S4QXaHAejfr+Oj3aX1ezk7dAGqyzXXXGNfQWng8dbmdvz4cdrcEDEIPQCCmv6QtGXLFls56Q9nl156qa0yTvd46KfZ7dq1kyZNmkhUVJTjly740/f0Byn94c19+hSyTocYKG1t00EGyFl62jNo0CBbnaGLPgcPHpzpljH96/Xv07/fnQYsXw8x0N+b+nvVdaKkJ1c6ghtO2uKmrW6efPHFF/Lpp5/aCghfUf+dYl8DQFDRP4w93TtQOpI1s0sINcDo/Z+stHPoD1P69+o2eGTd1zM2y8gJ66RLy3LSr3MV+xQ5TYOCp+ltJUqUMO917NhRmjVr5rVNSgcg6MjrkSNHepyepm1tqXfpeKMfRuiHGWrUqFFSu3Zt89rdrFmzZOHChY5/5saNG5tFpf5onwsH+v2yfv36tnKqVKmSrFy5UvLnz2+fAOGH0AMgKO3bt8/8wLNx40b7xGn69Oly5ZVX2ipt+of9dddd55Pedb0v8Oabb/KDVRbFf5AoMxN2SHyfOGlRh/8Ng4mebGpoSYuGoNS7sObOnZvuiOiMBh6VOvRkhp5WPfTQQ/y+TIfu7tF9Zp488MAD8vLLL9sKCD+EHgBB6a677pJ33nnHVk76w01G7/Lo6Y7+MJfWD2a6r0Q30ittz3FdiPZG//qvvvrK6w4MeHfzs/PNIINxgxuxoycI6fABvePhi103GpD0Lon+Xs6ojIYePdXR34etWrWSrl27EnYyQb9vLV261FZOM2bMMEtrgXBE6AEQdL799lu59tprbeVUs2ZNWb58ubl7k5602jn00+cbb7zRa7ua/r1z5syRF1980eMJkf7A9eeff/LDVibofZ6+Ly2WMtH55aPBje1TBBsN/qNHj5bnn38+S+FHf2/ceeedctttt/H7IwhNmjTJtCt60qJFC5/vagKCBaEHQFA5fPiwaWvzNjxAlx16u5Cbmv7gpncQ3AOLfkKs9wAyc6Ha26ffes9H7xAgY6bOS5bh41ebtjZtb0Pw0x+AXfdndu/efdYIaqW/D8455xxp2LCh2ZfFvbfgd/vtt5tg64nu7unfv7+tgPBB6AEQVO69915zZ8aT++67z+OyQ088tclkJ6ToyY+20rgHH/3UtH379rZCWl4cv0qmzdsqvdpWlJ5tKtinAAJt27ZtEhcXZ1YCuMubN68kJib6fNIekNMYWQ0gaEycONFr4KlevXqmtodra05qer/g448/tlXmaR+8pwWp999/v32F9Lj287CUFMhZ5557rtfdPceOHWN3D8ISoQdAUDhx4kSaiws18OTLl89WadOWHPcTmYEDB2b7foGe6Lhve9f2OXrg06dLSXWAge7mYSkpkPP03pXuOPLk888/9zjCHAhlhB4AQUEDj+6J8EQ3u1999dW2Sp/eQXCnE558wdMnoJ988ol9BW9cpzyx5VhKCgQLb6c9Sj8oOnr0qK2A0EfoAZDj9HL0K6+8YiunypUrZ3g8tYteuk5NW9t81Z+ubW46DCG1adOm2VfwZu3mg+ZrbPnC5iuAnKfTLR9//HFbOa1fv542N4QVQg+AHJdeW1uhQpm7A6JTplJLvUzRF7p162aGIgwbNkx+//13Wb16tX0H3ui4alU3tpj5CiA4PPXUU1KnTh1bOb300ku07yJsEHoA5KhHHnlEEhISbOWkez6uu+46WwUP/WfWKXD6lfG8GbN6837zVdvbAASXtNrcOO1BuCD0AMgxP//8s1n+6Un58uUz3daG4KSnPDrEQFvbYqIL2KcAgoUuK7311ltt5aQnPXriA4Q6Qg+AHJNeW1vx4r6Z8kX7Wc5KPcQAQHDS0x69/+iJnvboHR8glBF6AOSIwYMHy6JFi2zl1KtXL+nRo4etMs99aIGOld6xY4etEGhL1+w1X7nPAwSv0qVLe21z0ylutLkh1BF6AAScXv4fOnSorZz0D97strXphDV306dPt68QaK77POznAYLbXXfdJW3atLGV0/jx483+HiBUEXoABFx6bW2lSpWyVda0bt3avjrjscce47QnByTtPHx6KSn3eYDgl95Qg2PHjtkKCC2EHgABFR8fL3PnzrWV04033ig9e/a0VdZpe5uOlE5NW9y87aOA/6zZnDKqmvs8QGho2LCh+ZDIk7Vr19LmhpAV9d8p9jUA+NWcOXOkefPmtnLSC7TLly+XsmXL2ifZoxOHLrnkElud0a9fP3n66aelZMmS9gn8ady0jTJ26gbp0rKc9OtcxT4FEOx0d49+T/ZEv7+2aNHCVkBo4KQHQMCk19bmq8CjdH9O9+7dbXXGyJEjpVmzZizcCxCWkgKhid09CDeEHgAB8cwzz8jMmTNt5dStWzevOyKy480335TGjRvb6gxtddNToGrVqpnLudz18Y/9h44zrhoIUZ06dZI+ffrYykmH0bzyyiu2AkID7W0A/G7BggUew4cqUqSIaaGoWLGifeJbGmjatWsn8+fPt0/Opq11OiJbF/S1b9/ePvW/JUuWmGlI+r/P1KlT7dMUeiepUaNGctVVV5lTq1Ckpzx9X1pslpKOeqi+fQogVCQnJ0uNGjVkz56UDy9SK1CggCQmJkqlSpXsEyC4cdIDwO/Sa2vzV+BRendn3rx5MmjQIPvkbLt27TJtbx06dJDo6Gi5++67ZfLkyfZd39Owo0Gsfv36ZnS3e+BR+kzf0xOpJk2amL8n1LhOeRhVDYSmMmXKeG1zO3z4MG1uCCmc9ADwq2HDhsnAgQNt5XTNNdfIN998Yyv/0+Dw6KOPegwZnrhOgHR3hafdP1mh7XQ33HCDrURiY2PN3SM90Ult1qxZ8s4775hWPJdPP/00W0tbAy3+g0SZmbBDBvSoJm2blLFPAYQa3d3jbdeZnlZrizIQ7Ag9APxm6dKlXsNC/vz5TVub/tAfaDp2VU+YNIDoKU9GaHte//79sxU6UgceDVRvvfVWuv95+vfoyZPrn1N76UOl3e3mZ+ebHT3jBjdiRw8QwtJqUdbv4StXrpTcuXPbJ0Bwor0NgN+k19aWE4FH6R4fDRw7d+6USZMmmTHWGkLSoneCNLDo8IOsTH7TU6bUgeeXX37JUIDSv0b/WpfevXuHxOAFvc/DUlIgPOj9wsGDB9vKSU+jvZ3mA8GE0APAL1566SWv7RB6d+bee++1Vc7SwQWZCUCuyW/efgDwRtvqXL777rtMtcvpX6ttgkr/+0ePHm1eB7PVm/ebr9znAcKDTuCsWbOmrZz0Q6zZs2fbCghOtLcB8LkVK1ZI7dq1xdO3l1y5cpm2tri4OPskOOkgg4kTJ5oBB95oQNLAlJ7Ui1Iz+ve4c02h09752267LeiXq744fpVMm7dVerWtKD3bVLBPAYSyCRMmmLuYnlx66aXy66+/2goIPpz0APA5bWvz9nnKiBEjgj7wKNcJ0Pbt20+fsrjTQJSRE5833njDvkq75S8tril0jzzySNAHHrVmc8pS0qrlCpmvAEJf586d5ZZbbrGV02+//SavvvqqrYDgw0kPAJ96/fXX5f7777eVk04AyujktGCjd3Juv/12j/t+0hsuEBUVZb7qRWANLuFOl5Je+9if5vU3zzQz93oAhIctW7aYD6727t1rn5xRsGBBs7vHn2sIgKzipAeAz6xevTrd4QWhSu/VTJkyxeMEI+119yb10INIGeuqQwyULiUl8ADhpWzZsl539xw6dIjdPQhahB4APqOB5+jRo7ZyeuGFF+SCCy6wVWjStrLPPvvsrEEHenrlbXnov//+a1+J1KlTx74Kb67WNoYYAOFJx+hfeeWVtnL65JNP5KuvvrIVEDwIPQB8YtSoUeaSqyetWrWShx9+2FahTcddexrP6q1tb8OGDfaVSLFixeyr8LZ0TUrbS93YyPi/F4hE3k57lH6PPHnypK2A4EDoAZBt//zzT9i2tXmi09Pc/fzzz/aVd97GvYYb17jq2HKFzVcA4Udbfb21smmrM21uCDaEHgDZ1r9/fzlwIKWlyd2zzz4rDRs2tFV40Da3tm3b2iqF/iGfnlCYupZdrqWkZaLzs5QUCHNDhw71Oo1TW5rnzJljKyDnEXoAZIsuyvTWv60TzQYNGmSr8KJtbqnp0lCcOeWpVq6I+QogvKXV5sZpD4IJoQdAlm3evDmi2tpSq1y5sn2VcbpgNNy57vPo5DYA4U+Xlfbq1ctWTrqs9LXXXrMVkLMIPQCyTNvadu/ebSun+Ph4adasma2gVqxYYV+FryVr9pivdasyxACIFHraU7RoUVs56WlP6imWQE4h9ADIkrFjx8r48eNt5aRhZ8iQIbYKLN2Lo73kPXr0kGrVqjn25PjS+vXr7au0pV7SF+5/8OtSUr3Po7t5OOkBIke5cuW8trkdPHiQNjcEBUIPgEzbunVrULa1rV27Vi655BJ59NFHzT4dvWfzww8/2Hd9S/+7UnMfbOCSemLbsmXL7Kvw5Drl0altLCUFIss999wjl19+ua2cPvroI/n6669tBeQMQg+ATNPAs23bNls5DR482AwwyAk6XCA2NtZWKTT8+IP7Xh73wQYu9erVO73M1F//LMFi7eaD5iunPEBkSm+owX///WcrIPAIPQAy5dNPP5Vx48bZyklHUz/zzDO2yhndu3e3r1LoaY+vW9wmT55sX53RsmVL++ps2mqn/PHPEkx0XLViKSkQmZo2bepxebP6+++/aXNDjiL0AMiwXbt2Bf20tuuvv96+OuPBBx+0r3zD0zSi1q1b21dnu/HGG+0rkTfeeMO+yjwNT3qS5t5aFwz0Ps/R4yelZLF8smbzATl+gk90gUikpz01atSwldOwYcNk7ty5tgICi9ADIMM08OiYak8eeeQRadWqla1yjraTud+vmT9/vhlu4Atvv/32Wa1t/fr1S3PxqLb7uf6ZtMXN00lRevTv0b9XlwF++eWX9mlw0MAzcsI6mZe4S3bsPSrjpm6U6+PnyvuT/5Hte47avwpApEirzc3bSRDgb1H/0WAJIAP0B+1u3brZyumCCy6QpUuX2irnLVmyROrXr2+rM7Q1z9VqlhU6re6GG26w1RnatubtTo+L/jNpKNTTMr3j88svv5iAlhGp/169s/Tnn3+mGbICSQPP8PGrZWbCDjO84KpmpWXVvwdk8eqUoQbqqmZlpGPzGDm/AgtLgUihu3u8tUK//vrrcu+999oKCIzc8bpMAwDSsH//frOAbs+eMz/IpqaTedwHCOSkmJgYOXbsmPz+++/2SYqvvvrKPNdAVKhQIfs0fbpU9Nlnn5UHHnjAPjlD2zU6duxoK+/0n6lSpUrmn+Hw4cPm1Oacc86Rxo0b27/CMz1Z6tmz5+mwpCc+VapUse/mLPfAM6BHNbn2knLSpklpqV+tuBw7flLWJx2U1ZsOyOQ5yfL3xv1S+NRfd965Be1/AoBw1aRJE3nnnXfM91x3+r35lltukWLFuP+HwOGkB0C6+vbta3749kTvy7z00ku2Ci56quNpYpqGB31Pw4ruFPJ2aqJDB3Tk9ciRI03ocKdtbW+99ZatMsb9tEjD4p133ikXXXSRfSKyd+9eSUhIMD8w6CmS0n/m7777Lscm47nTwBP/QaIZU10mOr8M71dHYqIL2HfP2LjtkHw/c4tMnJ1sQpDSEx89+dETIADhS0907r//fls56Yc5uu8NCBRCD4A0TZgwwZzyeBIXFyfLly+XXLmC93rg3XffbUJLWjRQ6NQhF71o6ynkpJaVwOOi7Wq33367uWuUEXofSP+70muhC5SknYdlwMgEs4hUx1PH947zGHhS05A0cXbSqQCUJFt3HzHPzj0nv3S8KEY6nQpARQux1wcIR7q7R9t5PdHdPddee62tAP8i9ADw6siRI1KnTh1ZvXq1feI0adIkad++va2Cl55S6ajU9IJMRmhA0ku6d911l32SdXqS9Mknn5hpbKmHI7hCmP6woIEno3d/AkHHUg8Zs+J04NETnswuIp06N9mc/CRu2GfqPLmjpNNFZc3pT8UytL4B4UTvIF544YW2ctIpb4mJibYC/IvQA8Cr++67z+uIZb2Eqq0LoULv5YwePVqef/75LIUfVxvabbfdFjRDBAJNA4+e8OipTb3Y4hLfJy7TgSc1nfb23cwkmfPXTvtE5NJ6paRTixjznw8gPOjENr3/6Im+l9a0N8BXCD0APNIL8x06dLCVkwYAbWvLnz+/fRJa9IRl1qxZsnDhQtm9e/dZI6iVnrDooAFduKr3bYLlLk1OWbJ6j8SPSTSBp0WdkmZoQXYCT2qr/t1vTn4mz0myT3TBaXHp2LyMtGpwrn0CIFTpj5p6qrNq1Sr7xElbinXwAeBPhB4AZzl58qTUrl3ba9vBt99+K507d7YVwt3UeckyasJ6E3i6tCwnPdtU8FngSW37niMm/EyclSR7DqRMfNJJb1e3iDGtb3nzsFoOCFU6ubJr1662crriiivkxx9/tBXgH4ysBnCW/v37y8SJE23lpHdZdEkpIsPXMzbL+5M3nA48/TpXkXx5/RM+ChXIY0Zdd720nJxTJK8k7z4iG7ceknmJu2XCzCQ5cOqf4bzSBaXwqb8OQGipVauWuR+6bNky++SMdevWybnnnusYKAP4Gic9ABymT58ubdq0sZVTxYoVTVtbkSIsmYwEGnhGTlhnXrsCT6DNWLrDjLxOvey0bdPS5uQnrmJR+wRAKNi4caOZ+nnw4EH75IyiRYua7oJy5crZJ4BvcdIDwEHHh27dutVWTu+9955Z7InwN27aRhk96R/zWsNOr7YVzetAq1SmkFl22qD6OXLsxH+ybstBM1Dhhz+TZeXGA1I4f25z+gMg+BUvXtyEmylTptgnZxw9elS2b9/OCGv4DSc9AE579NFH5YUXXrCV06233mqmnyH8vTh+lUybt9Xc2+nbubK0bRI8S0Q3bT9sl50myZFjKctOq5+ny07LSPsLY0wNILi1atVKfv31V1s5cWcU/kLoAWDo8jjdC+OJthskJCSY/TEIX3pvR9vZXIFHJ7TppLaM0Il4l1xyia0yzrWTSBev6j6i1q1bZ2gJ68HDJ0zw+e5UAErelbLstFTxfKbtTReeFi+c1zwDEHzmzJkjzZs3t5WTtr+tWLHCVoDvEHoAGI0aNTIjnD3RBZo33HCDrRCONPAMH79aZibsyHTgUVkNPZ40btzYDNPo0aOHfZI2DWkagFb8k7LsNFeUSKcWKctOK8cUMs8ABJdHHnlEXnzxRVs5DRo0SJ599llbAb5B6AEgjz32mNc/YHr27Cljx461FcJRdgOP8mXocdFdSbrQUE+AMmL+yt3y/awtMivhzLLTlnVLmgCkU+EABI8TJ06YUx2d6ObJvHnzzAcggK8QeoAIl9YPqzpCVKe16VeEJw088R8kypI1e6RMdH4Z3q+OxEQXsO9mnKd/j7xtYE9tz549smDBAo8LYpW2v7311lsZPvVROuhAT370l8sFVYuZk5/LG/LvMhAsvvzyS+nWrZutnK688kozTRTwFUIPEOEuvPBC+fPPP23l9OGHH0qvXr1shXCTtPOwDBiZIMk7j0hs+cIS3zsuS4FHeQo9mfnjZceOHeYHHD11XLNmjX16xu+//y4XX3yxrTJm596j8r2Gn1lJsnt/yrLT8qUKnG59y++nfUMAMu6mm24yLdSevPnmm3L33XfbCsgeQg8QwZ588knxNrVeP1n/9NNPbYVwo6chQ8asOB149IRHW9uyKruhJzWdIKiTBFPTE5/58+dnaMiBO/3H0LY3PfnRkdeqUIHcJvhcfVFZc8IFIGds2LDBtLkdOnTIPjmjWLFisnLlSomJYTIjso/QA0QoPd3RUx5PzjnnHNPWxpK48KSBR094tLWtXmxxie8Tl63Ao3wZetT48ePPGp7RvXt38zw7/liWsux04aozy051D5AGoJqVWHYK5IRXX31VHnjgAVs59e7dWz744ANbAVlH6AEilP6Aqj+oeqJLSG+77TZbIZwsWb1H4sckmsCjwwp0aEF2A4/ydehRgwcPlqFDh9oqhba+ZeW0x93ydXtN69tPC7bZJyJN4kqY8HNRnWj7BECgXHrppTJjxgxbOU2YMEGuvvpqWwFZQ+gBIpD+IKk/UHpy3XXXmculCD9T5yXLqAnrTeDp0rKc9GxTwSeBR/kj9Og9n+rVq8uuXbvsE9+Pst28w7XsNFkOHz1hnsWWK2zu/XS4MHiWsgLhbtasWdKiRQtbOdWqVct0HwDZkTveW0M/gLCku3i0TciTwoULm0/UtL0N4eXrGZvl/ckb/BJ4lPblu7egZPePl0KFCsnevXvNEAOXzZs3y/3332+r7CtaKI80rlFCrr2krHmtIWjD1kMy56+dMmlOshw5elIqxRSSAvly278DgD9UqFBBDhw4YMKPu23btsnx48e9LtAGMoKTHiDC6B8av/zyi62cRo4cKX379rUVwoUGnpET1pnXGnj6da5iXvuSP056lKf/3O3bt0vJkpnbI5QZPy7YKhNnJcvy9XtNHXXql2viW5WyLDsF/EWDjQ418DTBUel4+4YNG9oKyBxCDxBBdPu1bsH2pHPnzvLtt9/aCuFi3LSNMnbqBvNaw46GHn/wV+jRFrdSpUrZKkVWxldnxYK/ddlpksxctsM+Ebn4gpRlpw2rs+wU8IcvvvhCrr/+els5tW7dWqZNm2YrIHMIPUCEWLZsmdStW9dWTvny5TP90tWqVbNPEA70dEdPebSNrW/nytK2if/uqPgr9KioKD1rOSNQocdl7ZYD5uRHx1671K6Ssuz0ykYsOwV87cYbb/S6MoGOBGQVoQeIEG3btvX6Cdlrr70m9913n60Q6vTejgaeafO2msCjE9p0Ups/hXPocdm176gZeKDLTneeeq3KlSwgnS4qKx0vKsO9H8BH1q9fb9rcjhw5Yp+coXdOExMTpUwZBo0gc1hHDUSAl19+2Wvgad++PYEnjGjgGT5+dUADT6QoUTSfGQDxWXwT+d91sVK1XGEz+ODt79fJ9fHz5J3v18uWUzWA7KlcubI899xztnLavXu3/N///Z+tgIzjpAcIc/qJWO3ateXkyZP2yRn6Cbq2tdWsWdM+QShzBZ6ZCTsCHngi4aTHk5kJO83Ia73/43Jlo9Lm5Kd25WL2CYCsaNmypWN6Y2rfffeddOrUyVZA+gg9QJjr2LGjTJo0yVZOI0aMkIceeshWCGUaeOI/SJQla/ZImej8MrxfHYmJLmDf9T9/hR5/hilf+mv9Ppk4O0mmz99qn4g0qlFCOjUvIy0u4KQNyIqZM2d6/YBDP8xLSEiwFZA+2tuAMPbGG294DTw6BYfAEx6Sdh6Wvi8tNoEntnzhgAcef3Lf2dG4cWP7KrjUqlxUHrmhuowb3Fiub1VeCuXPLQtW7pL4MYly1/BFJhAByBxdVtq/f39bOWmXwuOPP24rIH2c9ABhSvcc6Cdhni6CqiVLlnid5obQsWbTARkyZoUk7zxyOvD4culoRvnrREYnCqbe2TFo0CB59tlnbRW8dKnp96eCjk5827w95Z5PiaJ5zcQ3HXygrwGk79ixY1KjRg1Zt26dfeKkC7cbNGhgK8A7TnqAMDVgwACvgef5558n8IQBDTwDRiaYwFMvtniOBR5/efvtt89aUnjbbbfZV8Etf75c0vXScvLh/zWSgTedL3WqFJNd+46ZvUnXx8+VV79aI2s3H7B/NQBv8ubN63WogWKoATKKkx4gDOkPi972GFx22WXyyy+/2AqhasnqPaZ1Su/yaOCJ7xOXo4HH1yc9ehLZqlUr2bVrl30i0q9fP3nrrbdsFXoWrdpjTn5+X3pm2WmLOtHm5KdRjXPsEwCe9OjRQz777DNbOY0aNUruuusuWwGeEXqAMLNhwwbT1rZ//377xGn+/PnSqFEjWyEUTZ2XLKMmrDeBp0vLcmaMck6f8Pgy9HgKPCVKlDD/7latWtU+CV3rkw6aXT/fnQpArv+J9E6Qtr61blw65QEAB21v0909R4+m7MhKTb8/6KTS0qX5/QPvaG8Dwoy2tXkLPE8//TSBJ8R9PWNz0AUeX9mxY4e88MILZwUepSc84RB4VOWYQnJvl6ryeXxTuaVdRYkultdMf3vh01XS89n58vkvm+TgkRP2rwagqlSp4rXNTb9f0OaG9HDSA4SR999/3+udB52Co5/GI3Rp4Bk5IeUyrwaefp2rmNfBIKsnPXqqs2LFCpkxY4aMHz/+rLCjPv30U9PaEs4mzU4yE95Wb0q556N3gvTk5+qLykq5UuExiQ/wBf0+4+3PsokTJ0qHDh1sBTgReoAwsWXLFtPW5umHRjV79my58MILbYVQoxfgx07dYF5r2NHQE0w8hZ7s0paVjz76SNq3b2+fhL/Zy3eaez/zEs8sO72i4bnS8aIYMwwBiHRpfa+pU6eOLFu2zFaAU+74U+xrACFMBxfMmzfPVk5DhgyRm2++2VYINXq6M/7nf00b2/1dq5qL78FG75J98MEHtso+HVrwzTffSL169eyTyFChdEG5olFpaRpXQk6c/E/WbD4g67YclKlzt8ry9fukQL7cUqlMIftXA5GnYsWKsnfvXpkzZ459csbWrVvNCbO2yALuOOkBwsC4ceOkV69etnJq2rSp/Pnnn7ZCKNF7Oxp4ps3bagLPgB7VpEWd4Nzu74uTHl08evvtt5vFueFyfye7kncdMSc/E2cly4HDx80zvRPUqUVZ6di8jOSKijLPgEii6xh0qMH69evtE6dFixZJ/fr1bQWkIPQAIW779u2mrU0/4fJE70r4uu0I/qeBZ/j41TIzYUfQBx7lKfQMGzbMvvKsePHi5t9ddfHFF5uv8Ozo8ZNm4tv3p379u+2QeVa8SF7pZJadxkh0sXzmGRAp9A7gDTfcYCundu3ayQ8//GArIAWhBwhxvXv3lg8//NBWTqGyvR5OoRZ4lKfQwx8v/vHLom3m5Gfp2j32iUiHC2PMvZ9q5QvbJ0D46969u3z++ee2ctJ9dXfeeaetAEIPENLS+qSrQYMGsnDhQlshVGjgif8gUZas2SNlovPL8H51JCY6+Kd3EXoCb9Gq3TJxdrLMWLLdPhFpXjtl2WmTOJadIvytXbvWtLkdO3bMPjkjOjpaVq5cKaVKlbJPEOkIPUCI2rNnj2kN2rRpk33i9NNPP8nll19uK4SCpJ2HZcDIBEneeURiyxeW+N5xIRF4FKEn5/yTrMtOk83dHx1+oOIqFjVtb22asKwR4W3EiBFmP50nekfw3XfftRUiHaEHCFH6zXz06NG2cnr44YfNkkeEjjWbDsiQMStOBx494QmlpaOEnpy398Axc/Kj4Wf7npSt9Rqadd+PDj0oHEL/PgGZoXvoZs2aZSunSZMmRdTYe3hH6AFC0FdffSVdu3a1lRN7CkKPBh494dHWtnqxxSW+T1xIBR5F6AkuP/yp4SdJVv2739T58uQyd3709Oe8cwuaZ0C40IE9l156qa2c6tata5YgA4QeIMQcOHDABBtvozqnTJkibdu2tRWC3ZLVeyR+TGJIBx5F6AlOc/7aZU5+5q44s7S4VQNddlpG6lYtbp8Aoe/BBx+UV155xVZOuquOtZQg9AAhRpc2jho1ylZODzzwgLz88su2QrDT6Ww6pU0DT5eW5aRnmwohGXgUoSe4rdy434y8njI32T4RqV/9HOnUvIy0rMdFb4S+w4cPm6EG//zzj33ipKc9euqDyEXoAULId999J507d7aVU40aNWT58uWSO3du+wTB7OsZm2XctI1hEXgUoSc0bNt91Jz8TJydJPsOpiw7rVSmkGl70/a33LlYdorQ9emnn8qNN95oK6errrpKJk+ebCtEIkIPECKOHj1q2tpWrVplnzh9//330rFjR1shmGngGTlhnXmtgadf5yrmdSgj9ISW4yf+M3d+NABt3Jqy7LRY4bxm4IGOvC5VnGWnCE3dunWTL7/80lZOOslNhwAhMhF6gBBx//33y+uvv24rp3vuuUfeeOMNWyGY6enO2KkbzGsNOxp6wgGhJ3T9uni7OfnR+2UuVzXT8BMj1c8rYp8AoWH16tWmze3EiRP2yRm6sycxMVFKlgzuZc/wD0IPEAJ++OEHryM3q1atatraChQIjX0ukUxPd/SUR9vY+nauLG2blLHvhD5CT+jT0KPhR0OQy4W1SpiTn6Y1S9gnQPB78cUX5ZFHHrGV0x133CHvvPOOrRBJCD1AkNPfotrW9tdff9knTt98841cc801tkIw0ns7GnimzdtqAs+AHtWkRZ3w+qSR0BM+tN1Nw893M7eYNjhVo0IRc+enXdPwCeoIbxdddJHMnj3bVk56t0fv+CCyEHqAINe/f3956aWXbOV05513yttvv20rBCMNPDqhTSe1hWvgUYSe8KODDjT86L0fHYCgSpfIb5ad6ulPkYIMTUHw+u233+Syyy6zlVO9evVk8eLFtkKkIPQAQezHH3+U1q1b28qpQoUKpq2taNGi9gmCTaQEHkXoCW866lpHXuvoa5Und5Rc3aKsCUAVSrPsFMFJ1zi8+uqrtnLSvT26vweRg9ADBLH69et73ST9+eefmyk1CE6pA0+Z6PzyZO+aElu+sH03/BB6IoMuOdWTH1166nJZ/VLm5KdubDH7BAgOhw4dMuscNm7caJ84LV26VC644AJbIdwReoAgNXDgQBk2bJitnPr06SPvv/++rRBsknYelgEjEyR55xETdOJ7x0lMdHgPmiD0RJZV/+43I69/+PPMstN61Yqbkx8NQUCw+Pjjj+Xmm2+2lVOHDh1k4sSJtkK4I/QAQSitXuSYmBjT1hYdHW2fIJis2XRAhoxZEVGBRxF6ItP2Pa5lp8my98Ax80zb3fTkp+NFZSRv7lzmGZCTunbtKl999ZWtnN577z257bbbbIVwRugBglDjxo1lwYIFtnLST628bZxGztLAoyc82tpWL7a4xPeJM3d5gHB34uR/5s6Pnv78k3zQPCt66t99nfim+37OPSe/eQbkBF3qrbt7Tp48aZ+cce6558rKlSulRAnGsoe73PF6kwtA0Hj88cfls88+s5WTHtFz8TI46Y6TQe/9ReBBRMoVFSVxFYua4QaVYwrJ3oMnZMOp8JOwbq98NWOzmf5WsnheKVWc8IPA02WkBQsWNMOB3B08eFB27dolnTp1sk8QrjjpAYLIrFmzpEWLFrZy0m/a2tZWpgx7MoKNDivQoQUaeLq0LCc921Qg8CDiLV27RybOSpZfFm2zT8QsOdXWN116CgRa8+bNZc6cObZymjJlirRt29ZWCEeEHiCIpPUNecyYMXLLLbfYCsHi6xmbZdy0jQQewIt/tx0ybW+68+fosZT2ournFTFtb1c140McBM6vv/4qrVq1spWTTktdtGiRrRCOaG8DgsRTTz0lH330ka2cunfvLs8884ytECw08IycsE6OHj9pAk+/zlUkX14ubgOpFSucV5rElZBrLtaFpnll0/ZDsmHrIZm9fKdMmbtVjpwKQtoSl5/fO/CzypUry86dO2Xu3Ln2yRlJSUmSO3duufTSS+0ThBtOeoAgoN+AmzVrZiun4sWLS0JCgpx33nn2CYKBnu6MnbrBvNawo6EHQMZMm7dVvp+dJIn/7DN17lxRpye+VSpTyDwD/OHAgQNmqMG///5rnzgtW7ZM6tSpYyuEE0IPEARatmwpv//+u62c3n33Xbn99ttthWCgpzt6yqNtbH07V5a2TWjRAbJiXuJuM/JaT31cWtbTZacxUr9acfsE8C3tqujZs6etnDp27Cjff/+9rRBOCD1ADnvuuedk0KBBtnLq0qWL190CCDy9t6OBRz+l1sAzoEc1aVGnpH0XQFat3nTAjLyeNCfJPhGpW7W4Oflp1eBc+wTwneuuu06+/vprWzmNHj1abr31VlshXBB6gByklyYbNmxoK6dChQqZaW3ag4ycp4FHJ7TppDYCD+AfO/YcNQMP9PRnz4Hj5tl55+qy0xjp2DyGO3Pwmb///tu0uXn6Mbh06dJmd88555xjnyAcMMgAyEG6d2fdunW2cnr11VeldevWtkJOIvAAgVGoQG7T1tbtsvPknKL5ZOuuI2bowfyVu2XCH0my//BxKX8qBDEhEdmlayAKFCjgcXeP3vvZs2ePaXVD+OCkB8ghw4cPl4cffthWTrok7bvvvrMVclLqwFMmOr882bumxJYvbN8F4G+/L91hTn4Wrdpjn4i0aVJaOjWPkbhKRe0TIGt0iJCnaW5q6tSp0qZNG1sh1BF6gByg09guuOACWznlzZvXtLVVr17dPkFOSdp5WAaMTJDknUdM0InvHScx0QXsuwACKWHdXnPv56eFZ5adNok7x0x9a1472j4BMufnn3+WK664wlZO2n6+YMECWyHU0d4G5IBevXrJmjVrbOX08ssvS/v27W2FnLJm0wEZ9N5fBB4gSJQukV8urltSrmxUWnLnjpK1Ww7KhuRD8sui7Wb6W9Spv+b8CkVS/mIgg6pUqSI7duzweNqzZcsWyZMnj5mwitDHSQ8QYHpX54EHHrCVU7t27eSHH36wFXKKBh494dHWtnqxxSW+Txx3CIAgc/DICXPy8/2pX3oqq0oWz2cGHujpT/HC/J5Fxuzfv98MNdi0aZN94qTdF7Vq1bIVQhWhBwggnQZTu3ZtOXHihH3ixDfWnLdk9R6JH5NI4AFCyPT5W83Ut7/Wpyw7jYoSudosO42RyjEsO0X6xo0bZ7owPOGebXgg9AABpN84J06caCsnHWzQv39/WyEn6LACHVqggadLy3LSs00FAg8QQhasTFl2OjPhzLLTS+qWNCc/Daqz7BRpu/baa+Xbb7+1ldMHH3wgvXv3thVCEaEHCJC33npL7rnnHls5XXnllTJ9+nRbISd8PWOzjJu2kcADhIG1mw/I97OTTPubS50qxczJzxUNWXYKzxITE6VmzZq2coqJiTHvFy9OeA5VDDIAAmDt2rXSuXNnOX48ZdmeO90Krd9QkTPcA0+/zlVYggiEsBJF88mFtaJNyCmYL7cZeKD7fv5YtsNMfztxUiS2XCHJk5vf5zijVKlSkj9/fvnpp5/skzP03o/u7unQoYN9glDDSQ8QAF26dJFvvvnGVk7PPfecDBw40FYINA08IyesM6817GjoARB+9M7P9zOTZO2WA6YulD+3CUWdTv1iMiNSa9q0qcybN89WTtOmTWNxeIgi9AB+9s4778hdd91lK6dLL71Ufv31V1sh0DTsaOjRNra+nStL2yZl7DsAwtXMZTvku1lJsvDv3faJSOvGpaVj8zJSq3Ix+wSRTE96tO3ck0aNGsn8+fNthVBCexvgRxs3bpRrrrlGjh49ap84ffnll1KuHCcLgaZtbK9+tcZ88kvgASJLxTKFTMhpVOMcOX5CzMmP3gGaMnermf5WsEAeqVi6oP2rEYmqVq0q27dv93jao7t78uXLJ5dccol9glDBSQ/gR927d5fPP//cVk5PPfWUPP7447ZCoGjg0QltOqlNA8+AHtWkRZ2S9l0AkWbLjsNm149+CHLoSMo6garlCkun5jGm/Q2Rad++fVKjRg0Tcjz566+/vA49QHAi9AB+ouMtb731Vls5XXTRRTJz5kxbIVAIPAC8OXxUl50mm5HXm08FIRVdNN/pez/nFMlrniFyfPjhh17HVOtwIm/jrRGcCD2AHyQlJZklpDt3ntkVkdqsWbOkefPmtkIgpA48ZaLzy5O9a0ps+cL2XQA448cF28zJz/J1e+0TMbt+9N6PngIhcmiL+oQJE2zlNGbMGLnllltshWBH6AH84Oabb5aPP/7YVk7a0qatbQicpJ2HZcDIBEneecQEnfjecUxrApCuhav2yPczt5hR1y4tLtBlpzHS6Pxz7BOEsxUrVkitWrVs5VS2bFlZuXKlFC1a1D5BMGOQAeBjH330kTz55JO2cmrSpIl88skntkIgrNl0QAa99xeBB0CmlS1ZQC6rX0ouqVtKoqKi5O9/95udP3oStPDvPZIndxQnP2Hu3HPPNYMLfv75Z/vkDHb3hBZOegAf2rFjh2lrS05Otk+cfvvtN2nZsqWt4G8aePSER1vb6sUWl/g+ceYuDwBkxe79x2TirCRz72fnvmPmmQYjPfnR9rcC+Vh2Gq70Q0tvo6p//PFHueKKK2yFYEXoAXyoT58+psfXE11AqotIERhLVu+R+DGJBB4AfqF3fvSXfriiCuTLbe78dGpRVsqdCkIILxpsvC0lbdy4sddlpggehB7ARz777DPp0aOHrZzq168vixYtshX8LXXg6dKynPRsU4HAA8AvZiXsNCc/81eeWXZ6RaNz5eqLykqtytz1CCd33323jBw50lZOQ4cOlf/7v/+zFYIRoQfwgb1795q2tn///dc+ceLoO3C+nrFZxk3bSOABEFAr/tlnTn6mzdtqn4g0rF7cnPxcfAGj8cOB3t+Ji4szE1o90aEH+j6CE6EH8IE777xT3n33XVs5DRgwQF588UVbwZ/cA0+/zlXsOwAQGDo05btZW04FoGQ5ePi4eValbKHTI691IAJCl7awayu7Jzre+ptvvrEVgg2hB8imr7/+Wq677jpbOenpT0JCgq3gTxp4Rk5YZ173alvRnPAAQE45cuykOfn5fmaSbNp+yDzTBacpy07LSnRRlp2GKl1M+t1339nKSRea9urVy1YIJoQeIBsOHTpkgs26dSk/bLv74YcfpF27draCv2jY0dCjbWx9O1eWtk3K2HcAIOf9vDBl2emytWeWnXZsHmN+sSQ59Pz111/mz35PypUrZ3b3FClSxD5BsGBPD5ANDzzwgEyfPt1WTv/73//k3nvvtRX8QdvYXv1qjflhgsADIFhVKVtY2jYtI3Vji8uRoyfkn+RDZuePmf62+YAULZRXypVi4luo0N09efLkkV9++cU+OWPfvn3mV/v27e0TBAtOeoAs+v777+Xqq6+2ldP5558vy5cvN98U4R8aeIaPXy0zE3aYwDOgRzVpUYfLwgCC3/qkgymtb7OS5OTJlB/DalYqak5+2jQpbWoEv0aNGsnChQtt5fTTTz/J5ZdfbisEA0IPkAXHjx83R9t///23feKkvb6dOnWyFXyNwAMgHOw54Fp2miQ79h41z8qUyC9XtyhrFp4WzJ/bPENwmjZtmrRt29ZWTk2bNpU///zTVggGtLcBWfDggw/K5MmTbeWkc/z1ffhH6sBTJjq/PHdHbalXrbh9FwBChy401Za3rpeVl1LF850KPsdkw9ZDsvDv3eae4t4Dx6VsyQJSrDBDD4JRbGysJCcny/z58+2TMzZt2iQFChSQiy++2D5BTuOkB8ikKVOmyFVXXWUrpypVqpi2toIFC9on8KWknYdlwMgEMxJWL//G946TmGj64AGEjznLd8p3s5JkXuIu+0Tk8obnmpOfOlWK2ScIFrt37za7eTT8eKJDDbTlHTmP0ANkUp06dUyw8eSrr76SLl262Aq+tGbTARkyZgWBB0BESNygy06TZercMz9MN6h+jtn107JeKfsEweCDDz6QW2+91VZO1157rVltgZxH6AEyQReNjhgxwlZOd9xxh7zzzju2gi9p4NETHm1t08AzvF8dc5cHAMLd1t1HzK6f72dtkQOHT5hnlWIKydUXpYy8zpWLZafBQO/xTpw40VZO48aNk5tvvtlWyCmEHiCDdBLLlVdeaSun8847z5z+FCtG64GvLVm9R+LHJJrAUy+2uMT3iSPwAIg4x47rstNkE342bk1Zdlq8cF4TfDq1iJGSxfKZZ8gZuoj8ggsusJWT/oyQmJgohQuzkyknMcgAyKDrrrtOkpKSbOWkJzw6uhK+lTrwdGlZTv7XNZbAAyAi5c4VZcZad764rFQoXUh2708ZeqALT7/8bbMZgqDDEAg/OaN06dKSO3duj7t79u7da3b3eLsPjMDgpAfIgP/7v/+T559/3lZOvXv3Nv288C2dXDRu2sbTgadnmwoEHgBIZcmavebk57fF2+0TkQtrRZuTn6ZxJewTBFLDhg1l0aJFtnL6+eefpVWrVrZCoBF6gHTMmDFDLr30Uls5lSlTxrS1lSzJjhhfcg88/TpXse8AANxtSD5kwo8uPD1+IuXHuriKuuy0jLRtWsbUCIypU6dKu3btbOXUrFkzmTNnjq0QaLS3Aeno1q2bbN682VZOo0aNkgsvvNBW8AUNPCMnrJOjx09Kr7YV5bYOlew7AABPihfJK01rlpDOLcpK4YJ5zJ0fbX2btXynTJ27VY6dOClVyhaWfHly2b8D/lKtWjXTCr9gwQL75Azd3VOoUCFp0aKFfYJA4qQHSMMTTzwhTz/9tK2cbrrpJvnoo49sBV/QsKOhR9vY+nauLG2b8AklAGTFD38mm5OfvzfuN3XeU4FHT346XaR3gtgl50+7du2SGjVqyLZt2+yTM6KioszunurVq9snCBRCD+DF7Nmz5aKLLrKVU3R0tGlri4mJsU+QHdrGpoFn2rytBB4A8KE/V+yS72duMV9dWjUoZcLPBVWZOOovo0ePlttvv91WTjoY6csvv7QVAoXQA3ihx8+zZs2ylZMOLtABBsg+DTzDx6+WmQk7TOAZ0KOatKjDHSkA8CU98dGTHz0BcqlfrbgZeX1pfZad+kPHjh1l0qRJtnLSThHtGEHgEHoAD7SlTVvbPLn++uvls88+sxWyg8ADAIG1fc9R+W7mFvl+VpL5HqwqliloTn60/S1Pbu79+MqyZcukbt26tnKqUKGCaXMrWJBWw0BhkAHgZv78+XLjjTfayqlo0aIyYcIEKV68uH2CrHIPPMP71ZF61fjfFQD8qVCB3NKg+jnS9dLyck6RvJK864iZ/jYvcdepMJQkBw6fkPNKF5LCp/46ZI9OeM2VK5f8+uuv9skZ7O4JPE56ADeXXXaZ/Pbbb7Zy0iWkd9xxh62QVUk7D8uAkQmSvPOIxJYvLPG94yQmuoB9FwAQSLrnR0de694fl6uapQw9qH5eYfsEWdWgQQNZvHixrZw0EHlbiwHfIvQAqegCUl1E6sm1114rX3/9ta2QVWs2HZAhY1YQeAAgyCxds8fc+/ll0Zllp81qljDhp1ktlp1m1ZQpU7ye6OjaCx2cBP8j9ADWkiVLpH79+rZyKlCggJnWVrVqVfsEWaGBR094tLVNA4+2tGlrGwAgeOien5Rlp8ly7PhJ8+z8CkVM+GnXtLSpkTl33nmnvPvuu7ZyeuGFF+Thhx+2FfyF0ANYV155pfz000+2cnrzzTfl7rvvthWyYsnqPRI/JtEEnnqxxSW+TxyBBwCCmH6/1pMfHXqwddcR86xU8XzSqUVZufqiGL6HZ8KOHTskLi5Otm8/c4rmkjt3bklMTDSLTeE/hB7glBEjRsiAAQNs5aQjJ7///ntbIStSB542TUpLv85V+MMSAELI1Lm67DRZEjfsM3We3FGnJ75VLFPIPEPa3nvvPa/3grt27SpffPGFreAPhB5EPG1bq1Onjq2c8uTJIwkJCWazMrLm6xmbZdy0jSbwdGlZTnq2qUDgAYAQNTdxlzn5mbN8p30iZs9Pp4tizCk+0tahQweZPHmyrZw+/vhjr9NjkX2EHkQ8vVyolww9eeWVV+R///ufrZBZ7oFHT3gAAKFv1b+67DRZJs9Jsk9E6p4KPXry06rBufYJ3C1dulTq1atnK6eKFSua3T16jxi+x54eRLTXXntN3njjDVs5tW3b1ut7SJ8GnpET1snR4yelV9uKcluHSvYdAECoK1ksnzSvHS0dmsdI/ny55Z+kg7Jh6yH5fekO+XXRdjn5339S/bwikitXlP07oHR3T1RUlMfdPXv27JEDBw5Iu3bt7BP4Eic9iFh///23aWs7duyYfeKkm5S9tb0hbRp2NPRoG1vfzpWlbZMy9h0AQDg6efI/c/KjU9/WnwpASv8M6HgqFGnrW+kS+c0zpNDTHj318UR3BbZs2dJW8BVCDyLW1Vdf7XVAwYsvvuh1sAG80zY2DTzT5m0l8ABAhJqxdId8P3OLLF69xz4RadtUl53GSI0KReyTyKb3evR+jycXXXSRzJw501bwFUIPItLIkSO9jqC+/PLLvY6uhncaeIaPXy0zE3aYwDOgRzVpUaekfRcAEGmWrd1rRl7/vHCbfSLSJE6XncaY1rhIp5PcdKKbJ3z46nuEHkScdevWmba1gwdTjt/dLVq0yOuSUnhG4AEAeLNp+2Fz8qMB6MixlGWnet9Hw89VzSK3G0B39ujuHt3h406nx+pQA5ai+w6DDBBxbr/9dq99tEOHDpVu3brZChnhHniG96sj9aoxthQAkKJYoTzSOK6EXHNxOSl66vWm7YdkQ/Ihmb18p/zw51Y5cvSEVC5bWPLnzWX/jshQqFAhKVGihMdW+5MnT8qWLVv4mcSHOOlBRElrMdgll1wiM2bMsBUyImnnYbN0dM2mAxJbvrDE946TmGhGbQIA0qZ3P/XkZ8U/KctOdcqbnvzo4IPKMZG17DSt1Rmffvqp9OjRw1bIDkIPIsa///5r2tp0JKQnc+fOlSZNmtgK6dGgM2TMCkneeYTAAwDIkvkrd5uJb7MSziw7bVm3pHRqUVbqR0jXwOLFi6VBgwa2cqpcubIkJiZK/vxMv8su2tsQMe68805ZsGCBrZyefPJJtiBngnvg0Za26GL57LsAAGRMuVIFzDJTvQeqn8Ov+veA/JN8SKbP32qmv+XNk0uqlC1s/+rwFBMTY/5v11HV7nbv3m129+juQGQPJz2ICB9++KH07t3bVk7NmzeXWbNm2QrpWXLqDyFtadO7PPVii0t8nzhzlwcAgOzaue+YOfn5fmaS7DmQskev/KlgpCc/2v6W71QICld169Y1OwI90fZ7bcNH1hF6EPaSk5Oldu3aHqejKJ2FrzPxkb7UgadNk9LSr3MVAg8AwOf0p1MNP7rwdN2WA+ZZoQK5Ty87Dcd26kmTJknHjh1t5dSiRQv5448/bIWsoL0NYa9fv37y559/2srpsccek1tuucVWSMvXMzbLa1+tNYGnS8tycluHSgQeAIBfREWJ1KhY1AScquUKy74Dx2XD1kOyfP0++eb3LZK864iULJZfShUPn9bq888/39w/1tUZ7jZu3CjFihUz3SnIGk56ENY+/vhjufnmm23l1LhxY5k3b56tkBYNPOOmbTwdePSEBwCAQFq+TpedJsuPC7baJ6f+LK9xzqlgVFYuqhMey063bdsmNWrUkF27dtknZ+TNm9fs7qlShT+Ds4LQg7C1c+dO09aWlJRknzj9+uuvcumll9oK3mjgGTlhnXndq21F6dmmgnmNyKRtotOnTzf95WvXrjVTD93/cNYPFEqWLCmXX365aR29+OKL7TsAkH2bdxw+fe/HtexUh+po+OlwYegvO3377belb9++tnLq3r27jB8/3lbIDEIPwtatt94qH3zwga2cHn30UXn++edtBW807Gjo0Ta2vp0rS9smkbs5O9JpwBk+fLiMHDnSPsk4Xb43cOBAue2220wYAgBfOHTkhNn18/2sJNlyKggpnSTayd77KV4kr3kWitq1aydTp061lZOGHg0/yBxCD8LS559/7vUbQr169cxMfHinbWwaeHR5HIEHgwcPlqFDh9oq6zT8fPTRR9K+fXv7BAB848f5W034+csuO4069UsnvnVsXiYkR17rvZ6GDRvayknb27TNTdvdkHEMMkDY2bdvn1xzzTWyd+9e+8RJf+iqWrWqreDOPfAM6FHN7FBA5NFWti5dusiYMWPsE890f0S1atXML20rPXw45RNXd/r8k08+kWPHjskVV1xhnwJA9umwg6ualZHaVYrJoaMnzdCDlRv3myC0bstBKVYoj5QtGToT38qWLSsnT540rcTu2N2TNZz0IOzcdddd8s4779jK6aGHHpIRI0bYCu408Awfv1pmJuw4HXh0YRwiU48ePeSzzz6z1RmxsbHyzDPPSNOmTT1+gKBhSScmTpw40Ws73KhRo8zvVQDwh7WbD5jAo+1vLhqI9OTnykal7ZPgd8EFF0hCQoKtnHSEtY6yRsYQehBWvvnmG/PJtCe1atWS5cuX2wru3APP8H51zMVQRCZvF2kzG1b0LtDdd9/tsTf9999/Z8gBAL/avV+Xneq9ny2ya1/KstNyJQuYOz/a/pY/b3AvO9UPjzp16mQrJ11W6ukkCJ4RehA2tHVGp7XpD1meTJ48Wa666ipbIbWknYfN0tE1mw6YoBPfOy4sF78hY/Skpnr16mdNZctOSNHg437qw9h4AIE00Z78rNmcsuy0YH5ddlrGTH0L5ta3tAYzvfTSS/Lggw/aCmkh9CBs3HvvvfLmm2/ayum+++6T1157zVZITYPOkDErJHnnEQIPDE+nPMOGDZNHHnnEVlnTpEkTmT9/vq1SfPrpp6aNDgACZWbCTnPys2DlbvtETMtbpxYxUqtSUfskeCQnJ0tcXJy5y+Muf/78kpiYKJUrV7ZP4A2hB2EhreNf/cRa29qYcnI298CjLW3a2obI5j4qVaeurVq1KtvjppcsWSL169e3VQq9iDtlyhRbAUDg/LV+nzn5mT7/zLLThuefI1dfFCMtLgiu+6zaWtyvXz9bOekHR/oBEtJG6EHIO3HihGlr0/GNnkyYMEGuvvpqW8Flyeo9pqVN7/LUiy0u8X3iCDwwoqJ02OsZ+gftW2+9Zavs8TQcYc2aNUxUBJBjtMXb3PuZucVMflNVyxY2Jz8dm8eYOhjoh0TTpk2zlZOu6ujWrZut4Elw394CMmDAgAFeA4/+sEbgOVvqwNOmSWkCD07T0xh3utvKV3r16mVfnTF37lz7CgACT1u67+hYWb54sqn0vbqKlCtVQNZuOSCvfrlGro+fJ2Onbjg9BCEnPffcc/bV2XQB9PHjx20FTzjpQUjTFhxtxfFE+1u1ra1QoUL2CdTXMzbLuGkbTeDp0rKc9GxTgcCD03QEqk4ESs3XU9Z0n0+bNm2kZcuWXsdeA0BO+mnhNnPys3x9yrJT1fGilJOf2HI5N9n0sccek2effdZWTvoh8IsvvmgruCP0IKSlNb/+yy+/lOuuu85WUO6Bp1/nKvYdIEUgQg8AhIpFq/aYoQe/L91hn4i0qBNtJr41qnGOfRJY2tL/119/2cpp5syZctFFF9kKqdHehpClk6S8BZ7bb7+dwONGA8/ICetM4OnVtiKBBwCAdDSoXlyeuCVO3n24gRlwkCsqykx/G/jOcvnf60sdQxACJa02t//7v/+zr+COkx6EpJ9//lmuuOIKWzmVL1/etLUVL17cPoGe7mhPsrax9e1cWdo2KWPfAZw8nfQwVhoAUuw5cNyc/Ojgg517j5pnMdH5zcmPLjzV3T+B0KdPHxkzZoytnF5++WV54IEHbAUXQg9CUsOGDWXRokW2cuIHtDP0VEdPd6bN20rgQYboct/Y2FhbpRg0aJDXHnIAiFSTZuuy02RZvWm/qfPny5USfpqXkXKlCppn/pKUlGR29+zZs8c+OaNAgQJmwFPFihXtEyhCD0KO/gDm7Wj3lltu8frJR6RxDzwDelSTFnWCa+8AglN0dLTs2rXLVmJC0OrVq20FAEht9nJddpok8xLPfN+8ouG5JgDVruK/ZacjR46Uu+++21ZON9xwg3zyySe2gsodf4p9DQQ9vVB922232cqpdOnSZicP09pSAs/w8avl18XbCTzItH/++Ufmz59vKzEBqGzZstK4cWP7BADgUqF0Qbmi0bnSNK6EnDwpsmbzAVm35aBMmZtspr8VyJdbKpXx/c8mTZo0MYML9ITend55rlOnjtSqVcs+ASc9CCnNmjXzutNj7Nix0rNnT1tFLlfgmZmwwwSe+N5xUq8a95uQcZ7u9ZQoUUJ++eUXn+7sAYBwlLzryOl7PwcPnzDPKscUSml9axEjzvXP2aMfUGn48UTXAyQmJkru3IG5ZxTsOOlByBgyZIjXo9obb7xRnnzySVtFLt0qPei9v2TJmj0SW76wDO9XR6qVL2LfBTJG+8DnzJkja9assU9EDh8+LJ999pm0aNGCPnEASIN+4Njw/HPkupblpHjhvKf+bD4iG7YekrkrdpkgdOjICalYuqBPhh6UK1dOjh07Zjph3O3cuVMOHTokrVu3tk8iGyc9CAn6A1jz5s1t5aSfQOu0Nm2/iWRrNh2QIWNWSPKpb64aePSER7dMA1mxZMkSqV+/vq2c9F7dQw89JCVL0jIJABnxy6JtJvAsW7vXPhHpcGGMOfnxxbJTbWNbsWKFrZxmzZrl9WeoSELoQUjQxYjat+rJ6NGj5dZbb7VVZHIPPHrCo580Adkxfvx4cxnWm379+sldd91FyxsAZNDi1brsNElmLNlun4g0r63LTmOkSVwJ+yTz9E7zNddcYyunSy+9VH799VdbRS5CD4LeM888I48//ritnLp16yaff/65rSKTBp4BIxPMXZ56scUlvk8cgQc+k17wUTrgQBcCawtF1apV7dPAePvtt6Vv3762Etm+fTsnUACC3j/JB034mXjq14mTKT+Kx1Usak5+2jQuberM6t27t3z44Ye2cnr11Vfl/vvvt1VkIvQgqC1YsMDrxKgiRYqYtrZIvl+wZPUeiR+TaAJPmyalpV/nKgQe+Jy2ul133XWOOz7eBDoA6UXd1P9c7OkCEEr2HdRlp0mnfm2R7XtSlp2WKaHLTmPM4INCBTJ+72fLli1So0YN2bdvn31yRsGCBc3ungoVKtgnkYfQg6DWqlUrr0eyo0aNMq01kerrGZtl3LSNJvB0aVlOerapQOCBX73wwgvy/PPPO3b4pEUDUP/+/U0A8sfpS+p7R23btpWpU6ea/8558+aZZwAQSn74M1m+n7lFVm06YOp8eXKZk5+OzWPkvHMztuz0zTfflHvvvddWTjfddJN89NFHtgqMyZMnm+sJ+iG27ntz//BM98Dph1eNGjWSCy64wG9/XihCD4LWsGHDZODAgbZy0r7Vb775xlaRxz3w6AkPECja8jZixAjHLp+06LARPX0ZMGCAT09/dCmfLufToKPTGzt06GCe6x+qgW6zAwBfmfOXTnnbYqa9ubRqUMqc/FxQtZh94t2VV14pP/30k62cvvzyS3Ny70+6N2j48OHmz4qMfkiWWvfu3U1w0/vcvkToQVBaunSp18vR+fPnN21t+ulAJNLAM3LCOvO6V9uK5oQHyAn6B9v06dPlvffey3AA8tXktx07dkj16tXNH6iuU19Xq5v+dzz77LP2rwSA0LRy435z8jN13lb7RKR+9XOkU/My0rJeKfvkbHra3bRpU1s56fdNbXOLivLltqAU+n35pZdekqFDh9on2aPhR0+ufHXyQ+hBUGrTpo35YcqTN954Q+655x5bRRY93Rk7dYNpY+vbubK0bVLGvgPkrMwEIP3A4quvvsrW1LfUAxZcJzuDBw82f9jqyZLupwCAcLBtty471Xs/SabDQ1Uqo8tOU+795MplHjnohz/PPfecrZweeeQR003jSxm5+6ltyOryyy83X3/++WfzVVuTvfHlYmxCD4KOfkqg9wA80faViRMn2ipy6Dc5Pd2ZNm8rgQdBzxWAXnzxRa9/AGb3D7J27dqddYcn9R2fSZMmSfv27c1rAAgHx0+clO9mJsnE2Umycesh86xY4bzSsXkZE35KFc9nnrnUrFlTEhMTbeWk+w+bNWtmq+zR7716B9tTK1tGVxvof4ZO4/TUEuer4EPoQVDRxVq1a9cWT/9a5sqVy7S1xcXF2SeRwT3wDOhRTVrUYSQvQsMff/whDz74oMfTH/2DTJ9n9v6NhipXe6v7tLYmTZqY/0xti9A/PAEgHP26eLu597N0zZllp1c1Swk/1c9LWXb67bffyrXXXmteu7vssstMkMgub4FHvwfryXtmv79ri5x283z22Wf2SQpfBB9CD4KKnuTopA9PXn75ZXnggQdsFRk08Awfv1pmJuwg8CCk6eS3Rx991FZnaLvDlClTbJUxrjY25b6XJ/XeHnb2AAh3urpCT340BLlcWKuECT9Na5aQXr16ybhx4+w7Tq+99prcd999tsq81HcrU/PFdN3ULcwu2Z3OSehB0Hj99de9Ls7SOz5p9XyGI/fAE987TupVK27fBUKPpz/E1O+//56pKT2ugQXaNvHWW2/ZpylSnwJF+lh7AJFD29305Efv/Rw/kfKjfY0KReTiWgXkjusay/79+82z1AoXLmza38477zz7JHNcbcap+XJXmqcPy7LzfZ3Qg6Cgs9u1re3o0ZTFXO50mpvOb48UGngGjEyQNZsOSGz5wibwxEQXsO8CoSv1KY1LZlrR9CTYNZra270d/QNXWyM0/Oj3FgCIFLrsVE9+NPzoAARVMM9RWfbrB/Lvkm/k+BFn+Ln55pu9ngSlxdOHWP6YnOlqWXbRNrdVq1Zl6RSf0IOg0LlzZ/nuu+9s5aRJ/+GHH7ZV+NOgM2TMCkneeYTAg7DjrR0io38UZSTQpP7DePHixT6Z+gMAoWbK3GT54uf1smFbysS3kyeOnQo+38qmpd/IgZ0bzDP19ddfe737443rxN3FX4uh9V7oJZdcYquUlmg94c/KLjZCD3KcHlVqm4onejnONdIwErgHnuH96pjWNiCceDrtyUiLmwamUqVSdlPouFUdu+pNdHS0CVaeWuAAIBzt3btX5s6dK3/++efpX1u3bpVSVZrLefWulVJVL7J/pcjm5ZPlr6kp34fPP/98s7snozyd8mS2TTkz9MMu/Z6e3QXXhB7kqPXr10udOnXkwIED9onTggULpGHDhrYKbxp4tKVNW9vqxRaX+D5xBB6EJfdP7lRG+sBTDylw7ebx5u6775aRI0eaVgh29gAIRwkJCY6Qo5PU0lKsTA0pfyr8lK/TUTYs+Ez+/u11+47IwIEDve71cefecpaVgTQ5gdCDHNW1a1ezpNAT7QvV/tBIoNNX4sckmsDTpklp6de5CoEHYSv1sAGX9E5ulOsP2oz8AZt6Z48vL9YCQE7Qk24NNqlDjnubcEblL3KuHNm/zVZn6H9m06ZNbeWZp+/fofI91sMOVyAwRo8e7TXw6BFppASeqfOSTweeLi3LEXgQ9rLSnqAhxvXJYu/evc3XtOg9HtcfzGPGjDFfASBULFq0yLT/9+nTxwx60tZeHeLy5JNPmg99shp4lKfAox8qjR071lbe6eLp1PQ0PVQ+VOKkBzli06ZNpq1t9+7d9omTLzcFB7OvZ2yWcdM2OgIPEAmioqLsqxTpnfSkblfL6OSezLTDAUBOSUpKOn16o7/0NMfTiGlf0RHVeqKjP2e5fhUokLGBSRpwUi8ODaV7k4Qe5Ai9AOdtRG18fLwMGTLEVuFLA8/ICevM615tK0rPNhXMayCnaNuC/mG7bNkyc59O+aNPOyvtba7BBFmVkfY5AAgE92ED/hytnzt3bhNqUoecKlWy/gGr+/fiUGofJvQg4PT49JZbbrGVk/5m1FOecKenO2OnbjBtbH07V5a2TcrYd4Cc4zpNSW379u1Z2oeQFk+DDNKa/ONpUlBmpTXiGgD8ZcOGDWeFHG87CX1BA40r3LiCjgYfX/D0gVUorQUg9CCgdHSitrVt23Z2P6nSH4ZatGhhq/CjbWx6ujNt3lYCD4KOp3Dhj0/xPG3ZTqv9zLX1W1vbvO3z8uaHH344PR7bnyNVAeDYsWMm1KQOOf/884991/e0Jc0VcFwhR1vX/MXTB1ahFCMIPQioXr16ed38q7s7nnnmGVuFH/fAM6BHNWlRx7efoAPZkXoPjos/RpG6jztN6xQm9SeLWdn2nfr/Jnb2APAl/bDGPeT488dq3aeTOuToQtBAcv/Ayl8LSf2F0IOA0U+Mb7zxRls56S4e1x2CcKSBZ/j41TIzYQeBB0HN/ZKqmjRpkrRv395W2ePpk8K0wkzqP2Sz2kaR+v8mf7TrAQh/Bw8ePB1sXCFn8+bN9l3fK1as2FnDBkqXLm3fzRnuoSdU9vO4EHoQEHrpTdvavH2D+OWXX+Syyy6zVXhxDzzxveOkXrXi9l0guHgKJZmZmJYWPXXRP7j109HU0mptq1atmnk/O58oTp482Yx6VezsAZARiYmJp0OO/lq4cKF9xz/0Z6TUIScY78kQeoAMuO222+T999+3lZNOVNLJSuFIA8+AkQmyZtMBiS1f2ASemOiMjYUEcoqn0x4NHfqHW1aDjwYevZuTuq1NpdVyljqs6L6Ku+66y7zOCtfEoVBrxwDgf7o+w33YgJ4K+4t+H9Vgkzrk6IdLwc51v9Il1KZiEnrgd19++aV069bNVk5169Y1SwfDkQadIWNWSPLOIwQehBS9R6PhwH1EtN6t0UWfmR0GoKdHulDU/YQnvROk1NPkstuWpncGXQMN0jpZAhD+li5d6gg5Oqbfnxo0aHA63GjQqVWrln0ntBB6gDToci3dJKwjGz2ZNm2atG7d2lbhwz3wDO9Xx7S2AaFCP4yoX7++rZw0EN1+++1y4YUXem3BcO380ZCU+g9JFw082tbq7e9PPYCge/fuXvd6ZVTq/3uyMhABQGjSabEabFKHnD179th3fS8mJuZ0wHGFnCJFith3QxuhB0iDbkPXreiePPjgg/LSSy/ZKnxo4NGWNm1tqxdbXOL7xBF4EJI0KLRq1SrdpaAaglynMBpW3FvY3KUXeJR+39DvH8pXgxRcU+P0v3/nzp32KYBwokORUoccvZvjT+7DBvQeYrgi9ABefPvtt3LttdfayqlmzZqSkJAguXLlsk/Cw5LVeyR+TKIJPG2alJZ+nasQeBDS9MRG28w8ndZkhV581Ts86bWX+SOg+CNIAcg5OhzJdXrjCjk6Zc1fKlaseFbIyZcvn303/Lnf9wy1U3NCD/ziyJEjpq3NvYffJRx/4Jg6L1lGTVhvAk+XluWkZ5sKBB6EDb2Xo3u0shp+tEXt3nvvZTkogCzRH1ddAcf1Sz+U8Ze8efOaUJM65FSqVMm+G5mY3gZ4cN9998kbb7xhKyf9wef111+3VXj4esZmGTdt4+nAoyc8QDhy3dXRi7/aRqJLRd0/3NCBB9ri0ahRI7ngggvMDw0MDgCQGevXr3fcw9Ffx48ft+/6nn7fcg85UVFR9l0oQg/gRk9xOnbsaCsn/UFI29ry589vn4Q+DTwjJ6wzr3u1rWhOeAAAQMZod4iGmtQhZ+PGjfZd3ytUqNDpYOMKOuXKlbPvwhsdKHPDDTfYKuV+ZijdjyT0wKdOnjxp2tq8XRzUez6dO3e2VejT052xU1Mm0w3oUU3aNiljXgMAAM90VH3qkKNf/SkuLs4Rcho2bGjfQWZ4Wl4dSjGC0AOfeuihh+Tll1+2lZMuFtQFg+FA29j0dGfavK3m3k7fzpUJPAAAuNHVFa7TG1fISUpKsu/63jnnnHPWsAHX+HtkT+pVAi6///57yNzVJPTAZ3TnjvZ3eqKX/7StLRxm1bsHHj3haVEn60sTAQAIF3/99Zcj5CxatMi+4x+65Dx1yNF7hPAfvaaQ+h6nfpitH2qHAkIPfEa/8XjbavzFF19I165dbRW6NPAMH79aZibsIPAAACKa7vByBRzXL3/e8Tj33HNNsEkdcooXL27fRSDoCoORI0fayjfLowOF0AOf0GkeOtXDk1tvvVVGjx5tq9DlHnjie8dJvWp8swUARIbFixc7hg0sX77cvuMfOgEydcjRuznIWe7DDNT27dtPL6gOZoQeZJtuVr/88stt5aTTUPSbovbYhjINPANGJsiaTQekTHR+Gd6vjsREF7DvAgAQXpKTk02wSR1y9u3bZ9/1Pf15wXV64wo6OmUNwcXTvZ5PP/3ULC4NdoQeZJt+ErNw4UJbOX3yySdnfSIQajToDBmzQpJ3HpHY8oXNCQ+BBwAQTubNm+cIOX///bd9x/dy5cp11rABdnmFDg04n332ma1SdhzpzjZ/0dMlnf6b3QXXhB5ky2OPPSbPPvusrZx69eolH374oa1Ck3vg0RMebW0DACBU/fvvv6dPb1wh5/Dhw/Zd36tcufJZISdPHv4sDVWTJ0+WDh062CqFP097Ug9P0IFZw4YNk3r16pk6Mwg9yDJP89pd9LKhtrXp11ClgUdb2rS1rV5scYnvE0fgAQCElBMnTpwOOK6Qs27dOvuu7+nycQ01qUNOhQos7Q437lPc9LRH//3y9d0eT3eI9L83KyeDhB5k2YUXXmj+BfdET3j0pCdULVm9R+LHJJrA06ZJaenXuQqBBwAQ9DTQpA45+ksXh/tL9erVHSFHvyL8efrgu1+/fvLWW2/ZKvv0/pD++6VTAl2y899B6EGWPPnkkxIfH28rJ03kepcnVE2dlyyjJqw3gadLy3LSs00FAg8AIOgcOnTIhJrUwwY2bdpk3/U93bXnOr1xhZyYmBj7LiKN+90e5au9PRp42rVrJ/Pnz7dPREqUKGHqrN7/IvQg0/Sbqp7yeKJT2rStTaewhKKvZ2yWcdM2ng48esIDAEAwWLlypSPkpP6B0B9q1ap1OuTor/r169t3AM8nMUrv3DzyyCO2yjxPgUdl994QoQeZpseZeqzpyXvvvSe33XabrUKLBp6RE1L6nHu1rWhOeAAAyAl79+49fXrjCjlbt2617/pedHT0WcMG9BmQliVLlkirVq3OCj66tHTo0KGZPpXRny979+7tuC+kfNE6R+hBpuikNp3Y5knXrl3liy++sFVo0dOdsVM3mNd6uqOnPAAABEpCQoIj5OgPk/6kpzapQ07t2rXtO0DmeAs+SsOKtrulNW1NT3amT58uY8aMkalTp9qnZ/jqrhChBxmmu3h0J48nhQsXNm1tlSpVsk9Cg7ax6enOtHlbzb2dvp0rS9smZey7AAD4nv6Q5wo4rpDj6QdGXylTpowJNqlDTtGiRe27QPalFXyU3sfRf//0GkTDhg1lz549smDBAvN7Ia02zUGDBnldjZJZhB5k2OWXXy6//PKLrZxGjhwpffv2tVVocA88A3pUkxZ1fDtqEQCARYsWOULOihUr7Dv+0aRJE0fIOf/88+07gP9ogLnnnnvOGm6QFToC+7XXXpP27dvbJ9lH6EGGvPDCC/Loo4/ayqlz585mU24o0cAzfPxqmZmwg8ADAPCZLVu2nD69cYWcAwcO2Hd977zzzjt9euMKOQUKFLDvAoGn93LeeOONLIUfDTvPPPOMXxadEnqQrmXLlkndunVt5ZQvXz7T1qZLqkKFe+CJ7x0n9aoVt+8CAJBxrmDjCjmrV6+27/henjx5HC1q+qty5cr2XSC4uO7qzJgxQ9auXeuxjbNt27am5U1b43QycFp3f7KL0IN06b+Q06ZNs5WTHj3ed999tgp+GnjiP0iUJWv2SJno/DK8Xx2JieYTMQBA+jZs2HBWyDl69Kh91/d08pV7yMmVK5d9F0BmEHqQppdfflkeeughWzlpn+WkSZNsFfzWbDogQ8askOSdRyS2fGFzwkPgAQB4cuzYsdMBxxVy/vnnH/uu7xUsWNCEmtQhp3z58vZdANlF6IFXiYmJZoTlyZMn7ZMzoqKiTFtbzZo17ZPg5h549IRHW9sAAFC6F8Q95PjzR6QaNWo4Qk7jxo3tOwD8gdADrzp27Oj1JGfEiBFeT4CCjQaeASMTTGtbvdjiEt8njsADABFMBwu42tNcv3QAgb8UK1bs9OmNK+SULl3avgsgEAg98Einbni7q9O6dWuvd3yCzZLVeyR+TKIJPG2alDaLRwk8ABBZdES06/RGv+reOX+qU6eOI+T483I2gIwh9OAsesSvbW1HjhyxT5x0AZW3aW7BZOq8ZBk1Yb0JPF1alpOebSoQeAAgzO3evfv06Y0r5Gzfvt2+63ulSpU6a9iATqMCEFwIPTjLtdde63XvzrBhw+SRRx6xVfD6esZmGTdt4+nAoyc8AIDws3TpUkfI0TUL/qTb5FOHnFC52wpEOkIPHN5++23p27evrZwuu+wy+eWXX2wVvDTwjJywzrzu1baiOeEBAIS+bdu2nQ44rpCzZ88e+67vlS1b1gSb1CGncOHC9l0AoYTQg9N0/4C2te3fv98+cZo/f740atTIVsFJT3fGTt1gXuvpjp7yAABC04IFCxwhZ+XKlfYd/3AFG1fICaXF2wDSRujBaddff7188cUXtnJ65plnZPDgwbYKPtrGpqc70+ZtNfd2+nauLG2blLHvAgCC3aZNm86aqHbo0CH7ru9VrFjxrJCTL18++y6AcEPogfH+++/LbbfdZiunFi1ayB9//GGr4OMeeAb0qCYt6pS07wIAgo3uf3MFG1fQWbt2rX3X9/LmzXs64LhCTqVKley7ACIBoQdmN4G2te3atcs+cZo9e7ZceOGFtgouGniGj18tMxN2EHgAIEitX7/+rJBz/Phx+67vaVta6ns4+gtAZCP0QG688Ub59NNPbeU0ZMgQiY+Pt1VwcQ888b3jpF614vZdAEBO0HUHroDjCjkbN2607/qeDhZwnd64Ao4OIACA1Ag9EW7cuHHSq1cvWznpHyD6B1Yw0sAT/0GiLFmzR8pE55fh/epITHQB+y4AIFBWrVrlCDnz5s2z7/iHjohOHXJ0hDQApIfQE8F0WZu2tW3dutU+cZoxY4ZccskltgoeazYdkCFjVkjyziMSW76wOeEh8ACA/+3bt++sYQPJycn2Xd/TJZ+u0xtXyNFloACQWYSeCHbLLbfI2LFjbeU0aNAgefbZZ20VPNwDj57waGsbAMD3li9f7gg5ixcvtu/4R926dR0h54ILLrDvAED2EHoi1Pjx4+WGG26wlVODBg1k4cKFtgoeGngGjEwwrW31YotLfJ84Ag8A+MjOnTtNsEkdcvSZv5x77rmnA44r5BQvzr1MAP5B6IlAu3fvljp16pidCJ789NNPcvnll9sqOCxZvUfixySawNOmSWmzeJTAAwBZp6c2rnCjQUdPdfxJl1unDjk1atSw7wCA/xF6ItDtt98uo0ePtpXTww8/LC+88IKtgsPUeckyasJ6E3i6tCwnPdtUIPAAQCbovRtXwHGFHL2f4y/ly5c/fXrjCjkFCxa07wJA4BF6IsxXX30lXbt2tZWTnv4sW7bMVsHh6xmbZdy0jacDj57wAADSphPUUoccnbDmL7ly5TodbFwhp2rVqvZdAAgOhJ4IcuDAARNsdEmcJ1OnTpU2bdrYKudp4Bk5YZ153attRXPCAwBw0h047hPVdFeOv1SuXPmskJMnD6fvAIIboSeC9OvXT0aNGmUrpwceeEBefvllW+U8Pd0ZO3WDea2nO3rKAwCR7vjx4ybUpA453j7I8oX8+fOfDjiukFOhAh9AAQg9hJ4I8d1330nnzp1t5aSXSfUCa+7cue2TnKNtbHq6M23eVnNvp2/nytK2SRn7LgBElrVr154Vck6ePGnf9b3q1as7Qk6TJk3sOwAQ2gg9EeDo0aOmrc1bT/fEiROlQ4cOtso57oFnQI9q0qJOSfsuAIS3Q4cOnQ42rqDjbcqmLxQtWtQxaEB/lSnDh0wAwhOhJwLcf//98vrrr9vK6Z577pE33njDVjlHA8/w8atlZsIOAg+AiLBy5UpHyFmwYIF9xz9q165tgo0r6NSvX9++AwDhj9AT5n744Qdp3769rZx0uo62tRUoUMA+yRkEHgDhbs+ePWcNG9i2bZt91/eio6NPn964Qo4+A4BIRegJY/r/Wv1kb8WKFfaJ0zfffCPXXHONrXKGBp74DxJlyZo9UiY6vwzvV0dionM2hAFAdun4/9QhZ+nSpfYd/9BTm9QhR7/3AwDOIPSEsf79+8tLL71kK6c777xT3n77bVvljKSdh2XAyARJ3nlEYssXlvjecQQeACFn+/btJtikDjm7d++27/qe3rtxBRxXyNH7OQAA7wg9YerHH3+U1q1b28qpYsWKkpCQkKN/SK7ZdECGjFlxOvDoCY+2tgFAsFu4cKEj5Hg7TfcVnaCWOuTohDUAQOYQesJUvXr1vLZTfP7559KtWzdbBZ4GHj3h0da2erHFJb5PHIEHQFDasmXL6dMbV9DRRc/+ojtw3Ceq6a4cAED2EHrC0MCBA2XYsGG2curTp4+8//77tgq8Jav3SPyYRBN4dFiBDi0g8AAIBvrHofuwgTVr1th3fS9Pnjyng40r6FSuXNm+CwDwJUJPmPn111+lVatWtnIqW7asaWvLqQk+U+cly6gJ603g6dKynPRsU4HAAyDH/PPPP2eFnGPHjtl3fU8nZrqHnFy5ctl3AQD+ROgJM40bN/a66+Hjjz+WG2+80VaB9fWMzTJu2sbTgadf5yr2HQDwP13SrKEmdcjZsGGDfdf3ChYseDrguEJO+fLl7bsAgEAj9ISRxx9/XJ555hlbOd18880ybtw4WwWWBp6RE9aZ173aVjQnPADgT6tXrz4r5PhTjRo1HCGnUaNG9h0AQDAg9ISJmTNnysUXX2wrp1KlSpm2Nh1zGmh6ujN2asqnqXq6o6c8AOBLOljAFWxcIUcHEPhL8eLFzxo2cO6559p3AQDBiNATJpo3by5z5syxldOYMWPklltusVXgvDh+lUybt9Xc2+nbubK0bRL40AUg/OiIaFfI0V+LFi2y7/jHBRdc4Ag5devWte8AAEIFoScMPPXUUzJkyBBbOXXv3l3Gjx9vq8DQezvazuYKPDqhTSe1AUBm7dq166xhAzt27LDv+p6ejLvCjSvonHPOOfZdAECoIvSEOP1hQP9Q9kRbMJYvXx7Qy7MaeIaPXy0zE3YQeABk2pIlSxwhR1tz/alhw4aOkFOzZk37DgAgnBB6QlzLli3l999/t5XTu+++K7fffrut/I/AAyAztm7daoJN6pCzd+9e+67v6dh+V8BxhZzChQvbdwEA4YzQE8Kee+45GTRokK2cunTpIl999ZWt/E8DT/wHibJkzR4pE51fhverIzHRBey7ACAyf/58R8hZuXKlfcf3oqKizho2EBsba98FAEQaQk+I0ou72pbhSaFChUxbW6A2eyftPCwDRiZI8s4jElu+sMT3jiPwABFu06ZNp09vXCHn0KFD9l3fq1Sp0lkhJ2/evPZdAECkI/SEqCuuuEJ+/vlnWzm99dZb0q9fP1v515pNB2TImBWnA4+e8GhrG4DIcfLkydMBx/Vr3bp19l3fy5cvnwk1qUNOxYoV7bsAAJyN0BOChg8fLg8//LCtnK6++mqZMGGCrfxLA4+e8GhrW73Y4hLfJ47AA0QADTSp7+HorxMnTth3fa9atWqnw40r6AAAkBmEnhCjk4x0Z4Qn2sqhbW3Vq1e3T/xnyeo9Ej8m0QQeHVagQwsIPED4OXz4sAk1qUPOv//+a9/1PR0s4Ao4rpCjAwgAAMgOQk+IadeunUydOtVWTq+++qrcf//9tvKfqfOSZdSE9SbwdGlZTnq2qUDgAcLE33//7Qg58+bNs+/4h46ITh1yGjRoYN8BAMB3CD0h5JVXXpEHH3zQVk5XXXWVTJ482Vb+8/WMzTJu2sbTgadf5yr2HQChZt++fadPb1whJzk52b7reyVKlDhr2EDJkoy1BwD4H6EnROho19q1a3vtm9e2tlq1atnKPzTwjJywzrzu1baiOeEBEDr0+0TqkLN48WL7jn/Uq1fPEXLq1Klj3wEAILAIPSGiU6dOMnHiRFs56WCD/v3728o/9HRn7NQN5rWe7ugpD4DgtXPnztMBx/Vr165d9l3fK126tAk2qUNOsWLF7LsAAOQsQk8IePPNN+Xee++1ldOVV14p06dPt5V/6OmOnvLovZ2+nStL2yZl7DsAgoXu7ko9bOCvv/6y7/hH48aNT4cbDTo1atSw7wAAEHwIPUFu7dq1pq1NJyh5ou0p2kLiD3pvRwPPtHlbTeDRCW06qQ1AzkpKSjLBJnXI2b9/v33X98qXL3864LhCTsGCBe27AAAEP0JPkOvSpYt88803tnJ67rnnZODAgbbyLQ08w8evlpkJOwg8QA5zhRvX11WrVtl3fC937txnDRuoUoWBJQCA0EboCWLvvPOO3HXXXbZyuvTSS+XXX3+1lW8ReICcs3HjxtOnN66Qc+TIEfuu72mgcQ85GnwAAAgnhJ4g9f/t3WtsFeeZwPHXlDvmYjsEBzAYG1wDJgZs7wrDupWgMaACDWmDuw0SoKBgVG02qZsUloIhu2mlEBWxok4RFVYDShytHJFELaYENVySKhDAhFuJbcw15mLAhPutm2fOM8dnOMdgmzm2zzn/n2Qx7zzOh3xoxL/vzDvyFx95rE2OlA1Evp0hz9S7TYKncO1hU15ZZ/rEdjLL89NMfGxnnQJw0507d7yBY0dOdXW1Tt3XuXNnK2p8I6d///46BQAgfBE9bdSMGTPMe++9pyunZcuWmV//+te6ck/NhRumoGi/OXPhpknu180UzkoleAAXyTt6vpEjP8H8T3BKSoojcrKysnQCAEBkIXraoLVr15o5c+boyik7O9vs2LFDV+6pPHXVLCk+5A0e2eGRR9sANM+1a9e8uzd24Jw+fVqn7uvevbt398YOnT59OGkRAABB9LQxciqTPNYm39gI5NNPPzVjxozRlTskeGSHRx5tS0/uaQpnpxI8QBMdPnzYETlffPGFToJD/jvhGznBOsURAIBwQPS0Mc8995xZv369rpwWL15sli5dqit3lFfUmcLiw1bwyGEFcmgBwQM8WF1dnXf3xo6cc+fO6dR9cXFxfocNxMTE6BQAADwM0dOGrFu3zsycOVNXTvIsvvzlyk1lO8+YtzZUW8EzPaevmflUAsEDBPDll186Imffvn06CY5Ro0Y5ImfYsGE6AQAAzUH0tBG1tbXW4ypnzpzRO06ffPKJycnJ0dWjK9162ry96QTBA9zn/Pnz3sCxI+fSpUs6dV98fLwVNr6REx0drVMAAOAGoqeNmD17tikuLtaV04IFC8zrr7+uq0cnwVO04ah1LcGTP40PDyJy7d692xE58m5OMNlxY/85ZMgQnQAAgGAhetqAkpISk5eXpyunkSNHmj179ujq0cnuzp/KjlvXEjsSPUCkkNPT7N0bO3LklLVgSUhI8O7e2KHTqVMnnQIAgJZC9LSyy5cvW4+1nTx5Uu84bd682YwfP15Xj0Z2d2SXRx5jmzct0eRmcZwtwpf8p80OGztyKisrdeq+Dh06OB5Rk5+BAwfqFAAAtCaip5XNnTvXrFmzRldOBQUF5o033tBV88l7OxI8m3aetYJHTmiTk9qAcHLs2DG/yLl9+7ZO3ZecnOwXOVFRUToFAABtCdHTikpLS80zzzyjKyfZ/dm/f7+umk+CZ/m7FWbH/lqCB2Hj1q1b3sCxI+f4cc9jm8HQtWtXK2p8I6dvXx4NBQAgVBA9reT69etW2Bw9elTvOP3lL38xEydO1FXzEDwIFxUVFX6RE0ypqamOyMnIyNAJAAAIRURPK5k/f74pKirSldOLL75oVqxYoavmkeApXHvYlFfWmT6xnczy/DQTH9tZp0DbdeXKFcdBA/JTU1OjU/f17NnTu3tjR07v3r11CgAAwgHR0wo+/PBDM3XqVF05paSkmAMHDpj27Zv/zZyaCzdMQdF+c+bCTZPcr5spnJVK8KDNOnjwoHf3Rv5087TCQEaMGOGNHPmRNQAACG9ETwuTF6vT0tLMkSNH9I7TBx98YKZMmaKrpqs8ddUsKT7kDR7Z4eGjo2grLl686N29sSNHPswbLLJjc/9hA7KzAwAAIgvR08Lk0bWVK1fqykkeeVu1apWumk6CR3Z45NG29OSepnB2KsGDVlVeXu6IHDcO53gQeffGN3Lk3RwAAACipwVt3LjRTJo0SVdOgwYNsh5r69Kli95pmvKKOlNYfJjgQas5e/asN3DsyJHvUAWLnJ4mYeMbOXLKGgAAwP2InhYkj7VJ2AQix1c//fTTumoaOZ1NTmmT4Jme09fMfCqB4EHQ7dq1yxE5DT2y6Qb5/o0dNnbkyHdyAAAAGoPoaSHyodE333xTV07ygdLVq1frqmlKt542b286QfAgqE6ePOl3otqNGzd06r6BAwf6RU6HDh10CgAA0DRETwv4+OOPzYQJE3Tl1L9/f2v3p0ePHnqn8SR4ijYcta4lePKnDbKugUdx9+5db9jYodPQ96Tc0LFjR2/g2D8JCQk6BQAAeHRETwsYNWqU2bt3r66cSkpKzLPPPqurxpPdnT+Veb5AL7Ej0QM0hwTN/ZEj4RMsQ4YMcbyHI9cAAADBRPQE2YIFC8xvf/tbXTnNmjXLrF27VleNJ7s7sssjj7HNm5ZocrP66AR4MHkkzQ4cO3Lk0bVgiY6O9oaNHTnx8fE6BQAAaBlETxBt3brVfO9739OVk/zFT47vjYuL0zsPJ+/tSPBs2nnWCp6CvMFmbFrj/3lEHjlcwDdy5PCBYBo2bJgjcmSXEwAAoLURPUGUlZXV4F8y161bZ372s5/p6uEkeOSENjmpjeBBIHI89P2HDcgx0sESExPj3b2xI6cpEQ8AANBSiJ4gWbx4sXnttdd05SSxI9HTWAQPApGdQt/IkQ+BBlN6erojcuQIdgAAgFBA9ATBZ599ZrKzs3XlJP9PuPxltbHvNfgGT5/YTmZ5fpqJj+2sU0SK2tpab9zYoXPx4kWduu/xxx/3Bo790717d50CAACEFqInCCR4JHwCkYML5ACDxqi5cMMUFO03Zy7cNMn9upnCWakET4TYs2ePI3IOHjyok+CQRzF9DxtISUnRCQAAQOgjelwmj7TJo22ByNHUckR1Y1SeumqWFB/yBo/s8PDR0fBUU1PjDRw7cq5cuaJT98m3oSRsfCOnc2diGgAAhC+ix0U7d+60/iIZiHx8VB5ra8xHFyV4ZIdHHm1LT+5pCmenEjxh5P7DBioqKnTivu985zvesLEjZ9AgPmILAAAiC9HjIjmeWo6pDmT16tVm7ty5umpYeUWdKSw+TPCEiePHj/tFzq1bt3TqPgma+yNHwgcAACCSET0ukQ+QyodIA3n66adNaWmprhomhxXIoQUSPNNz+pqZTyUQPCHk9u3bVtT4Rs6xY8d06j55JM0OHDty5NE1AAAAOBE9Lti7d2+DH2Hs0qWL9VhbUlKS3gmsdOtp8/amEwRPCKmsrPTGjR06wfyfkxwu4Bs5mZmZOgEAAMCDED0umDBhgvn444915bRq1Sozf/58XQUmwVO04ah1LcGTP413Ltqaa9eueQPHjpzTp0/r1H3yDpi9e2NHjhwjDQAAgKYjeh7Rm2++aQoKCnTl9MMf/tB8+OGHugpMdnf+VHbcupbYkehB6zt8+LAjcnbv3q2T4JAPffpGjnwIFAAAAO4geh7BgQMHGvwqffv27a35g753Irs7sssjj7HNm5ZocrP66AQt6dKlS36HDZw/f16n7pMP1Nq7N3bkxMTE6BQAAABuI3oewaRJk8zGjRt15bRixQrz4osv6spJ3tuR4Nm086wVPAV5g83YtDidItj27dvniJwvv/xSJ8Eh73v5Rs6wYcN0AgAAgJZA9DTTypUrG4ya3NzcBmNIgkdOaJOT2gie4Dt37pwVNr6RU1dXp1P3xcfHewPHjpzo6GidAgAAoDUQPc1w5MgR67E2OaI4EDmtbfjw4bqqR/AE3xdffOGNGwkdeTcnmHwPGpCfwYMH6wQAAABtBdHTDFOnTm3wgII33ngj4MEGvsHTJ7aTWZ6fZuJjO+sUzSGnp9mBY0eOnLIWLAMGDPDu3tiR07FjR50CAACgrSJ6mqioqKjBI6jHjx9vNm/erKt6NRdumIKi/ebMhZsmuV83UzgrleBponv37vkdNlBVVaVT93Xo0MEbNnbkDBw4UKcAAAAIJURPExw9etR6bO369et6x2nPnj1m5MiRuvKoPHXVLCk+5A0e2eHho6MPV11d7Rc5d+7c0an7kpOT/SInKipKpwAAAAhlRE8TPPPMM6a0tFRXTq+//rpZsGCBrjwkeGSHRx5tS0/uaQpnpxI8Ady8edOKGt/IOXHihE7d17VrV2/g2JHTty/fRwIAAAhXRE8jrVmzxsydO1dXTjk5OeaTTz7RlUd5RZ0pLD5M8ATw1VdfOSJH/gym1NRUR+SMHj1aJwAAAIgERE8jnDx50nqs7fLly3rHSf7SnpWVpStjHVYghxZI8EzP6WtmPpUQscFz5coV7+6NHTg1NTU6dV+vXr38TlR77LHHdAoAAIBIRPQ0Ql5enikpKdGV09KlS83ixYt1ZUzp1tPm7U0nIjZ4Dh486IicvXv36iQ4nnzySSts7NAZMWKETgAAAAAPouchiouLzezZs3XlNGbMGPPpp5/qyj948qcN0kl4unDhguM9HPmRe8HSu3dv7+6NHTk9e/bUKQAAABAY0fMAZ86csR5rq62t1TtOO3bsMNnZ2da1BE/RhqPWtcSORE+4kV0b38g5cOCAToIjIyPDETnybg4AAADQVETPA8ycOdOsW7dOV06LFi0yr732mnUtsSPRI4+xzZuWaHKz+lj3Q5kEn4SNb+R88803OnWfnJ5mB44dOXLKGgAAAPCoiJ4GrF+/3jz33HO6csrMzDQ7d+60HmOT4Nm086wVPAV5g83YtDj9rdAi/z6+kXPkyBGduK9du3Z+hw0kJSXpFAAAAHAX0ROAvJcij7U1dMrY3/72N5PxL2OtE9rkpLZQCx45jc7evbEj58aNGzp1X2Jiol/ktG/P8d0AAABoGURPAHPmzDFr167VldOrr75qFi3575AJnjt37vgdNlBdXa1T93Xq1MkbNnboJCQk6BQAAABoeUTPfd577z0zY8YMXTmlp6eb7Z/t8gZPn9hOZumsoSa5Xzf9jdZXVVXlFzn37t3TqfuGDBniiBz5AQAAANoSoseHvKgvj7WdOHFC7zj93webzfv7epozF25aoVM4K9XEx3bWacu7fv26FTW+kXPq1Cmdui86OtobOHbkxMfH6xQAAABom4geHy+88IJZvXq1rpzmv7zM1MVOatXg+cc//uGInF27dukkOIYNG+aInJEjR+oEAAAACB1Ej3r//ffN9OnTdeWU/q+5ZtCEpdZpbenJPU3h7FTrXZ5gunz5snf3xo6cs2fP6tR9sbGxfocNyD0AAAAg1BE935KTy+SxNnkf5n4x/UeZ7H9faW7eiQpq8Ozfv98ROeXl5ToJDtm18Y0c+fcHAAAAwhHR862f//znZtWqVbqq13vwv5nRU5eZu6aDmZ7T18x8KsGV4Dl//rzfYQOXLl3Sqfv69OnjjRs7dLp3765TAAAAILxFfPR89NFHZsqUKbqqN2D0s2bw2OdNuw5dHzl4du/e7YicQ4cO6SQ4srKyHJGTkpKiEwAAACDyRHT03L1713qsSw4I8CXBkzRmjmnfKdoKnvxpg3TycF9//bUVNr6Rc/XqVZ26r3///t7AsSOnc+fWO1EOAAAAaGsiOnpeeukls2LFCl15SPCkfP8/rGuJHYmeB7HDxo6ciooKnbivffv2focNJCYm6hQAAABAIBEbPWVlZWbixIm68pDYkei5d/ua+c8ZqWbK2ASdeBw/ftwvcm7duqVT9yUlJflFTrt27XQKAAAAoDEiNnpGjBhhnZgm5DE2CZ6+wyebOzevmAnD75hXnn/KGzh25Bw7dsz6/WDo0qWLFTW+kdOvXz+dAgAAAGiuiIyeX/7yl2b58uXWtQTP8Nz/sk5qk+D55tDbpv3VCit0gum73/2uN24kdDIzM3UCAAAAwE0RFz1btmwx48ePt67vD54DZf9jzlVss2Zu6tGjhzdw7Mh5/PHHdQoAAAAgmCIuekaPHm327NnjCJ7rl782+zYsNN+c+0p/69GkpaU5IufJJ5/UCQAAAICWFlHRs3DhQvOb3/zGdO4RbzKe/V/TpccTVuiUb1hgblyu0d9qmscee8zvsIFevXrpFAAAAEBri5jo2bZtm8nJybGuY/qPsqKnOcEjO0W+kTN06FCdAAAAAGiLIiZ6JFDkBDbbE8MnWe/vyLs8DXniiSesf843crp166ZTAAAAAKEg6NETFRWlV40nJ5nFxcWZjIwM62hpiQ75Zk1zLVmyxCxbtkxXDbPDxg6dwYMH6wQAAABAqGqT0ROIhNAvfvELk5eXp3ca5+9//7sZM2aMruoNGDDAL3I6duyoUwAAAADhImSix5acnGyKi4vNuHHj9M6Dye/JY233B87AgQP1NwAAAACEsxaPnvz8fJOYmKirwKqrq01VVZUpKyvTO/7eeeedh+76rF+/3ookCR234wsAAABAaGjx6JFT1Bq7S1NbW2v++te/mkWLFpnKykq9W68x4QMAAAAgsrXTP9skOcxAoqaiosK89dZberfe/PnzrTACAAAAgIa06ejx9cILL1g7O74uXrxo/vjHP+oKAAAAAPyFTPQI2fXJzc3Vlcfq1av1CgAAAAD8hVT0iFmzZumVh7zrwyNuAAAAABoSctHzgx/8QK/qHTp0SK8AAAAAwCnkokcONwAAAACAxgq56AEAAACApiB6AAAAAIS1kIueqqoqvao3dOhQvQIAAAAAp5CLns8//1yvPDIzM3nPBwAAAECDQi56Fi1apFcezz//vF4BAAAAgL+Qip4//OEP1nd5bDExMebHP/6xrgAAAADAX8hEz7vvvmvmzZunK49169bxaBsAAACAB2rz0SMHF+Tl5Zmf/vSnesfjnXfeMZMnT9YVAAAAAATW5qKntrbWbN++3XqUTWInOTnZlJSU6NTzSJsEj8wAAAAA4GGi/vktvQ6KqKgovXo0EjsSOgUFBSYpKUnvAgAAAMCDhUT0yLHUv/vd76zv8fAODwAAAICmCJmdHtuMGTPMj370Ix5vAwAAANAoLR49+fn5JjExUVcNq66utg4xKCsr0ztOsvuzZs0ak56erncAAAAAwF+LR8+2bdvMuHHjdNU4f/7zn81HH31kioqK9E49DjUAAAAA8CAh8Z0eOZr697//vfVh0tzcXL3rIUdZyzd8AAAAACCQkPk4qZBT2zZu3Gg9IudLwqe8vFxXAAAAAFAvpKLHJrs+9+/4vPrqq3oFAAAAAPVCMnqEhI8vOfCA3R4AAAAA9wvZ6JFH3eQEN18NnfQGAAAAIHKFbPSIn/zkJ3rlsWXLFr0CAAAAAI+Qjh4AAAAAeBiiBwAAAEBYI3oAAAAAhLWQjp66ujq9AgAAAIDAQjp6SkpK9MojIyNDrwAAAADAI2SjZ/v27aayslJXHmPHjtUrAAAAAPAI2eh56aWX9MojJibGTJ48WVcAAAAA4BGS0TN//nyza9cuXXn86le/0isAAAAAqBdS0VNVVWUmTpxoioqK9I5HZmameeWVV3QFAAAAAPVCInrKy8ut3Z3k5GRTVlamdz3ksbY1a9boCgAAAACcov75Lb0OiqioKL3yyM/PN4mJibp6sC1btpjPP//cXLx4Ue84yQ6PBE96erreAQAAAACnFo8etyxcuNC8/PLLJi4uTu8AAAAAgL+Qih55lC0vL88UFBSYpKQkvQsAAAAADWvT0ZObm2t69eplRo8ebbKzs824ceN0AgAAAACNE/ToAQAAAIDWFLIfJwUAAACAxiB6AAAAAIQ1ogcAAABAWCN6AAAAAIQ1ogcAAABAWCN6AAAAAIQ1ogcAAABAWCN6AAAAAIQ1ogcAAABAWCN6AAAAAIQ1ogcAAABAWCN6AAAAAIQ1ogcAAABAWCN6AAAAAIQ1ogcAAABAWCN6AAAAAIQxY/4fVffErRerxkgAAAAASUVORK5CYII=;" vertex="1" parent="1">
          <mxGeometry x="440" y="100" width="771" height="710.55" as="geometry" />
        </mxCell>
        <mxCell id="0NX7Yyfh2O2KS_RMifQC-2" value="" style="shape=image;verticalLabelPosition=bottom;labelBackgroundColor=default;verticalAlign=top;aspect=fixed;imageAspect=0;image=data:image/png,iVBORw0KGgoAAAANSUhEUgAAA1kAAAN5CAYAAAD6rfEFAAAAAXNSR0IArs4c6QAAAARnQU1BAACxjwv8YQUAAAAJcEhZcwAADsMAAA7DAcdvqGQAAK7BSURBVHhe7N0JnBxVvfbx/2TfM9lYshGyQNiXsCaQsAUiiIIii3oV0VcWr77iReEGUbhIICyC+iLgVUCRXSWAIItChCQsYUkgIRAIhCVhyTZJSEKWSd5+qk9NzvR0z3T3VHdXd/++n0/NnFO9VVVXV9fTp6pOzZYEAwAAAABEoo37DwAAAACIACELAAAAACJEyAIAAACACBGyAAAAACBChCwAAAAAiBAhCwAAAAAiRMgCAAAAgAgRsgAAAAAgQoQsAAAAAIgQIQsAAAAAIkTIAgAAAIAIEbIAAAAAIEKELAAAAACIECELAAAAACJEyAIAAACACBGyAAAAACBChCwAAAAAiBAhCwAAoAU33XSTnXrqqfb222+7MQCQGSELAIACuOuuu6x37942YcKEYJg2bZq7BeVG791ZZ51ld999t+23335B4AKA5tRsSXBlAABiSy0IixcvtkMOOcSNab3wOfv3729Dhw51Y6OhHfNDDz00KA8bNsyee+4569OnT1CvJOecc46NHTs2aOVJZ9myZTZv3jxXi1737t1tr732crXC0Dz84Q9/sPPPP9+NsSBsKXRFvd4AqAyELABAWbjyyisb7eRGafLkyfaTn/zE1aLhh6xCPH8cKGDdcMMNQfnss8+23/72t0E5VU1NjStF75hjjrFHHnnE1Qpr9uzZ9p3vfMdeeOGFoF7M1wZQXghZAICyUM4h6+mnn460BS4udNicDqMLnXLKKXb99dc3abErZMhqLtylClukRo8e7cbk5xe/+IU9+uijduedd9rAgQPd2OzMmDHDTjrpJFrAgApHyAIAFJV2zAcNGmQjR45scUdTh/M9//zz1qNHj+D+0txj1NKw9957B+WHHnrIjj322KDcHD1Gh5wV8nDBSg1ZouV3+OGH24oVK4K6DqNT644ftMKQFWWY1XluCjq5PmchA1+2Knl9AJDEhS8AAEV133332XHHHRecp6Qd3uYG3ee0006zOXPmBCGopSD07LPPupJlFbBE5/NEHbBSzZ07NwhdrRlaSxfi8Jet6lHQ8tPhcwpXorICkFqNWpLNfRA9LfcLL7ywYV1QK3FraX3SeXm62Ev4vCprXFTrGlBW1JIFAECxHHPMMTqCIqdh8uTJ7tHNC5/7lFNOcWNK5+mnn24yH/kOmq/WSoSgRs8Z9TJaunRpo9fo1atXME7Ccf77qNt0nxtvvNGNaWrBggWu1FQigAfPOXHiRDcmO+mmJZ2HHnooGPQ+ZkPzoefUY2bNmuXGNqXnC5dLKej1w2WX7bJojuY19fnSDbpPc8sFqDS0ZAEAiiqxQ2eJnUz9yNdo0PiQPz6xYxacw5INHT4mJ5xwQvAfSTrsMrxYQ9jipCvjRdnnkw4P1GGCev5EeArOk2ruaoq//OUvg0MMdU6XWr5Sp0WtH2rJVItLOokAFvx/8cUXg/9RU+upWlx1yOf+++/fYqubDpvUOYN6THOXeNdhgqW4ymTYeqX5CZdda4WHiobPp3PydJ6aDofUoLLOmRPdR/fVY4BqQMgCABSVDi/LZScz28P5Hn74YVcyGz9+vCvFg3Y4/eCYy6CdUz+A5kMXewj9/ve/dyWzxx9/3JWiEQatJ598Mu0l3Z944ongv3a0J02aFJRl1KhRwaX0QwpcOkxUdL9sDz8slEsuuaTFdXbIkCGuZHbppZe6UjzocNMDDzywYZnrqog33nhjUM6X3o/wXDyFaq3j4SGDCpIaVFbY1m26j+775S9/uaTvJVAshCwAQNnQzrd2GNPtpE2fPj34r1/Tm9shDp+jXH5RV8BsbT9Q4WXWtWz0XGFr1lVXXRX8j5KWvT+9eq/Clg2FRdV1GfSQdvYvu+yyRheC0DyrBVM75qIWytTWrjCEFuMS6tme3xfK5UeEQvNbr7Q81bqkZbbbbru5e+TnoosuarjYyZ///OdmL+Sh23Qf0XT4oR+oVIQsAEDZUMuLdhj79u3bcHJ9OIS/0uswuNTb/EGHoOk5Lr/88uD+lU4tfOHOcHgYZRhytMOb60U1FE6HDx+e9eMUOMKWDYUv7ZyHhy7qULIzzzwzKKfSfVMvqKFylOE4DNzphoULF7p7JVuCWhqyvX+xhZ+LiRMn2ptvvpm2hTFXCsphcFerWDYhVPfRfeWKK64I/gMVbQsAADGgk+/1tdTcV9PTEV5MQq9XSP60qlwqusCFpqGXdyEK/Q+nLRF0gnHZ0OMSQafhsXfeeae7JTu6SEX4WD1PNheASH1NzUdrLqAQPo/e/yjXp2yGKC5gkiu9ZiJMu9pW/rzn+lnQ+x4+Vhf6yFa+jwPKES1ZAICylNhJbDhkLJehmqilRi17ohaM8DA2/dehg6LzaHI5R8Y/FE7nTWV7eW5dJjxsVdFha6l9aWU6FFT3mTlzZsMFFNQqxwUUsqflHHUXBVOmTHGl3A6l9M+V/Pvf/+5KQGUiZAEAkAPt3KceApZuUN9YoVz7yYoqQPgXtvjqV7/qSknf+MY3gv8KLdleAEOBRzvtYeARBa1zzjnH1dLT7brynihg6cIYfsCSv/zlLw2Hgqa7mp8uoOAHrXvuuScot8Yuu+wSnPuVLozr/LFQuttTh5buv3Tp0lZfwCQuwsM9w8P/sqX3PDz8U8EZqGiJDz4AACWnQ5b0tdTcV1MUh+CFj8/1EKmQP52FGvKdtlRh/0X6n44OvdPtOhwvV6nLIdNhhzpczb9fpkP91M9UeJ/m3lu9TraHGqYTvkZLy9ifv2zkev9U/nLKd93Ohf9ZynV9Cx+Xax9lEh6+qgGoZLRkAQAqhlqBdKEH/S9nPXv2dKX8aRnowhby4x//OPifKmwZUsuEf+W+bPzkJz8JrlQX0oUQ0rVo/fSnPw0uNiK6f6YrJfpXu1MLUya6PHrqoYYoHv+zlc96uu+++7pS8hBRoFIRsgAAFWPGjBkNHcjqCni5nGuUrd13392Vgp/iIx1Crb28ttxxxx2ulLnfsG9/+9uu1LgvrWzpPC8/aKXbadZVBZ977jl76KGHsr6yXXMBSrfFOWCFh8NVg8GDB7tSfvy+0YBKQ8gCAFSkX//61wXZGe/Ro4crxZfCZXhBCl3gItOFDzQ+DAXhJblzpeCkFjGda6XzptLR+5BrX1NxotablobwEu5h62Gu1DoXhu3m+pwqtQ8++MCVzAYOHOhK2WttMAPKBSELAFCRDjzwQFeqPrqQRdg3VniBi0z+67/+K/iv++tQy3woXOliFqlhLtuLhGjwLxSS7vbmhnynO1tqGW1pCENquNwr1XvvvedK+cknmAHliJAFAKhIcT6krNCuueaa4L9al1pqQfIPJfzTn/7kSrkLz7XyD9F89NFH0waSdMNZZ53lHpVdqPEHHSIKAHFCyAIAoILovKjwEtvhhS2aozAa3k99arX2PLYJEyYU5Fy4YtPlyXXon3/OXDbD008/7Z4BQDUjZAEAKo5acKqVfwEL/8IWzfH70FJ/VfnSYXsKeF/72teC+kknnZSxH6pwUJBJ934p5KS7f+qg/qcKEWzUMpdPJ75xPp8KQPEQsgAAFeeAAw5wpeoTnhukC1pkGxIUDMLLrF911VXB/3yEhxvqMEG1qOn1M12yPaQLc6Q7j0nPofOtWqKWuNYGm1zOHctliKpT6Tjxr66ZD//cO6CSEbIAABUjvMJbIa1atcqVcr9AQ0tDa6klKQwsalGqqanJegiviqf/+YQDhSodbig6/DCbgHfhhRc2HNroX/o8LJ9++umRHnroL2P/Kne5nDuWy1CJ/Ktr5hOYVq5c6UpAZSNkAQAqRthP0xFHHBH8L4Q5c+a4Uu4XaGhpCOX7a39rLlzhu+mmm1wpe/5hiuedd54rZaZAOGnSpKCsUHXttdcGZfn9738f/Ffgu+iii4Jy1Ap9lbvJkye32IpX7lobmJrrdBood4QsAEDFeP7554P/PXv2DP6Xq3x2Xv2WJIUW7eTnOoSHDKqPrVxakHTf8DDFbFqx1FL29a9/PSjrfKxwukMKJxMnTgzKet6wz6/W8vt46t69uyslzx3zL3Lhn+Ol5eKfA5Zp8B+j5f+Tn/zE1SqLf2hmPi3HTzzxhCtV9xVAUQUSGwYAAEousTO7RV9LzX01JXZkG+6jsi+xk5zxNl94H71ePvQ6Ggpl1qxZeT3/jTfe2DBvd955pxubm3yfw3/vmlv2ovlLBKuG+6su/nsbSoSVhnH5zpMvm3UsdMwxxzTcN5zGTJYuXbolEVCD+2reCrl+RMVf3rl+FsJ51fuTq/C91/IFKhktWQCAihC2Ykkhr/CmVppsLyiRj3yvahdesEItQ37fV7nwH3frrbe6UvPUinXFFVcEZV0RsLllrxasww8/vOG8sURwavaQOrVwaX7ktNNOa3WLVtiKopamlqiD5fC1Nc3hoaipNP+6bH0iWAX1dJ0yV5qjjz46+K/z6XJp8dQyDN/7Qh7SC8QBIQsAUBGmTJkS/NeOfjaKcZGMfOl8pVwChS7oEO7kn3rqqXkfhqVwEC6/8AqBLdG5WOGO809/+tPgfzrpApamtTmaHoWWqIJWGMT333//4H9z9Np//vOfg7KmWVdBTBcodM5YePGOlkJjpfj85z/vSmaPP/64K7XM7x4g288pUK4IWQCAsuFfEMK/yp9/PtKJJ54Y/JfUkKD6ZHf+0dixY93Y3KjVQlfFS7fDrefPdJVA3V8BoblgEbaKHHfccXbOOedkFXLkjjvucKXGO8D50BX9Qv7FLNLR9IatWDqfK1MrluY714AVUmgJw44oaGnZpFv+zVHIC18/2/f+2GOPtRtvvDEoK0j5HS3rv6YjPBdN61S281TutFzC4HvNNdcE/7Pxu9/9LvivdaUawiiqnDtsEACAksrmfBmd66JzSTT4572ccsopweMSO37B+TESnvuj80daOk8oW/55LHruhx56yN2y9Rwefxp8EydObHhsc+cXhfOiQc/ZEr2WXlP317y2Vi7P579n6eZJz+XPT6b7ib9s09GyDqdLQ67v69lnn93w2HTvT3P8x+o8JL2uf76Ybi83/vLW+5gr/73XuXwtaWldASoNIQsAEAvZhKx0tMMWPs7fWUzduVc9153rVP6OtV7Lf76WdiL98JIpiIl/v0zP5fPnX0EuCn6o8IOkz5/O1DCm27Q8/PlQubl5aSlkSepFMzQoiLYUtvxpzTcQ+cvEH6IKWGFI15BLeMxXa0OWlqne9/A5mntv/XU0mx8OgEpAyAIAlJy/w6ad4Wz5O2/prnSWbkc/U2hoiR+iFNhSaR6au1386W1ux1bTGN5P06znzsQPflFd1c7fAc8UIvzQ4c+L5tFf5hr03rZ0hb5sQpZoHv15DodMy1z8ac03wOg98IOQBs1nVMu8ECFLy1zPlW7wrySp5ZPuPhqakxp6NQ96/8PHquzPl9635tZloJIQsgAAJZG6wxoOGp8NP/Q0t/OmneDU18q1VUs7k+Fjmws9et7wfpnu44fJ5qbBf65MQUfzFt4nXchsDb+VInU6tQMd3pY6Hyr7oSbbZe0/Z0tSXyPT8hH/ebNdt1IpkPhhInXQPOp1WsNfR1v7XKFMn7Fchpbos5Eu9KYOmpZs1gOgUhCyAAAl4bfq+IPGN0e3+wEg21/HU3eU9RzZ7Mzquf3Xa64lzJ+nTPPh36e51iwFKH96001rtud55cMPsf45N6nLI1PA0bRlc65OyA9D2dJ70dwhkqktLbmEF82npt+fVw0KC3rddAFG99X06HVzVa4hK6T1T2Ez9TOm9SOq+QHKCSELAFASYSuMdsq0M6idsUwBRjtp2nn1d+A06DG5/Dqu10z91b25IKDn9u/fXIuJ6P7hfbXDmUk4H/rf3PT7QUc7rHGQ2nKhZRoFP2Tl8p5mkhqwmns/fFoH9T6nrmta/qlhQfVMQUaP12vqPdT9olpOAMoDIQsAEFva2U7d2Q13YJtrUWqJ3wKkIV0rkF5bO8nhfbJtMfMDSCbh62vHvaVWD90nfL5cWoYKKVw22QaXbOj9DOczNczkK2xx0vqSLuRo2eu1FIQyhSWNb6mVUM/hrystDVG3OgKIH0IWACDWtAPr76AqoETR0qEd3bC1IR0/iOl+2R4CpscpGDU3nXqubHe0db9wGuK2cx5l64zfahdVyAqlm061VoWvl27Q7blOh15HQThTYNMQZTAFEF81+pP40AMAEFtXXnmlLVy40M477zwbOnSoG9t66qB24MCB1qdPHzemMXU4e9FFFwWd12bb0awek+n58qXOj3/0ox9F/rxxovf4/PPPD8qJcJOxY+Mo7b///kEnw6FEOLYf//jHNn78+FavZ1oPnnvuOZs+fbo99thjDa+TCNh0xAtUAUIWAACoStOmTbNzzz3Xjj76aDv55JMLHn70esUIjwBKj5AFAAAAABFq4/4DAAAAACJAyAIAAACACBGyAAAAACBChCwAAAAAiBAhCwAAAAAiRMgCAAAAgAhxCXcAABAY/1/TXSnp8WvGuBIAIBe0ZAEAAABAhAhZAAAAABAhQhYAAAAARIiQBQAAAAARImQBAAAAQIQIWQAAAAAQIUIWAAAAAESIkAUAAAAAESJkAQAAAECECFkAAAAAECFCFgAAAABEiJAFAAAAABEiZAEAAABAhAhZAAAAABChmi0Jrow8nXLKKXbPPfcE5Xbt2llNTU1QRmFs3rzZ6uvrgzLLu/BY3sXF8i4ulndj477/pCsl/fs3h7tSNFjexcXyLi4tay1zYXkXnr+8n332WTvwwAODclwQsiJw4okn2pQpU1wNAIDydNSPprlS0j9/eYgrAUB8TZ061caNG+dq8UDIisDPfvYzu/TSS4PyoYcean369AnKKIy33nrL5syZE5THjh1rvXv3DsoojDfffNPmzp0blA877DCrra0NyiiM+fPn22uvvRaUDz/8cOvZs2dQRmG88cYbNm/evKB8xBFHWI8ePYJytfp06HmulNTt7atdKRqvv/56MMiRRx5p3bt3D8ooDK3bWseF5V142nZrGy5HHXWUdevWLSijMLRvon0UWbBggQ0dOjQox4ZCFlrn2muvVVANhmnTprmxKJSrr766YXk/88wzbiwKZfLkyQ3Le+bMmW4sCmXSpEkNy/ull15yY1Eol156acPynj17thtbvY760bRGQ9QuvvjihuU9Z84cNxaFctFFFzUs70TgcmNRKBMnTmxY3omw5caiUM4///yG5Z0IWW5sfHDhCwAAAACIECELAAAAACJEyAIAAACACBGyAAAAACBChCwAAAAAiBAhCwAAAAAiRMgCAAAAgAgRsgAAAAAgQoQsAAAAAIgQIQsAAAAAIkTIAgAAAIAIEbIAAAAAIEKELAAAAACIECELAAAAACJEyAIAAACACBGyAAAAACBChCwAAAAAiBAhCwAAAAAiRMgCAAAAgAgRsgAAAAAgQoQsAAAAAIgQIQsAAAAAIkTIAgAAAIAIEbIAAAAAIEKELAAAAACIECELAAAAACJEyAIAAACACBGyAAAAACBChCwAAAAAiBAhCwAAAAAiRMgCAAAAgAgRsgAAAAAgQoQsAAAAAIgQIQsAAAAAIkTIAgAAAIAIEbIAAAAAIEKELAAAAACIECELAAAAACJEyAIAAACACBGyAAAAACBChCwAAAAAiBAhCwAAAAAiRMgCAAAAgAgRsgAAAAAgQoQsAAAAAIgQIQsAAAAAIkTIAgAAAIAIEbIAAAAAIEKELAAAAACIECELAAAAACJEyAIAAACACBGyAAAAACBChCwAAAAAiBAhCwAAAAAiRMgCAAAAgAgRsgAAAAAgQoQsAAAAAIgQIQsAAAAAIkTIAgAAAIAIEbIAAAAAIEKELAAAAACIECELAAAAACJEyAIAAACACBGyAAAAACBChCwAAAAAiBAhCwAAAAAiRMgCAAAAgAgRsgAAAAAgQoQsAAAAAIgQIQsAAAAAIkTIAgAAAIAIEbIAAAAAIEKELAAAAACIECELAAAAACJEyAIAAACACBGyAAAAACBChCwAAAAAiBAhCwAAAAAiRMgCAAAAgAgRsgAAAAAgQoQsAAAAAIgQIQsAAAAAIkTIAgAAAIAIEbIAAAAAIEKELAAAAACIUM2WBFdGnq677jo799xzg/KkSZNs5MiRQRmF8cADD9itt94alK+44grbaaedgjIK47777rPbbrstKF911VU2bNiwoIzC+Otf/2q33357UL7mmmtsxx13DMoojHvvvdfuvPPOoHzttdfaDjvsEJSr1W+nbeNKSecc8okrRePuu+8OBvnVr35lgwYNCsooDK3bWsflN7/5jQ0YMCAoozC07dY2XK6//nrbfvvtgzIKQ/sm2keRBQsW2NChQ4NyXBCyInDiiSfalClTXA0AgPJ01I+muVLSP395iCsBQHxNnTrVxo0b52rxwOGCAAAAABAhWrIi4B8uePHFF3P4WoE99NBDDYdT/c///I8NHz48KKMwHnzwwYbDqX7xi1/Erjm+0tx///0Nh1Pp8OMhQ4YEZRSGDjUJD6fS4ceDBw8OytXq5hcaz/8Z+73nStHQoVTh4VRXXnmlDRw4MCijMLRuh4dTXX311da/f/+gjMLQtlvbcPnlL39p2223XVBGYWjfRPsoEsfDBU0hC61z7bXXKqgGw7Rp09xYFErii6JheT/zzDNuLApl8uTJDct75syZbiwKJRGsGpb3Sy+95MaiUC699NKG5T179mw3tnod9aNpjYaoXXzxxQ3Le86cOW4sCuWiiy5qWN7z5s1zY1EoEydObFje8+fPd2NRKOeff37D8k6ELDc2PjhcEAAAAAAiRMgCAAAAgAgRsgAAAAAgQoQsAACqzFm/nGXj/2t6kyFVuvuc99s57lYAQCaELAAAqsyPTxnhSrn7j6PpQBgAWkLIAgCgygwb0DUYcrXXsJ621/CergYAyISQBQBAFcqnNYtWLADIDiELAIAqlGtrFq1YAJA9QhYAAFUql9YsWrEAIHuELAAAqlS2rVm0YgFAbghZAABUsWxas2jFAoDcELIAAKhiLbVm0YoFALkjZAEAUOWaa82iFQsAckfIAgCgymVqzaIVCwDyQ8gCAABpW7NoxQKA/BCyAABAk9YsWrEAIH+ELAAAEPBbs2jFAoD8EbIAAEAgbM2iFQsAWoeQBQAAGqg1i1YsAGgdQhYAAGgQtGTRigUArULIAgAAAIAIEbIAAAAAIEKELAAAAACIECELAAAAACJEyAIAAACACBGyAAAAACBChCwAAAAAiBAhCwAAAAAiRMgCAAAAgAgRsgAAqCKvvvmR/e2fc+zGe561S2/8l/3fyx+wr/74Dhv/f35ve3/5uuD/V39yh/1g0v3B7brfXx9/NXgcACA7hCwAACrc9JcX2uW/f9KOPftm+48L7rL/ueGfduPdyfD07xfettfe/sSWLP80uK/+v7bgE3vqxXeC23U/hS09To+/4vdTg+cDAGRGyAIAoAIpCE381SN2yH/81r73iyl29z9m2+JPVrlb86PH3/WPWcHz6Xn1/AQuAGiKkAUAQAWZ8+ZH9sPJDwZB6OGnXrdP125wtyS1adve2rXvZF1r+1u3PjtYj21GWK/td7U+g/ayPoNHBf9V13jdrvvp/nqcT8+r59fr6PX0ugCAJEIWAAAV4P2PVtrF1z9uX7/gLpv6/AI3Nqld+87Wpce2VrvdyESI2tt6DdjDutQOsM7dt7GOXWqtXceuiRDVwdq0aRP8V13jdbvup/vrcXq8nkfP59Pr6XX1+poOAKh2hCwAAMrctX962o7/3i025Ym5bkySQlKv/rsnQtLu1rX3YGvfqbu7JT96vJ5Hz6fn1fP79PqaDk0PAFQzQhYAAGVq5aef2fcn3W9/vP9FNyapY5feQQjS4X7tOjRudYqKnlfPr9fR6/k0PZouTR8AVCNCFgAAZei1BR/b6RPvtqdffMeNMevQqbv13HZn67HNsIKFq1R6Hb2eXlevH9J0afo0nQBQbQhZAACUmUenz7dvTrzH3lm0wo0x69prkPXcbqR16NzDjSkuva5eX9MR0vRpOjW9AFBNCFkAAJSRm++baef/8mHbuKk+OaKmxnr0G25dem6XrJeYpkPTo+kSTaemV9MNANWCkAUAQJlQi9Cv/zzd1czatu8cXG69Y9debkw8aHo0XZq+kKb7g7rGl4EHgEpFyAIAoAzo3Kaf/vpRV0t8gbdpnwgyu1i7Dl3cmHjRdGn6NJ2hF9/vYl28wwkBoFIRsgAAiDldpe/CXz3ScIigWoh6D9zDatq0DepxpenTdIYtWpu3mA3e72vWNqbBEACiQsgCACDm1ILVcJGL4BysobEPWCFNp6Y3PEerY/dtg6AFAJWMkAUAQIypY1//Mu09+ury7OXVEqTp1XSHemy3q93xKFccBFC5CFkAAMTU+x+tbNTRsC6PHreLXGRL0+1f3v2h6e8G8wcAlYiQBQBATP3hr8+7UrKj4bhcpj1fmn6/w2J//gCgkhCyAACIoTlvfmRTnpjramade/Z3pfLmz4fmT/MJAJWGkAUAQAz9/m9bO+/t2KW3dejcw9XKm+ZD8xPy5xMAKgUhCwCAmJn+8kKb+vwCVzPrUlsZrVghf340n5pfAKgkhCwAAGLmoadedyWzzt23sXYdkv1MVQrNj+Yr5M8vAFQCQhYAADHz1Atvu5JZJy+MVBJ/vvz5BYBKQMgCACBGdOjcp2s3BOV27TtXXCtWSPOl+RPNL4cMAqgkhCwAAGLk6Re3ho1KudhFJv78PeV1uAwA5Y6QBQBAjDz14tZD5zp0Kc+Oh7Plz9/ThCwAFYSQBQBATLz65ke2+JNVQblN2/bW3uu4txJp/jSfovnW/ANAJSBkAQAQE/MXLnGlxBd0m7auVNn8+Xzz3aWuBADljZAFAEBMLFmxxpXMOnbd2mFvJfPn85Pln7oSAJQ3QhYAADGxZPnWkFXjDqOrdP58+vMPAOWMkAUAQEws8Vpy2rTt4EqVzZ/PpV5LHgCUM0IWAAAxsbRua8hoW8SWrHWrPnSl4vPn0w+ZAFDOCFkAAMTEkhVrXSnxBd2uOCFr9ZI37bnbvmXvvXSPG7PVig9m2RtP/NK2bNnsxkTPn88ldVvnHwDKGSELAICY8FtyatoUPmQpYL14z/dt0/pPbf7UX9vbz9wcjF/27vOJ8f8ZDO/P+pt9MHtKML4gatq5Ai1ZACoHIQsAgJjo17ubK5lt2bzJlQpDweqV+ycG/0MKWUveetrqPpgVtGKFFr1SwJC1Zet8+vMPAOWMkAUAQEz0q+3iSmab6ze6UvQUrGY/8N9NzsUavO/J1m/4oTZgzxPcmKRPl75tn7z1lKtFa/OmrfPZr9fW+QeAckbIAgAgJvyWnM2bNrhStBSw5j56ma14/2U3JkkBa6fDfhCUO3XfxvrvdlxQDi0q0CGD9V6Y7Fvb1ZUAoLwRsgAAiIm+vbaGjEK1ZOncKx0S6Ou/27E29OAzXC1p4F5fdKUknae18sO5rhadzfVbwySHCwKoFIQsAABiol/vwoYsXUFw8dyHXS2pe78RQQtWu46NA06P7Xa1PkMOdLWkQlwAY4s3n/78A0A5I2QBABAT23gtOevXLHOlaChgqRXL17nH9jbq5N80CVihgSnnZn342j/ss9Ufu1o01q9Z7ko6J4uQBaAyELIAAIiJETv0dSWzzZvrXan11HoVXp49pGC15xcnZQxYootgdOs3zNWSom7N8udzpyH9XAkAyhshCwCAmNhjxHbWf5seQVmHC278bHVQbg31haUWLP9S7QpWux1zYXCoYEtSW7N0OfeoLi+v+QsPi9R8a/4BoBIQsgAAiJFDR+3oSmYb1q5wpfz4nQ2HwoClVqpsDNjzi9a+c09XSwajqFqz/PkbO2qoKwFA+SNkAQAQI2P9kLVulSvlTsHqtUcmNQpYoqsIZhuwpKamTZPWrA9eud+VWsefv0NHDXElACh/hCwAAGJkzD5DrFuXDkF508Z1tmnDuqCci7AvLLVk+dQXloZcDdyrcchas+wd++TNqa6WH82X5k80v5pvAKgUhCwAAGJm7H5bD537bPUnrpSdMGCl9oXldzacq47d+ln/3Rt3TtzaQwb9+fLnFwAqASELAICYOW7sSFcyW5cII7m0ZmXb2XCuUg8ZXP7eC7Zy8auulhvNj+Yr5M8vAFQCQhYAADGjQ+cOO2DrpdPX1i12pebl0tlwrnpst4v12fEgV0vK99wsf340nxwqCKDSELIAAIih73xpf1cyW792eYsXwcjU2XBLfWHlomnnxI/YulUfulp2NB+an5A/nwBQKQhZAADE0O4jtrMTjtjN1czWrczcmtVcZ8MKWlHpN+wQ695vuKslLcrx3Cx/PjR/mk8AqDSELAAAYurbXz7Alcw2fLba1q78yNW2am1nw7kakHKlQR0yGHYo3BJNv+Yj5M8fAFQSQhYAADE1aLue9s0vjnI1szUr3rf1a7Z24KtD9Vrb2XCudMhghy69XC15NcNFr7TcmqXp1vSHjhuzQzB/AFCJCFkAAMTYud841A71OihetXSBbdqwNgg3r9w/sVHAklw7G85Hk86JZzd/AQxNr6Y7tOqj1+yrx+zkagBQeQhZAADE3C9+cIztOMC1Hm3ZYisWz7G5j0TX2XCuBuz5RVdKWrN8oX08/0lXa2zL5npbteTtYLpl/eqP7b0Xbg/KAFCpCFkAAMRcz26d7LL/O8Hat2tr9RvX2cJnb7ElC6LrbDhXHbv1tQF7HO9qSekOGVTAWv7Bq8E0S5saCwJW/Ya1QR0AKhUhCwCAMrDrsG2DFq2P5z3apBNgHR7Y2s6GczWgSefEL1qdN106RHDFh/Ns8+atF8UYNWitrfXOywKASkXIAgCgTMyb+bAteevfrpbUuXaADT/0e5H1hZWtHtvubH2Hjna1pPBy7rrIxYoPX2towZIffH2MDazN7iqEAFDuarYkuDLydOmll9rPfvazoHzUUUdZ3759gzIK4/XXX7dZs2YF5fHjx1ufPn2CMgpj3rx5Nnv27KB89NFHW+/evYMyCuO1116zV155JSgfc8wx1qvX1qu4IXpz5861V19Ntr5MmDDBamtrg3IcvfHGG/byyy+7WlKHLr1t2NjvBf+79hpkXXoWt8+pJW9Pt9lTzne1pH1Pvt7qN21wtcSOhm2x/u0WWI82y2zOnDnBIJ/73OesZ0+uLlhIWre1jsuxxx5rPXr0CMooDG27tQ2X4447zrp37x6UURjaN9E+iixYsMCGDh0alOOCkBWBE0880aZMya0zRgBA6e31pWtdKd6Wv/u8LX5lSqOWobbtOycC1jnWuedANyYRujp1T9T7W4fOxduZfu7PZ9jqT+a7mtk2Ox1h2+8enq+lXYyaZDHF7L+d60oA0DpTp061cePGuVo8cLggAAAxtm7lorQBa9Co0xoFLFFHvys/fsNWfaLLvG+9fyFtv9uxrpS07J0ZtqV+k6ulD1gAUOloyYrAddddZ+eem/xF7qmnnrLRoxsfo45o/fKXv7Sf/OQnQXn69Ol24IEHBmUUxlVXXWX//d//HZSfe+45GzVqa8eoiN4VV1xhP/3pT4PyCy+8YHvvvXdQRmGMOvk3rhRPG9YutwVPXR/89w056Azr2X8PV8usc/dtrFNiaNehsxsTHYW4z1Z/YusSw9yHf2abEgEv1H/PE6zf8OZ/Vb7t4iNt1113dTUUwsUXX2y/+MUvgrIO0xw5cmRQRmFcdNFFdvnllwdlHcY2YsSIoIzCmDhxol155ZVBmcMFK5QfsqZNm2ZjxowJyiiMa665xs4777yg/Mwzz9hBBx0UlFEY2oCdf37ynIuZM2fafvvtF5RRGPqC1heHvPTSS7bPPvsEZRTG3l++zpXMTj+18SXJS23dmlV2/SVfs0ULk+cchE745oU27rhvudpWqz5da6/OfdPefOc9N2ardu07B4cQdujSy9p3yv88kY2JILVh7QrbsG6VbfJa1j6a90hw1cPQNv2H2n9f95irbXXrXQ+6ktnt/zPedtttN1dDIeh8cZ03LtrpJ2QV1oUXXmiTJk0KyvPnzydkFdgFF1xgkydPDspxDFkcLggAQMwoYN352/ObBCyFq3QBS3p062JjDtzLPj/+EBs0sPEFMBSI1q762Oo+et2WvT/LVix61dbWLQpaodavrbNN69fY5voNtnnz5uC/6hqv23U/3V+P0+P1PH7Akj3HNL6c+yeL37ZZzzzsagBQfQhZAADESBiwXp35uBuTpHClVqyW9O3Ty448ZH8bP+5AGzpkoLVv387dkrS5fmMiJH1ma+oW26fL3rVVn7wZXG592fuzbdl7Lwb/Vdd43a776f56nE/Pq+fX6xx79Hg7+KhT3S1J0x+7w5UAoPoQsgAAiJFH//KbJgFrwJBd7JiTvu9q2Rmw/TY29qB97Gtf/lwQhHYZsaN169rF3ZofPX7kiCHB8+l59fx6HRk9/rTgf+ituc/a2/NmuhoAVBdCFgAAMfHvh24JBp8C1vd+frt17pr/ZdkVhA4ctbuddPyRdtz4Q230/nva3rvvZDsN28EG9d/W+vbuaV06dwruq/99e/UMxut23W/0AXsFj9PjDxq1R0Ow8g3ccTfbbdQRrpY0/fE7XQkAqgshCwCAGFC4mvLHy1wtqXe/gXbGj29oVcBK1a9PrQtPOwdh68ixB9jnjx5rJ39xfHDxD/3//DFjg/HJMLaz7TR0cPC4lqS2Zr007QFb+nHTC3EAQKUjZAEAUGI6PFCHCfoUrBSwFLTKxa77Hm6Dhu7uakkzODcLQBUiZAEAUEK6gqAudKELXoQUsE47Z3JwqGC5OTilNWvG43fYhvXF6RgZAOKCkAUAQIksX/KB3XzV2Y0ClugqgnvsP97VysvBR55iPXptPWdr/WdrE0GLc7MAVBdCFgAAJaBgpYCloOVTwDrgsC+7WnlKPTeLkAWg2hCyAAAosnw6Gy4nY8Z/1ZWSlnz4jr08/e+uBgCVj5AFAECRpetsWK1XufaFFVfdevZp0po1/XEugAGgehCyAAAoIl2mPV1nwzpMMMpLtZfa6JTWrAWvPW+fLl3gagBQ2QhZAAAUSaE6G44jzdfu+x3paknL3pnhSgBQ2QhZAAAUQbE6G46T1NasuvdfsvWfLnE1AKhchCwAAApMF7iohM6Gc7XLPuNs0LA9XC2J1iwA1YCQBQBAASlgXX/J1yqms+FcpbZmKWRt3rTB1QCgMhGyAAAokErsbDhXBx3xFevZe1tXsyBg0ZoFoNIRsgAAKIBK7mw4V01bs6a7EgBUJkIWAAARq/TOhnOlPrNqampczWz9p0vtoYcecjUAqDyELAAAIpauL6xK6mw4V9169G7SmnXvvfe6EgBUHkIWAAARUsB6fupfXS2pEjsbzpVas3wvvPCCTZ061dUAoLIQsgAAiEg1dTacq/47jLSe/Rtfzv3GG290JQCoLIQsAAAioNar1L6wKr2z4Vz12XG0KyXdfffd9sYbb7gaAFQOQhYAAK2kC1zoMMF0fWFVcmfDueq+7Ujr0muwqyXddNNNrgQAlYOQBQBAKzTX2fDw3Q50YxDqM3SMKyXpkMHVq1e7GgBUBkIWAAB5orPh3PXe4QBr37nW1czWrVvHuVkAKg4hCwCAPGTqbHjCV35QdZ0N5yr13CwOGQRQaQhZAADkqLnOho9JhCw0r8/Q0damzdZdkAULFtjtt9/uagBQ/ghZAADkiM6GW6ddh652yimnuFoShwwCqCSELAAAckBnw9E4+eSTXSlp2rRp9sQTT7gaAJQ3QhYAAFmis+HojBgxwk488URXS+LcLACVgpAFAEAW0nU2rGBFZ8P5O+uss1wp6Z577rHXX3/d1QCgfBGyAABoQabOhs847wY6G26Fo48+2g466CBXS+LcLACVgJAFAEAz6Gy4sM4880xXSlLIWrlypasBQHkiZAEAkAGdDRfe6aefboMHD3Y1s/Xr13NuFoCyR8gCACCNsC+s1M6G1RcWnQ1HK/XcLA4ZBFDuCFkAAKQIA9Zbc59zY5IUsNSKhWgpZLVv397VzN555x277bbbXA0Ayg8hCwCAFHQ2XFy9evVKe24WAJQrQhYAAJ5H7/01nQ2XQOohgzNmzLB//etfrgYA5YWQBQCAo46GH0mELB+dDRfHbrvtZl/+cuNz3WjNAlCuCFkAACTQ2XDppbZm/eUvf7HXXnvN1QCgfBCyAABVb93KRXQ2HANHHXWUHXzwwa6WRGsWgHJEyAIAVDUFrAVPXU9nwzGR2pqlPrPq6upcDQDKAyELAFC16jeus4XP3Bz899HZcOl84xvfsCFDhria2YYNG2jNAlB2CFkAgKqk1pGFz95sG9Yud2OS6Gy49OicGEC5I2QBAKqOAta3vvUt+3TJW25MEp0Nx4P6zOrQoYOrmb377rv2xz/+0dUAIP4IWQCAqnPuuefalClTXC2Jzobjo7a2Nu25WQBQLghZAICqct1119mtt97qakmdew6gs+GYSQ1ZzzzzjD3++OOuBgDxRsgCAFQNBSy1YvkUsIaN/R4BK2Z22WUX+8pXvuJqSZybBaBcELIAAFVBrVeXXHKJqyW1bd/ZBu13WvAf8aNzs3x/+9vfbM6cOa4GAPFFyAIAVLxZs2YFLVh+f0s672fQqNOClizE05FHHmljxoxxtSTOzQJQDghZAICKpoB1+OGHNwlYt9xyi/Xsv4cbg7hKdzn35csbX3YfAOKGkAUAqFgKVieeeGKjgCXXXnutnXDCCa6GOPv6179uQ4cOdTWzTZs2cW4WgNgjZAEAKlIYsBYuXOjGJP3whz+0008/3dVQDlLPzeKQQQBxR8gCAFQcBSx1Njx16lQ3JkkBS61YKC86ZLBTp06uZvbee+81uQw/AMQJIQsAUHHSdTas1quf//znroZy0qNHj7TnZgFAXBGyAAAVJV1nw3vvvXfQgqULXqA8pR4y+Nxzz9mjjz7qagAQL4QsAEDFSNfZ8JAhQ+zJJ58kYJW5kSNH2sknn+xqSZybBSCuCFkAgIqQrrNhBav77ruPgFUhUg8Z1Hv76quvuhoAxAchCwBQ9jJ1Nqy+sHSoICqD+js79NBDXS2Jc7MAxBEhCwBQ1prrbJi+sCpP6rlZCllLly51NQCIB0IWAKBshZdq9wOW6CqCBKzK9LWvfc2GDRvmamabN2/m3CwAsUPIAgCUpTBgqSXLp76wNKBycTl3AHFHyAIAlJ0wYKX2hUVnw9VBIatLly6uZvbBBx/YzTff7GoAUHqELABA2UnX2bAOD6Sz4erQrVu3JudmccgggDghZAEAykqmzoZ1oQsu1V49Ug8ZfP755+2RRx5xNQAoLUIWAKBsZOpsmL6wqs9OO+1kp556qqslcW4WgLggZAEAykJznQ0raKH6pLZm3X///TZ79mxXA4DSIWQBAGKPzoaRzrhx42zs2LGulsS5WQDigJAFAIi1hQsX0tkwMkp3OfclS5a4GgCUBiELABBbClYnnnhio4AldDaM0GmnnWYjRoxwNbMtW7ZwbhaAkiNkAQBiKewLi86G0RI6JwYQN4QsAEDshAGLzoaRDfWZ1bVrV1czW7x4sf3hD39wNQAoPkIWACB2dBVBOhtGthSwaM0CECeELABArKgvLA0+OhtGS1JD1gsvvGAPP/ywqwFAcRGyAACxQWfDyNfw4cPtq1/9qqsl0ZoFoFQIWQCAWNDhgXQ2jNbQuVm+Bx98sMmFUwCgGAhZAICS046wLnSRri8sOhtGttQx8WGHHeZqSbRmASgFQhYAoKTU2XC6vrDobBj5SD0366abbrKPP/7Y1QCgOAhZAICSUbBSwFLQ8uky7QQs5OOUU06xnXbaydWSaM0CUGyELABASdDZMAolXWsWABQTIQsAUHR0NoxCUsjq3r27q5l9+OGH9r//+7+uBgCFR8gCABRdus6GdYELOhtGFDp37kznxABKipAFACiqTJ0NP/nkk/SFhcikXs79pZdesr///e+uBgCFRcgCABQNnQ2jWIYNG2Zf+9rXXC2Jc7MAFEvNlgRXRp6+9KUvBTsIUlNTE/xHYYWrLcu7OFjexbXnib90pcry6ZK3bOGzN1v9xnVujFnb9p1t2NjvWeeeA9wYIDprlr1tb/37N66WtNMR/2Wdawe6WvV45b4fuRIKxd+l5vuy8PzlPXXqVBs3bpyrxQMtWRHw32SVGQo/hNLdxhD9EEp3G0P0QyVat3JR2oA1aNRpBCwUTNc+Q61bvxGulrTs7RmuVF3SbWsYoh186W5niHaIO1qyInDxxRcHJ3HL4Ycfbn369AnKKIz58+fbK6+8EpSPOOII6927d1BGYbzxxhv26quvBuUjjzzSevXqFZRRGK+//rq13enbrlYZNqxdbgueuj7471PA6r3DAa4GFEbdB7Ps3ef/6GpJux57ibXv1MPVqsN2ax5pdMVFRG/OnDnBNlwmTJhg3bp1C8ooDO2baB9FFixYYEOHDg3KcUHIioB/jsG0adNszJgxQRmFcc0119h5550XlJ955hk76KCDgjIK48orr7Tzzz8/KM+cOdP222+/oIzCuPzyy+3uFzq7mtnppx7vSuVp3ZpVdv0lX7NFC+e5MUknfPNCG3fct1yttG6960FXKv/lHXelWtaXn3uMfbJogauZHfOVH9iExFDp/OV912UTbOTIka6GQrjwwgtt0qRJQVk/CI8Y0bgVFdG64IILbPLkyUE5jiGLwwUBAAWhgHXnb89vErAUruISsFAdxow/zZWSZjx2hysBQGEQsgAABaGA9erMx10t6YDDvmzHnPR9VwOKY/T4r1qnLlsPlVu9cqnNePxOVwOA6BGyAACRm/LHy5oErAFDdgkOE+zctbrOhUHptWvfIRG0Ulqz/knIAlA4hCwAQKT+/dAtweBTwPrez28nYKFk1JrlW/TOazb3xSdcDQCiRcgCAERG4UqtWL7e/QbaGT++gYCFkuqzzUDbb+wJrpY0nXOzABQIIQsAEAld4OLRvzTu+FXBSgFLQQsotdTWrHkvT7X3FyS7qACAKBGyAACtpoClS7XrioIhBazTzpkcHCoIxMGOO+9rO+0x2tWSODcLQCEQsgAArbJ8yQd281VnNwpYootc7LH/eFcD4iG1NevZf91jK1d84moAEA1CFgAgbwpWClgKWj4FLF2uHYibvQ6aYNsNHO5qSfSbBSBqhCwAQF7obBjl6uDUy7k/fodt2bLF1QCg9QhZAIC8pOsLi86GUQ7GjP9qo6tdfrpquT3DuVkAIkTIAgDkTAHr+al/dbUkOhtGuWjbrn2Tc7OmP0bIAhAdQhYAICd0NoxKMCblkMHF786zOTP/6WoA0DqELABA1tR6ldoXFp0Noxz16jfA9h/3JVdL4nLuAKJCyAIAZEUXuNBhgun6wqKzYZSj0SmtWfNe/re9t+AVVwOA/BGyAAAtaq6z4eG7HejGAOVlyE772M57HuJqSTM4NwtABAhZAIBm0dkwKllqa9ZzT95rdcs+cjUAyA8hCwCQUabOhid85Qd0NoyKsOeBx9h2g0a4WhKXcwfQWoQsAEBazXU2fEwiZAGVounl3NU58WZXA4DcEbIAAGnR2TCqhTon7tKt1tXM1qxewblZAFqFkAUAaILOhlFN2rRt2+TcrOmP3+FKAJA7QhYAoBE6G0Y1Sg1ZH773RpOWXADIFiELANAgXWfDClZ0NoxK16tv/yYXc5nxGK1ZAPJDyAIABDJ1NnzGeTfQ2TCqQuoFMF6f/bS9++ZsVwOA7BGyAAB0Ngwk7DBiLxu516GuljSDc7MA5IGQBQBVjs6Gga1Sz83SIbR1yz50NQDIDiELAKpY2BdWamfD6guLzoZRjfY44GjbfvDOrpakfrMAIBeELACoUmHAemvuc25MkgKWWrGAaqV+s3wzHr/TNtfXuxoAtIyQBQBVis6GgfRGH32ade3ey9XM1n5aR79ZAHJCyAKAKvTovb+ms2Egg5qaNk3OzXrm8TtdCQBaRsgCgCqjjoYfSYQsH50NA42lXs79w/fn2yvPPepqANA8QhYAVBE6GwayU9tnOzvw8K+4WpLOzQKAbBCyAKBK0NkwkJvR4091paQ3XplmC+e/7GoAkBkhCwCqAJ0NA7kbPHwvG7n3WFdLojULQDYIWQBQ4RSs6GwYyE/q5dxn/vtvtmLJIlcDgPQIWQBQwYKAdfXZdDYM5Gn3/Y+y/jvs4mpJ02nNAtACQhYAVCgFLDobBlov9dwsXc69ftNGVwOApghZAFCh6GwYiIYu596tR29XM1u7ZiXnZgFoFiELACqQ+sKis2EgGjU1NU36zZrx+B2uBABNEbIAoMIoYKkVy0dnw0DrjD66ccj66IO3bPazj7gaADRGyAKACpKps+HTzrmSgAW0Qs9e29hBR9A5MYDsELIAoEJk6mxYfWGpJQtA66QeMjj/1en2zhsvuRoAbEXIAoAK0Fxnw/SFBURj0LA9bJd9DnO1JM7NApAOIQsAylzQFxadDQNFMSbl3KwXnppiyz5p3A8dABCyAKCMBQGLzoaBotlt1BFNDr9Vv1kA4CNkAUCZUsCis2Gg+FLPzZr++B22aeMGVwMAQhYAlC06GwZKY/T406x7z76uZvbZ2tWcmwWgEUIWAJQhOhsGSiu136zpHDIIwEPIAoAyk66z4d79BtLZMFBEo4861ZWSPlm0wGY98w9XA1DtCFkAUEYydTZ8xo9vIGABRdSj1zZ28JGnuFoShwwCCBGyAKBM0NkwEC+phwy+OecZe/v1F1wNQDUjZAFAGaCzYSB+Bu64W3BJdx+XcwcghCwAiLnkpdp/0ihgia4iGMeApT67Uq96CFSqg1POzXrh6ftt2cfvuxqAakXIAoAYC/vCUkuWT31haYijpx7+YzDNQDVQS5ZatHycmwWAkAUAMVW/cV0QVlJbheLc2bBasXRxDoXD1EvMA5Wq6eXc77CNGz5zNQDViJAFADG1+JUpTQKWDg+Mc2fDasUKD2tMvcw8UKl0lUFdbTC0ft0am8G5WUBVI2QBQAwteevftvzd510tSVcQ1IUu4nqp9rAVK0RrFqpJar9ZhCyguhGyACBmFLDUiuVTZ8Nx7wvr0Xt/0+TiHBoHVIPUQwY/Wfy2vTzjIVcDUG0IWQAQIy+99JJ9PO9RV0tSsFLAUtCKq0xXFExt3QIqVfeefW30+NNcLYkLYADVi5AFADExa9Ys+/vf/x5c8CJULp0Np2vFCtGahWox+qjGIeutuc/Z2/NmuhqAakLIAoAYWLhwoR1++OH22Wdbr0jWtn3nsuhsuKV+sWjNQrUYsOOuTTonns65WUBVImQBQInV1dXZiSeeGPz3bbvLMbEPWNJcK1aI1ixUizEp52a9NO0BW/rRu64GoFoQsgCghBSsvvWtbwWHCvr6DR8XDHGnTpKzaaVqqbULqBS77HOYDRq2h6slqd8sANWFkAUAJRIGrClTGl9JUOGq/54nuFq8PfXwra7Usim30m8WqkPquVnPPH6nbVi/9VxLAJWPkAUAJXLJJZc0CVhDhw4NDhMsB9m2YoVozUK1OOjIk62n3znxZ2vpNwuoMoQsACiB6667Lhh8e++9t339618PLnhRDnJpxQrRmoVqkdpvFpdzB6oLIQsAikzh6txzz3W1pCFDhth9991nnTp1cmPiTZemzueKgbRmoVqMHv9Vq6mpcTWzJR8utJemP+hqACodIQsAikiHB+owQV9tbW0QsBS0ykU+rVihR+/9tSsBlatbj952cMq5WRwyCFQPQhYAFImuIKgLXfiXalfAuuWWW4JDBcvJGT++wa69560mgzpP9l10/VSbdMtLjYbv/fx2dytQ2cYc3ThkLXjt+WAAUPkIWQBQBOpsOF1fWApYJ5xQHlcSzEfnLj2C4JU6ANWg/w672O77H+VqSVzOHagOhCwAKDAFKwUsBS3ftddeW9EBC4DZmPGNL4Dx8vS/25IP33E1AJWKkAUABZSps+Ef/vCHwQCgso3ce6wNHranqyVxbhZQ+QhZAFAgmTobVrhSKxaA6jA65dwshSz1nQWgchGyAKBA0nU2rAtc/PznP3c1ANXgwMO/YrV9tnM1sw3r19FvFlDhCFkAUACZOht+8skngysKAqgu6jfLxyGDQGUjZAFAxJrrbJiABVSn0eNPs5qarbtdSz96116a9oCrAag0hCwAiNDUqVMrorNhANHq2r1Xk3OzptOaBVQsQhYARERXEEztC6tcOxsGEL3Uy7m/PW+mvTX3WVcDUEkIWQAQgUydDVdbX1jr1qxypSQ6Hga22n7wzrbHAUe7WhLnZgGViZAFAK3UXGfDp59+uqsBQPLcLN/LMx6yTxa/7WoAKgUhCwBagc6GAeRi5F6H2g4j9nK1JFqzgMpDyAKAVtBVBFP7wlLrFX1hAcgk9XLu0x+7wz5b96mrAagEhCwAyJMC1q233upqSbrAhQ4T5FLtADI54LAvW6++/V3NbNPG9bRmARWGkAUAeaCzYQCtkXpu1ozH73AlAJWAkAUAOaKzYQCtpZDVpm1bVzNb9vH79sLT97sagHJXsyXBlZEnf4fr0ksvtZ133jkoozAefPBBu+2224LyZZddZiNGjAjKKIz777/fbr/99qB8+eWX27Bhw4JytdIVBNXZ8Jo1a9wYs65duwbnYEXR2bCC2mvrD3A1s9NPPd6VysO5Jw93paRr73nLleLr1rsedKXyW97lhmXd2N9uvsSefiT5fSY77jzKfnDp3a7Weo2W96FmAwYMcDUUwp133hlsw+VXv/qVbb/99kEZhaF9E+2jyIIFC2zo0KFBOS4IWRHQpZtTT3wHKsleX7rWlarbupWLbMFT11v9xnVujFnb9p1t0KjTrGf/PdyY6jb7b41b+Fh3gMw+W/WhvfHPK10tadih51i3ftH/eJj62QQqydSpU23cuHGuFg8cLggAWdiwdrktfObmRgFL+u95AgELQF469dg+sf3Y09WSlr09w5UAlDNasiLA4YLFxeGCxaWm+Dnr9nO16qRgpRYstWT5FLD6DY/XL2elRksWkJvVn7xhb0+70dWSdh5/gXXqvq2rRYPDBQuPwwWLi8MFq4AfsqZNm2ZjxowJyiiMa665xs4777yg/Mwzz9hBBx0UlFEYV155pd3xXAdXq77zKNatWWV3/vZ8e3Xm425M0rjjvmUnfPNCV4tOuZ+zwjlZaA7LOr1f/fQrtnD+y65mNvbY0+3E03/qavnzl/ddl02wkSNHuhoK4cILL7RJkyYF5fnz5/MjcIFdcMEFNnny5KAcx5DF4YIA0Iwpf7ysScBSHzfHnPR9VwOA1kl3OffP1q52NQDliJAFABkoYD0/9a+uljRgyC5BC1bnrj3cGITU6udjGQHZ2X/cl6xXv62H8m3auMGm028WUNYIWQCQxr8fuiUYfApY3/v57YQHAJEbk9qa9didrgSgHBGyACCFWq8e/ctvXC2pd7+BdsaPbyBgASiI0eO/am3btXc1s+VLPrCZ/05eRAFA+SFkAYBn0cJ5wWGC/qFvClannTM5CFoAUAjazqSem/XMP2nNAsoVIQsAHAWs6y/5WtqANXy3A90YACgMtWb53nnjJZv/6nRXA1BOCFkAkKBDc26+6uwmF2/QRS722H+8qwFA4Ww3cLjtddAEV0vi3CygPBGyAFQ9BSsFLAUt34Sv/CC4XDsAFEtqa9bs5x6xjz6If39zABojZAGoagpY6mxYhwr61NnwMYmQBQDFtNMeo23Hnfd1tST1mwWgvBCyAFQ1OhsGEDeprVkzHrvD1q5Z6WoAygEhC0DVorNhAHG039gTrM82W69mWl+/iXOzgDJDyAJQlehsGECcNWnN4nLuQFkhZAGoOuk6G1aworPh1lm3tvGVGTt3YVkC+VKfWe3ad3A1sxVLFtnMf//N1QDEHSELQFXJ1NnwGefdQGfDAGKjU5fuTVqzpj/GBTCAckHIAlA16GwYQDkZM/40V0p6981Z9sbsaa4GIM4IWQCqAp0NAyg32wwYZnsffKyrJXFuFlAeCFkAKl7YF1ZqZ8PqC4vOhgHEmc7N8r3y3KP24fvzXQ1AXBGyAFS0MGC9Nfc5NyZJAUutWAAQZyN2P9iGjtzP1ZLUbxaAeCNkAahodDYMoNyltmbpkME1q+tcDUAcEbIAVKxH7/01nQ0DKHujDv2i9dl2kKuZba6vt2c4NwuINUIWgIqkjoYfSYQsH50NAyhXXM4dKC+ELAAVh86GAVSaMYmQ1b5DJ1czq1v2oT3/5F9cDUDcELIAVBQ6GwZQiTp27pr23CwA8UTIAlAx6GwYQCVLDVnvvjnbXp/9tKsBiBNCFoCKoGBFZ8MAKtk2/YfaPqOPc7UkLucOxBMhC0DZCwLW1WfT2XCJrVuz2pWSOnft7koAopJ6AQx1UbH43dddDUBcELIAlDUFLDobBlAtdOjzsF32d7Ukzs0C4oeQBaCs0dkwgGrT5AIYj6lz4hWuBiAOCFkAypb6wqKzYQDVZt9DvmB9t9vB1cy2bNlMv1lAzBCyAJQlBSy1YvnobBhAtVC/Wb4ZjxOygDghZAEoO5k6Gz7tnCsJWACqwuijv2odOnZ2NbOVyz+2556819UAlBohC0BZydTZsPrCUksWAFQDBax052YBiAdCFoCy0Vxnw/SFBaDapF7O/b0Fr9i8l//tagBKiZAFoCwEfWHR2TAANOi3/RDbd8zxrpbEuVlAPBCyAMReELDobBgAmtC5Wb45L/zLFr87z9UAlAohC0CsKWDR2TAApKeOiYfteoCrJU3n3Cyg5AhZAGKNzoYBoHnpLuf+6cplrgagFAhZAGKLzoYBoGX7jPm89dt+R1dLms65WUBJEbIAxFK6zoZ79xtIZ8MxlnpREt4noHjGpJyb9czjHDIIlBIhC0DsZOps+Iwf38COOwCkcfBRp1rHTl1czWzlik9s+cJnXQ1AsRGyAMQKnQ0DQO6SnRM3bs1a+vYMVwJQbIQsALFBZ8NAFjavtzYblli7tQus/aqXrcPyfwf/2ybqGq/bUZ1SL+e+ru59W/XRa64GoJgIWQBiIXmp9p80Oa9HVxEkYAFJbdcttI4poaomJXTpdt0P1afvtoNt1KFfdLWkZe/QmgWUAiELQMklA9b5QUuWT31haQCqXU39mkSAetHarZkf1HfccUc74IAD7LjjjrPTTz89+K+6xovup/vrcaguo4861ZWSVn0419bVLXI1AMVCyAJQUmHASu0Li86GgSQFpQ4rplubDcusV69e9vnPf94mTJhgo0aNssGDB1v79u2D/6prvG7X/XR/PY6gVV2G7rK/Dd/tIFdLWvbOdFcCUCyELAAlpasIpgYsHR5IZ8NAUrs1rwf/d999dzv11FNt0KBBNmfOHPvrX/9qN954o/3v//5v8F91jdftup/uL+HjUT1SL+e+7J1nbNkyOicGiomQBaBk1BeWBp+uIKgLXXCpdiB5DlbYgnXooYfa5s2b7R//+Ic9/fTT9sknn9gWqzGraRv8V13jdbvup/uHLVqco1Vd9j74WNum/1BXS7rrrrtcCUAxELIAlESmzobpCwtwNq9vOAdrzJgxwf9HH33UFi5MBKa2XWxjj31sfZ+jEsORwX/VNV63634SPi54Hq46WFVGjz/NlZIIWUBxEbIAFF1znQ0raAFIfEFvSl5pUxezCA8RDAPW+p4H2OYO/YLbQ6prfBi0wkMHw4thhM+H6qBDBtu27+RqZkuXLrXf/e53rgag0AhZAIqKzoaB7NS4UNSvXzJMvfHGG8H/jV13Tnx7dwjKoku3NwyfvW+b2/UMxof3Dx/f7rN3G9/XDahM7dp3tD47jna1pJtuusmVABQaIQtA0Sxf8gGdDVewdWsbt5R07sJhn60RtjyFIWnJkiWJ5NWmSQtWfbteQZ9Z4dBm/YdWU1OTvH9C+PiaDcsb3U/D5jZbWzpQeVJD1ksvvWR///vfXQ1AIRGyABSFgtXNV53dKGAJnQ0D6fktWZs2bbItW7ZobDDOt6VDb9vQYz9XM9tvv/2sTZs2wf31uDBk6VLve+65p3Xs2DGob+y2m23uNCAoozJ16NrHeg3eum6IrkQJoPAIWQAKLuwLi86GgextaZdsCVSLVLt27YLWqcTYYFwqP2jpfKzTTjvNzj777OBxnTt3Dsr/8R//YatXr7b169cTsKpIamvWQw89ZC+++KKrASgUQhaAggoDFp0NA7nxQ5YELVJbNlubDcl6qjBo6QIH9957ry1evNjdkrzogca98847BKwq07XPjtZtm51cLYlzs4DCI2QBKKh0nQ0P3+1AOhsGWrA5JWTtvPPOwf/2a95I3LghKKcKg5Zaq+6//3575ZVXgrD1wAMPBK1YBKzq1GfHg10pSR1Yf/jhh64GoBAIWQAKJlNnw2ecR19YQEvCkKXWp/fff9923313GzJkiFn9Wuu48vkmLVptNnySGJY2OnRw+vTp9sgjj3CIYJWrHbC3DRs2zNWSODcLKCxCFoCCoLNhoJXadLRNXZOHeSksyTHHHNMQtNqvetk6LvtnYviXdVj2RKI+KzG8ZDWbVjYKWgQsyCmnnOJKSRwyCBQWIQtA5HR4IJ0NA61X33mIbe7Qx1asWGFPP/10cNXAz33uc3booYfaNttsYzW6EMaWemtbs9m23Xbb4DHt17we/A+DFgELcuqpp1ptba2rmX388ccELaCACFkAIqUrCOpCF+n6wqKzYSB3m7qODP7PmTPH7rrrroZDB7/85S/bWWedZf/n//wfO/PMM+1LX/qSHXTQQVazcaW1+zR5JU8FLQIWRJfw13ri45BBoHAIWQAio86G0/WFpasI0hcWkJ8tbbvahl5jGlq01JmszrPSZbjfe+8927hxY/D/hRdesLfffjt4TNvP3rea+k+DMhBSKPfNmjUruCgKgOgRsgBEQsFKAUtBy6eAdcBhX3Y1APlQ0NrYY1TDOVq6GMbzzz8f9Hl06623Bv9nzpxpn3zySeKbvb1t6jI88ZhuwX2BkM7n+8Y3vuFqSRwyCBQGIQtAq9HZMFAcOkdrfe9xicC1TyJIDbPNHfoF4ze3722bOg0MDi1c32us1XcZGowHUqUeMvjwww8HraAAokXIAtAqdDaMUOpholxFskDadAzCVX0iZClsycae+1l9t10TIWywWU3bYByQzujRo+2oo45ytSTOzQKiR8gC0CrpOhvWBS7obBgA4in13Kw//OEPtmjRIlcDEAVCFoC8Zeps+Hs/v51WDACIKV2ZcrfddnO1JM7NAqJFyAKQFzobBoDyle5y7lu2bHE1AK1FyAKQs7fmPkdnwwBQxnTIYK9evVzNbMmSJZybBUSIkAUgJ7qC4M1XN+4Li86GAaC8qHPi1HOzCFlAdAhZALK2Ye1yOhsGgAqRGrJeeeUVu//++10NQGsQsgBkpX7jOlv4zM10NgwAFWLw4MH2zW9+09WSaM0CokHIAtAiBaz3X7zT1q1sfIlfOhsGgPKW2pr1yCOP2PPPP+9qAPJFyALQosWvTLGVi191tSS1XtEXFgCUt4MOOsiOPvpoV0uiNQtoPUIWgGY9+OCDtvzdxr9q6gIXOkyQS7UDQPlLbc265ZZb7IMPGh8aDiA3hCwAGV133XU2bdo0V0uis2EAqCwnnnii7b777q6WRGsW0DqELABpKWCde+65rpbUoUtvOhsGgAqU7nLu9fX1rgYgV4QsAE3MmjXLLrnkEldLatu+sw05+Aw6G0ZGqZf2J4wD5UMhq0+fPq5mtmzZMlqzgFYgZAFoRAHr8MMPt7q6OjcmGbAGjTrNOvcc4MYAACpJ27Ztm7Rm3XTTTa4EIFeELAANFi5cGByb7wcs6b/nCdaz/x6uBgCoRGeeeaYrJb366qt23333uRqAXBCyAAQUrBSwFLR8xx9/vPXe4QBXAwBUqkGDBtm3vtW470MOGQTyQ8gCEAQsfbHqUEHfD3/4QzvkkENcDQBQ6VIPGXzsscfs2WefdTUA2SJkAQiuIjhlyhRXSzr99NPt5z//uasBlaXNhiXWfsUz1nHpY3bmUR2D4aQD2wfjy4E//aL/qpfL9O/Qr03D9IdDOU1/JTvggANswoQJrpbEuVlA7ghZQJVTwLr11ltdLWnvvfe2a6+91mpra90YoHK0Wzvf2q962drUrw5O9u/QoUPwv0/3xI5/Yrxuj7NM0696OUz/wTu1swl7JQJtmU5/NUg9N0vfEe+9956rAcgGIQuoYuoLS4NPAevJJ58kYKEiqaWk7drkeYejR4+27373u/btb387+K+66Pa4tqiU+/SrBWvPwW2DcjlOf7U44YQTbM8993S1JM7NAnJDyAKqlH6ZTO0La8iQIcGVpAhYqFRt17wV/NcO/V577RWUQ6o37Oi7+8VNuU///kO3BqxynP5qku5y7ps2bXI1AC0hZAFVSBe40GGC/qXaFaxuueWWIGgBlSo8RC11Bz+k8eGha3FU7tOvQzLLefqriUJWv379XM1s+fLltGYBOajZkuDKyNPFF1/c0CKgTlz9HtMRvfnz51vN8MaXmEX21q1cZAueut7qN65zY6yhs2H6wkJrLHnr37b4la0XUOk3fFzQx1qc6AIXOgdIh6hlotbcjz76yNXip1qm/6Z/rndjEIXt1jxi3bt3d7XszJ071+bNm+dqZj169LCjjz7a1ZBqzpw59vrrrwdlXTykW7duQRmFoX7c3njjjaC8YMECGzp0aFCOC0JWBNS3UOqV2VBYe33pWldCLjasXR4ELP33KWDRFxZaq1xCllpKdA5QJr/73e+svr4+ljv5TD/yNftv57oSUHmmTp1q48aNc7V44HDBCNTU1LhSssxQ+AG5U8vVwmdubhKwtttlAgELVWPZ6s3BDvzs2bPdmMY0XrfrfnHE9CNf6b5LsxnSSXc/hsbLKt3tDNEOcUdLVgR0dTad3yLTpk2zMWPGBGUUxjXXXGO3zUiePC2nn3q8KyGTdWtW2Z2/Pd9enfm4G5M07rhv2QnfvNDVMrv1rgddieVdaOW8rB+999f2SGIITfjKD+yYxBAnumqdLhMuqRdf0A7+jBkzgvLGHvvY5g5bz0eJi3Kf/if/9VBw+XYpx+kvN/725K7LJtjIkSNdLXszZ84M+s7y6X06+OCDXQ2hCy+80CZNmhSUdWrDiBEjgjIK44ILLrDJkycH5TgeLkhLFlAFpvzxsiYB64DDvmzHnPR9VwOqg3bc67skL+6iHUUdmvaHP/wh+B/u4Ov2uO7gl/v0v7tks73yXn1QLsfpr0b777+/fe5zn3O1JC6AAbSMkAVUOAWs56f+1dWSBgzZJWjB6ty1hxsDVI9NXXZKtpS07R4cmrZhw4aGQ9Q0XrfHWabpV70cpv+Z+Zvskdkby3b6q1Hq5dz/9Kc/2cKFyf7aAKRHyAIq2L8fuiUYfApY3/v57QQsVDW1lGzsdbCt75u8UpousvCX5xI7/mXSguJPfzioXi7TrxYtf/mX2/RXmy984QtBR/U+9ZsFIDNCFlCh1Hr16F9+42pJClZn/PgGAhYAICdnnnmmKyXpkEG1QgJIj5AFVKBFC+cFhwnqghehIGCdd4P17jfQjQEAIDs6ZHCbbbZxNQs6s+fcLCAzQhZQYRSwrr/ka00C1mnnTLbhux3oxgAAkJvUc7M4ZBDIjJAFVJDlSz6wm686u1HAEl3kYo/9x7saAAC5Sw1Zr732mv3lL39xtaT1GzbZ48+8abf//WW79k9P28RfPWL/5+d/tRO+/0cb8/XfBoPKGqfbdB/dV4/RY4FKQcgCKkTYF5aClk99Yely7QAAtMb2229v3/nOd1wtSYcMLl+51qY8MdfOnfygHfy16+3HVz9kV93yb/vj/S/aw0+9bjPnvG8LF6+wNes2BIPKGqfbdB/dV4/RY/Uc9/1rTvCcQDkjZAEVIAxYb819zo1JyrazYQAAspHamvWvf/3LDvzif9vF1z9uTz6/wDZv3uJuyZ0eq+e45Lf/tCPO+J2decnf7I6HZrlbgfJCyAIqAJ0NAwCKYdSoUXbAweNcLWnZO8mOpEPtOnS1zt23ta69Blr3vkOt57Y7W68Bu1vfwfsEg8oap9t0H91Xj0n13Cvv2ZU3T7WTzr3NHpn2hhsLlAdCFlDmHr3313Q2DAAoOB3id+bFf7UlNSPcmKQV771gmzett269BlnvgXtYr/67Wrc+g61Lz+2tU7c+1qFzD2vXvrPVtGkXDCprnG7TfXRfPUaP1XO079TdPXPSW+8tswuu/Ufw2poGoBwQsoAypo6GH0mELB+dDaNU1q1d7UpJnbo03lECUJ7qVn9m/33dP4KLVTz36vvWY7vdrHPtAHdr0qoPX7XOPbeztu06uTG502P1HLXbjbQ+g/a2br0HWZtEKAvptTUNmhZNExBnhCygTNHZMACg0Oa9/Yl966f32D+ebny43va7HutKSYtmT7HNm6LrnLhN2/bWucd21nvgnongtb0bm6Rp0TRp2oC4ImQBZYjOhgEAhfavZ9+y0y+8x975YLkbY9axa1/rPWBPG3rQN61D195urNmmDWvsg1fud7Xo1LRpa916DQxeU68d0jRp2jSNQBwRsoAyQ2fDAIBC+/ODL9t/XfX3hr6rampqrEe/4YlhR2vbvmMwbuCeJwT/Q4temeJK0dNr6rU1DZoW0bRpGjWtQNwQsoAyomBFZ8MAgELSFf2uvvXfrqaA0yk4T6pj115uTFJqyFqz/F37eP4TrlYYmoba7XYJpimkadU0A3FCyALKRBCwrj6bzoYBAAXz5wdfatQ3VfvOPYKA1a5jNzdmKx0uOGDPL7ha0gezC9eaFWrXsWswTR0693RjLJhmTTsQF4QsoAwoYNHZMACgkJ564W27+tanXM2sU7d+VrvtzsFFKDJJbc1a8f5LVrfoFVcrHE1Tz213CqYxpGnXPABxQMgCygCdDQMACundxSvsot885mpm7Tv1sO59h7haZt232cn6DR3jakkfFPDcrFSaRk1rSPOgeQFKjZAFxJz6wqKzYQBAoWzZYvbTXz9qKz9N9j3Vpl1H69F3aFDOxoA9v+hKSR/Ne8zW1S1ytcLTtGqaRfOgedE8AaVEyAJiTAFLrVg+OhsGAETpkt8+bq+++ZGrhaEl8yGCqfoOHW09tt3Z1ZKK2Zqlae3Rd0dXs2BeNE9AKRGygJjK1NnwaedcScACAETitQUf25Qn5rqaWfc+Ovyu6UUuWjIg5dws9Zm1edN6Vyu89p26J6Z9B1ezYJ40b0CpELKAGMrU2bD6wlJLFgAAUbj5by+4UvJqgZ26b72QRC4G7HG8dey2tbPg+g1ri3KlQV+n7ttYR6+DZH/egGIjZAEx01xnw/SFhThL7b+NFlcg3p579X3757NvuppZ157bu1J+Us/NKuYhg6HOPbZzJQvmTfMIlAIhC4iRoC+sNJ0N6yqCBCwAQJRu+dtMV0qEk+79rF2HLq6Wn9TLua9d8b59/MY/Xa042nfsap28FrWbvXkEiomQBcREELAydDasAQCAqKiV59lX3nM1tQC1rhVLOnTp1SRo6dysYuvas78rmT2XmEe/tQ4oFkIWEAMKWHQ2DAAoln88/YYrmXXpsZ21bZ+8BHprDdir8SGDK95/2VZ8MMvViqNNYl40TyF/XoFiIWQBMUBnwwCAYqmv32xPv/iOq+mCEfld7CKd7v1GWL9hh7ha0qISnJuli2CENK+aZ6CYCFlAidHZMACgmJ5+aaFt2FgflHUeVtv2nYJyVFIPGfzo9X/a2hWND4UvNLXMtevQOShrXjXPQDERsoASStfZcO9+A+lsGABQMH4rVscuta4UnT47HmQ9tmvc3UgpWrM6dunlSo3nGSgGQhZQIpk6Gz7jxzcQsAAABTPtpa2Bo33nnq4UrYFpLudev/EzVysOf978eQaKgZAFlACdDQMASmH264vt42WfBuU2bTtY+47dgnLU+u/+eevYbeu5XgpYxe43S/OmeRTNs+YdKBZCFlBkdDYMACiV+e8udSWzmjaF3Q0cuFfjc7NKccigP4/+vAOFRsgCiih5qfafNApYQmfDAIBiWLpijSuZdeza25UKQxfAqKnZuqupi1/oIhjF5M+jP+9AoRGygCIJ+8JSS5aPzoYBAMWypG5r0GjrDqUrFJ0TNSDl3Kxit2b58+jPO1BohCygCMKAldoXFp0No5KkttByARcgfpauWOtKZjXt2rtS4aRezl0dE6uD4mLx59Gfd6DQCFlAEegqgqkBS4cH0tkwUBptNiyx9iuesY5LHwvqZx7V0U46sH0wHoW3Q782jZa//qvO8i+8JcuTF72Q8KIQhdSpx7bWa9C+rpb06kM/s+du+5bNn/prN6Zw2rbdGrL8eQcKjZAFFJj6wtLg0xUEdaELfukHiq/d2vnWftXL1qZ+dWIHrK116NAh+N+ne2LHPzFet6NwDt6pnU3YKxFoU5a/6iz/wlvinZfUtk3rWrI2rf/U1q36MGiZWjz3YXvvpXuC4PTivd8PQtTU6ycEw4r3X3KPSNqwdoWtXvJm8NhCa+OHLM7JQhERsoACytTZMH1hAaWhlpK2axcG5dGjR9t3v/td+/a3vx38V110Oy0qhaEWrD0Htw3KLP/S8C/+0KaFwwUVohSGlrz1dBCg3n7mZnvt0UlBgJr++6/YtN+fFPxXqNJ4BSzdT6FLj9Pjm1OMwwb91joufIFiImQBBdJcZ8MKWgCKr+2at4L/2qHfa6+9gnJI9YYdfXc/RGv/oVsDFsu/NPr26upKalGqaxSi0rVCqTz7gf8OblPIUotV2ArVUoiKg82bNrpS43kHCo2QBRQAnQ0D8RQeopa6gx/S+PDQNURPh2Sy/IunfuM6W7dyka1c/Kr96U9/snPPPdfmPH6dzf/X1TbnwYn21I2fbxSicmmFyla7jt2se78R1m/4oTZ435Ntp8N+YKO+8hs78D9usUO+8xd3r8Kp37w1ZPUjZKGICFlAxJYv+YDOhoEY0058c/r16+dKKASWfzT0HaPvm7fmPhccOREenq7vn6t/crxN/Na+QZBSoFr47M12+eWX23XXXWcfv/daELwUwKLQXIg67HuPBIPKe33h8uA23afXoH2Cx+ixhba5foMrJdat3oV/PSBEyAIipC+9m686u8mlrOlsGIiP+vp6V0pvyRLOByokln929D2ioyJ0ZVoFqEfv/XXQFYgC1KXfO8wu/c/EkPivUKXxCli6n0KXHpf6PZQPhaDOPbYPQlH/3Y6NZYhqyZZGhwt2cSWg8AhZQET0hUZnw0C8bW7bPdjJnz17thvTmMbrdt0P0Vu2ejPL30kNUamtUBpU1g93uu2RRMhSi5UeoxasSEJUh66NWqGGHnyG7XrMxCA0jfnOvcHhfPqvUKXxcQxRLan3W7JqOVwQxUPIAiIQBiw6Gwbirb7r8OD/jBkzmuzoq67xEt4P0Zr5drIVqxqWf64hKupWKGnbvrN17jnAevbfw77xjW/Ytddeaz+/8ve205Hn2e7HT7I9T7y6USuUQpZarBSg1IJVDiGqJevXLHclLnyB4qrZkuDKyJOOcdbJpDJt2jQbM2ZMUEZhXHPNNXbbjK3H9J9+6vGuVDrhF6Rv+G4H2hnnVcal2m+960FXisfyrmTlvKy1s+j/0KAracbxMFn1wxRexl3nB2lQ64kGqe8yxDZ12SkoI1pav9VPVngZ93Jd/gpB69ausuWfLGpoVVqxdHEiIL0WlJcvWRRZUGqOvl969xsQXLG29zYDrVff/jZgyK4N4+9+8N/unmZ3XTbBRo4cabNfX2zfvPCeYJwub95nUPqLkFSKZe/Pbjgv64+XnWx7jewflAvhwgsvtEmTJgXl+fPn24gRI4IyCuOCCy6wyZMnB+UFCxbY0KFDg3Jc0JIFtJLCVWrA0hUEKyVgAZVGO/Abe+zTcOjghg0bgv86lE3jCViF9cz8TfbI7I1Nlr/qcVn+Ckh+K1QpzodKBqWBwQ92Bxz25YYjI77389vtvCsftEm3vBQMKusHDd2m++j++g7K9P2jkLFtn2QLlcLHxjK4DHu+NG9hwNI8FzJgAakIWUAr6EtVX64+OhsG4m9zh362sdfBtr7v0UH9pn+ut788l9jxT4xH4b27JBFoveWv/6oXa/mnhqiWDuUrxPlQ+o5QGFJrbxigdBVahaaLrp9qF/2/xJD4r1Cl8dmGqGwcsu+OrpQIIutWulLl8efNn2egGAhZQJ705Uxnw8BWOnzK17kLPzSgNHINUVG3Qkm6ENVSK5RarPQYfYcU8oe6Q0dtDRzr165wpcqzfm2dKzWeZ6AYCFlAHvRFrENE/C9jfSHS2TAAFJa2uy31D1XoEKXtfT4hKopWqCgcuu8Q69A+eV7cpg3rrH7j+qBcSeo3fpaYt7VBWfOqeQaKiZAF5Ehf7vriTv2i1pcofWEBQOto25raClXq86EmfOUHjUKUDuWLc4hqSdu2bRq17Hy2+hNXqhyfrd7a35rmVfMMFBNrHJADfXkrYClo+fQFqy9iAEDz6jeus3UrFzWEKGmpFarU50MdkwhZ5RSisvG5Q3d2JbO1qz6yzRXUmqWWOc1TyJ9XoFgIWUCW9MWuX031Re/TF68GAKh22k5qSG2JCkPUnAcnBsP8f13dEKKkms6HioujDhphB+452NXM1qxc7Erlb92qD13J7KDEPGpegWIjZAFZCAOWdhp84Zc3AFQDbQv986F0aXM/ROlQvubOh1IrVmspAOUToiqpFSoqZ3xpf1cy++zTpbZx/RpXK186D2udd6jgt7x5BIqJkAVkQVcRTA1Y+rI+5qTvuxoAlL90rVDNnQ+lS5v7ISqKliiFoEo+HypODtxjUKNWnnXeIXblas3Kra1YQWtdYh6BUiBkAS3QDoQGn77I9YXPlzmAcpIuRBX7fKi27Ttb554DGlqhpNrOh4qTM760nyuZrV+zvKwvgqGLXWxIzEPInzeg2AhZQDPCnRCffmHVr6d80QOIEwWgfEJUMc+H2v34ScGw05HnNbRCSbWdDxUnuw7b1k44YjdXM1u97F3b+NlqVysfGz/7NDHtC13NgnnSvAGlQsgCMtCOB50NA4gLhaDWnA8VRYjSNrC5ENXS+VBqxUL8/Pyc8bbHiO1czWzV0nds86aNrhZ/mtZVS992NQvmRfMElBIhC0hDOyQ3X924LyztWNDZMIBCSdcKxflQKIaaGrNf/OAY69mtU1DfvGl9o9ASd5pWTbNoHjQvmieglAhZQAr9UqxfgVN3WLQzoV9uASAf6UJUsc+HStcKxflQkB3697JLv3+0q+nwu1W2eunWw+/iStOoaQ1pHjQvQKkRsgCPdmK0g6MdGp92ROhsGGheagioph1yzXs+IaqY50NlOpSP86EQGrvfUDvv9LGupsu6L7GVH8+3zfXxO3RQ01T38RvBNIY07ZoHIA4IWYCjnRwdgqMdHp92QjQAqF7aPsThfCgFoVxDFK1QyMXXj9/Xvnrc3q5mtmHdSqv76HXbFKM+tDat/zSYpo3rtn6uNM2adiAuCFmAo50i/QLt0y+89IUFVD51krtu5aKSnw+lMNTc+VA6lI8QhUL7yRmH2Xmnj3M1fT4+S4SaebZ+zQo3pnQ0DQpYmqaQplXTDMQJIQtI0A6Vfp32aadFOzHsuADlTyEo06F8MufBiTb/X1eX/HwolTkfCnHw9eP3sWt+/Hnr2KFdUN+yZYutWvJWYngnEXCSF5koJr2mXlvToGkRTZumUdMKxA0hC1VPO1MafNqh0Y4OOzVA/IWH8mUKUS2dDxWVdCGK86FQzo48aLjdetnJtuPA3m6MWpKW2vJFr9inKz6wLZvr3djC0WvotfSaeu2QpknTpmkE4oiQhaoW7oz5tLOjnSB2eIB4CFuhmjsfSofyZQpRUbVCcT4UqtEuQ7exW35xsn3u0J3dmKR1Kz+05R+8YutWfVSQC2PoOfXcwWskXsunadE0adqAuCJkoWpp54vOhoHSS3coX+r5UCoX8nwodZLbuecAzocC0qjt3sku/+Hn7H8v+bIduMcgNzYRhDZvsk+Xv2/L3p8VnCe1buVHVr9p67lSudJj9Rx6Lj2nnluvEdJraxo0LZomIM4IWahK2jHTDpu/c6adJDobBqKXLkS1dChfMc+Hkl0mXGQ7HXke50MBzdh/90F208VftivO/ZwNH9zHjU3a+Nlq+3TF+7b8g1dtxeLX7NNl79nalR/aZ58usw3rVtmmjetsSyIwaVBZ43Sb7qP76jF6rJ5Dz+XTa+k19dqaBqAc1GwJzx5E3q677jo799xzg/K0adNszJgxQRmZvfrmR/bmu0vtk+Wf2pLla2zpijWJ/4ly3drgf7/e3axfry7Wt7Zrstw78b9XV9tpSD977IHb7bYZbd0zmZ1+avLE9Wxpp+36i78e/Pdpx0q/YKOpW+9K7ohKrssbuSm3Za0AtG6t+ohabbdcfbYt+2Tr52qb/kNt9cqlkYSkligE9e43IGiF7r3NQOvVt38iHO3aML65kNRx6WN20z+TJ/KzfhdWuvVby399362d4CI6/vK+67IJNnLkSFeLxh0PzbJ/v/C2PffKe25MtA7cc7CN229oo0vKx9mFF15okyZNCsrz58+3ESNGBGUUxgUXXGCTJ08OygsWLLChQ+PVRxohKwKErOxMf3mhPfXiO/Z0Ylj8Sf47Xd06mX3qHY2Qy06Rdvb0C7p+Iffp0CD9co30CFnFE7dlrc/M8iWL3P8PbIXKa1cnPkOvNbqtkBSQOndJDF275xWiWkLIKh5CVnEVOmSFlq9cG4Stp154J/i/eXPLu5btO3a3LVvqbdOGtW6MWZs2NUGoGrf/UBs7akfr3bOLu6U8ELKKi5BVBQhZmSlYPfTU64kN79v26doNbmy0st0p0o6gzufQIUu+8NAhZEbIKp5iL+swKClALf8kEaKWLg7GJUPUatdKVfgQFQalIEQlyp26dI8sRLWEkFU8hKziKlbI8q3fsCn4QfWTZZ8mj1YJjlRxR6skyqIjU+o7DbY27draYbvU2Da9u9k2fboFwSq8ZHw5ImQVFyGrChCymprz5kf2+7/NtKnPL3BjGmvTtr21adPWOnbtbTUqt+1gbfW/XfvEWpnYwG7ZZJs3bbT6+o22uX6DbUn8X79muW3eXN/kKkbZ7hQpYKX2haXDAxWwCrkDVwkIWcUT9bJOF6KK2QolYVDyW6E0LhmiurtWqtJ9BglZxUPIKq5ShKxszH5rpZ13w5ygfOOP9rZhA7oG5XJHyCquuIcsLnyBSL3/0Uq7+PrH7esX3NUkYLVr39m69NjWarcbaX0G7W29BuxhXWoHWOfu21jHLrXWrmPXIGy1adMm+K+6xut23U/31+P0+FzpZHo6G0alSQal/PuHiipgJQPTLtahY2c3Jum7//17+ocC0MRtj73vSmZX3f2mKwGVhZCFyFz7p6ft+O8ldvKemOvGJCkk9eq/eyIk7W5dew+29p26u1vyk+vjtVOpwaedOzobRtwpBCkMlUv/UN16NL7a2LYDh/MZA9CIWrFmL1jpamYLFq0JBqDSELLQais//cy+P+l+++P9L7oxSR279A7CVbc+O1i7Do1/4S6WYMc0pS8s7TDS2TDiIAxRfivU+y/eafP/dbXNe+TSovQPpc+BAhT9QwEoBr8VK0RrFioRIQut8tqCj+30iXcHVwwMdejU3Xpuu7P12GZYycKVaCdUO63+jqh2CHWpdgUtoNDShaiWDuVb/u7ztm7lItuwdnmkISpd/1AKTwpRKtM/FIBCS23FCtGahUpEyELeHp0+37458R57Z9EKN8asa69B1nO7kdahc2l3zLRjq53ZdAFLO49Aa2nditP5UC0dysf5UABKLV0rVojWLFQaQhbycvN9M+38Xz5sGzfVJ0fU1FiPfsOtS8/tkvUS0o6vdmpTd2K1g6kdUSAbWn/CAFUO50NxKB+AOMvUihWiNQuVhpCFnKkF69d/nu5qZm3bd7Ze2+9qHbv2cmNKRzu22uFV0PLpPBP9eg+E/BAVtkLpvKcgQCXCk98KVejzoRSgwvOh+u95gg079Hu205HncT4UgIrRXCtWiNYsVBJCFnKic7B++utHXS2xArVpnwhYu1i7DqXvlV07vdoZ1g6wTzulOs8E1SVdiGrpUD61WOkxqSE9X36ICluh/POh/Fao8HyofsPHWbd+w61zz8J2wAsAxdJSK1aI1ixUEkIWsqarCF74q0caDhFs276T9R64h9W0aRvUS007ytqh9ql14JiTvu9qqBQKUJVwPhQAVINsWrFCtGahUtRsSXBl5Om6666zc889NyhPmzbNxowZE5QrjS7THl5FsKamjdWWsAVrycKZrmR2+qnHB+fL6HAun3ZktcNLa0Dr3XrXg66UXN6FlgxRi4IgpfKKRHnd2tWJgPRaw21RBaVMtN507pIYunYPAlHvbQZar779E+vVrsFtvfsVpqWp2Ms6SjrM0m8FVGtdXMNkmw1LrO2at6xN/Wo3xmzZ6s3WY8Ao29yhnxsTX+mmf3Pb7lbfdXispz9cv3fo18aO3rd32U1/ufG3J3ddNsFGjsy9M//WUivWeTfMcbXs3PijvW3YgK6uVj4uvPBCmzRpUlCeP3++jRgxIiijMC644AKbPHlyUF6wYIENHTo0KMcFISsC1RCy1NGw3w+WLnJRynOw/JC1Y/elQUuFj4AVrah3/P0QtfyTD2zF0sXBuGSIWt1oR71QwqAUXmFP5U5duhc8RLWEkFV47dbOt7ZrFwbltm3bBkN9fX0wSH2XIbapy05BOY7Kefq1fh+8Uzvbc3DyCIhyXP7lJA4h67zfzsnqUEGfApaCVrkhZBUXIasKVHrIev+jlXb8925xteRl2kt9FcEwZKlPoaWvP9SoVUM7xudd+UAsd+7KVa47/ulCVDFbocQPUWErlMYlQ1SydSqOCFmFpRag9qteDsqjR4+2vfbaKyjL7NmzbcaMGUF5Y499YtmiUu7T/+S/HrIJe7UPyuU4/eWm1CErn1asUDm2ZhGyiivuIYtzstCiP/z1eVeyoP+rOFymXdRh6+JXpjQJWGecdwMBq4CSQYnzoVCedIidpO7gi+oaL+H94qbcp3//ockWrHKdfuQml3OxUnFuFsodLVkR8FuynnrqqYYviUow962P7RsT73E1s57b7lzyjoblvdlTbMFT11v9xnVuTHKnW1do00438he2NilIqazzoV58eXYQaus3rLMNa5c3Wu6FoG4BwqFD197WoUtva9+lV3DFvbYdEuMSdd1W6cqtJUvh2g/RCrr6XMZJx6WPBYenffe733Vjmvrd734XHLp20z/XuzHxceZRHZl+5OX2/xlfksMF05nwk2ddKemRKw9ypfJ20UUX2eWXXx6U582bR0tWgU2cONGuvPLKoMzhghXqxBNPtClTprhaZRly8Let5/a7B+WOiR3bHtsMC8qltG7VhzbzjjODnX3foFGnWe8dDnA1ZKKApGW3YU1iSPzfuHZFMG5dXSJEudsKLQhPifVJASost2nfqepCVKWZ8+DERgF89+Mnxe591E5+hw4d7Nvf/rYb09R9991nH330kavFT7VMPyErWrP/lvwxOA6O+tE0V0r65y8PcSUgP1OnTrVx48a5WjwQsiJQqSGrx3a72I6jt/7a2Kv/7tYusQNcSpvWf2qzH/hvW/F+8pyEkPoWUieuSB+iitkKJX6I0n+1Qmlc59pEiHK3ofKUS8iiJah0aMkqHUIWKhkhq0Jdeuml9rOf/SwoH3XUUda3b9+gXO4WbRpmqzYn56Vz922sW58dgnKpKGDNffQyW/LW025MUjUFLO3AhkMpQ5R+ie7atWvD0KVLF+vVq5e1b98+qOt25GfehgNdqfyUQ8g66cD21qd7m7TnBEl48YVPP/3UXnrpJTc2Pvbdd1/r1q1b2U7/rrvuGnxHluv0l5tXX33V5s6dG5SPPfZY69EjHofvLu3/n66U1Hfx/3Ol8vbKK6/Ya6+9FpSPO+446969e1BGYWh7ocMyhcMFK1SlXl3wkP/4rX26dkNQjkMr1muPTrLFcx92taT+ux1rOx32A2vXsZsbk5tNiWCyYnHyykfdunSwabedE5RLpa6uzhYuXBgMKr/77rsN9XCchkKqra1tGIYMGWJLly4N1mu5/fbbgy9q3YbC0PH8Os5ctJO5zz77BOVyoKDtr58rVqyI3bqiz9TDDye3I6k7+v7V7bSe77BDaX9YSqfcp/+KK66wnj17BuVynP5yox+A9UOwaGc0Ludkjf+v6a6U9Pg1lbHfxNUFi4urC6IsTX95YUPAate+c8kD1nsv3dMkYHXvN6JVAUs0X+3adwrKml/NdyFpB3TWrFnB4aVhONfhptqR1g6qBpU17lvf+pZdfPHFduuttwbN4GHIai3t9O699952wgkn2Omnnx68xi233GJPPvmkvfPOOw3Dyy+/HJwbcfzxWy++sNNOOxGwUNa04671X7RDr0PT/vCHPwT/wx183R7XHfxyn/7169fbv/71r6BcjtMPANkiZCGtp1/cGjZKfTVBBaz5U3/takkKWKNO/k2rAlaoQ5etoeGpF99xpfykC1GHH3542hCl23Qf3VePiaqFyg9RP/zhD+3aa68NQpRCk8KTWhfCAKXxP//5z4OwddhhhwUtV4QoVLqDDz44aCnp06dPcO7Phg0bgv861FXjdXucZZp+1cth+v/617/aDTfcECzvcpx+AMgGIQtpPfXi266kENLLlYpPrVdvP3OzqyUpWO35xUmRBCzp0GlrqHi6mZClEKTWpFxDlFqhCh2i1Aql4KQA5Yco3ab7KETpMQpRAJItQieffLItW7bMzjnnnGAopxaUcPrPPvvshkH1cpl+nSs0atSosp1+AGgJIQtNvPrmR7b4k2RfN23atrf2nUpz4ubqJW8GLVi64EVIwWqvL1xunXts78a0XvvO3YP51An7C96cZ7/67S3BIXqXXHJJcMieQtSOO+7YMBQyRClAKQjlGqLUCqXH0AoFAABQeoQsNDF/4RJXSqwgbZK98xebAtaL93y/ScDa7ZgLrdeg/C4EoOfS8+rqhOEhiLoc/HO3fctemfLj4Mpo8/91tf3we2fE5nwoQhQAAED5IWShiSUr1riSWceuxe/PSGHolfsnNgpYootc9Bt+qKs1lS5EvXjv94MQNfX6CcGgsoKVbtN9dF89JqrLnqc7lI/zoQAAAKoLIQtNLFm+NWTVtG3vSsWhoKQQtG7Vh25M0sC9TgxasHINUeq0WI9JDWz5SheiOB8KAAAAPkIWmliyfGsgadO2eJ3KBi1Yf78oCEa+dh262kevP27Tf/+VgoYodZraoUtv67v9jpwPBeQh9ZBaPhMAgGpFyEITS+u2tmS1LWJLllqvlr8709W22rRhTSQhSud06dLvOuRQnRgPPfgM2/WYiTbqK7+xg77xJ9tlwkXBMP5rvyBEAQAAIG+ELDSxZMVaV0qsIO2KF7IUgA78j1tcLXd+iBq878nBOVwKUHrOw773SDCorKsTKlwpZCls6TDELr0GBi1ZsqRu6/wDAAAAuSJkoQn/cMGaNsU9J0shqWO3vq7WWC4hSrfpPgpQeowe26yadq7QeP4BAACAXBGy0ES/3lsDyZbNm1ypeAbs8YXoQ1RLtmydT3/+AQAAgFwRstBEv9ourmS2uX6jKxWPDuOLPES1YPOmrfPZr9fW+QcAAAByRchCE35LzuZNG1ypstV7YbJvbVdXAgAAAHJHyEITfXttDRmlaMkqhc31W8MkhwsCAACgNQhZaKJf7+oLWVu8+fTnHwAAAMgVIQtNbOO15Kxfs8yVKtv6NStcSedkEbIAAACQP0IWmhixw9ZLqG/eXO9KlW2zdxXFnYb0cyUAAAAgd4QsNLHHiO2s/zY9grIOF9z42eqgXKk0f+FhkZpvzT8AAACQL0IW0jp01I6uZLZh7dZD6SqRP39jRw11JQAAACA/hCykNdYPWetWuVJl8ufv0FFDXAlALurq6lwpqba21pUAAKg+hCykNWafIdatS4egvGnjOtu0YV1QrjSaL82faH413wAAAEBrELKQ0dj9th4699nqT1ypsvjz5c8vAAAAkC9CFjI6buxIVzJblwgjmzasdbXKoFYszVfIn18AAAAgX4QsZKRD5w47YJirma2t+9CVKsPausWuZMF8cqggAAAAokDIQrO+86X9Xcls/drlFXMRDM2H5ifkzycAAADQGoQsNGv3EdvZCUfs5mpm61ZVRmvWupVbW7E0f5pPAAAAIAqELLTo218+wJWSLUBrV37kauVJ07/B62DZnz8AAACgtQhZaNGg7XraN784ytXM1qx439avKc8OijXdmv6Q5kvzBwAAAESFkIWsnPuNQ+1Qr4Pi1UvfLrurDWp6Vy1d4GrqeHjHYL4AAACAKBGykLVf/OAY23FAr6C8ZctmW7XkbduyuT6ox52mU9ObmPCgrvnQ/AAAAABRI2Qhaz27dbLL/u8Ea9+ubVCv37jOln/wauyDlqZP06npFU2/5kPzAwAAAESNkIWc7Dps20YtQJs3b7QVH86L7aGDmi5Nn6YzpOnXfACITl1dnSsl1dbWuhIAANWHkIWcHTNmJ/vB18e4WrJFa8WHr8XuYhiaHk1X2IIlmm5NPwAAAFAohCzk5YwT97fJPzq24dBBneu0aslbsbm8u6ZD0xOeg6Xp1PRqugEAAIBCImQhb2oR+uOkkxsuhiG6PPrKj14P+tMqBb2uXt+/TLumT9NJCxYAAACKgZCFVtG5TbdOOqXR5d3V0e/Kj9+wVZ8ssE0bth6qV0h6Hb2eXtfvaFjTpenjHCwAAAAUCyELraar9P1m4hcbdVgs69cutxWL59iny94tWNjS8+r59Tp6PZ+mR9PFVQQBAABQTIQsREYd+z54/bfshCN2c2OS1q3+JAhBKxbNsTXL37ONXktTPjauWx0cDrhi0avB8+r5fXp9TQcdDQMAAKAUCFmI1KDtetrF3xtvf77iVDvsgGFubNKmjets7aqPre6j123Z+7OC0LW2blEQktavrbNN69fY5voNtnnz5uC/6hqv23U/hSo9ru7j14MLW2za+Jl75iS9nl5Xr6/pAAAAAEqBkIWC2H3Ednbd+cfb9T89wY4dO9K6dengbknaXL8xCF1r6hYHh/ut+uTN4HLry96fbcveezH4r7rG63bdT6FKj/N17tg2eH69jl5PrwsAAACUEiELBTVmnyE26f9OsGm3nRMEoVM/t7f136aHu7Wp9h27W7sOXVwtPZ1itfTtafb29Jvs2h/sHzy/XgcAAACIA0IWikZB6ILvHGYP33CG3XbFqXbRWUfaWaccZF8ev4eNHbWj7TpsG+u1zWDr3ndH69e7m+06dBsbt9/Q4Hbd72dnHxU87sR9623RrL/a6o9fd88MAAAAxAchCyWxx4jtkuHp5IOCsPXriV+08797nG1p2yVoybrx4tPsjqu+ar/67y8kw1jifl86avfgcQAAAECcEbIQG7c9trUD4avuftOVAJSDuro6V0qqra11JQAAqg8hC7Ew+62VNnvBSlczW7BoTTAAAAAA5YaQhVjwW7FCtGYBAACgHBGyUHKprVghWrMAAABQjghZKLl0rVghWrMAAABQbghZKKlMrVghWrMAAABQbghZKKnmWrFCtGYBAACgnBCyUDIttWKFaM0CAABAOSFkoWSyacUK0ZoFAACAckHIQklk24oVojULAAAA5YKQhZLIpRUrRGsWAAAAygEhC0WXaytWiNYsAAAAlANCFooun1asEK1ZAAAAiDtCForu6nN2t8evGdNkSJXuPjf+aG93K4A4qaurc6Wk2tpaVwIAoPoQsgAAAAAgQoQsAAAAAIgQIQsAAAAAIkTIAgAAAIAIEbIAAAAAIEKELAAAAACIECELAAAAACJEyAIAAACACBGyAAAAACBChCwAAAAAiBAhCwAAAAAiRMgCAAAAgAgRsgAArVZXV+dKSbW1ta4EAED1IWQBAAAAQIQIWQAAAAAQIUIWAAAAAESIkAUAAAAAESJkAQAAAECECFkAAAAAECFCFgAAAABEiJAFAAAAABEiZAEAAABAhAhZAAAAABAhQhYAoNXq6upcKam2ttaVAACoPoQsAAAAAIgQIQsAAAAAIkTIAgAAAIAI1WxJcGXk6brrrrNzzz03KF988cW20047BWXk5uYXBrtS0hn7vedKjT300EN2++23B+X/+Z//seHDhwdlFMaDDz5od955Z1D+xS9+YUOHDg3KKIz777/f7r777qA8adIkGzJkSFCOu6eeespuvPFGVzMbO3asnXXWWa4WX/fdd5/de++9QfmKK66wwYMbb4cQrb/+9a/BIFdeeaUNHDgwKKMwtG5rHZerr77a+vfvH5RLLdvv+3Kjbbe24fLLX/7Stttuu6CMwtC+ifZRZMGCBbHbPyFkReDEE0+0KVOmuBryddSPprlS0j9/eYgrAQCASsH3PaI2depUGzdunKvFA4cLAgAAAECEaMmKgH+4oA7vGTlyZFBGbn47bRtXSjrnkE9cqbEHHnjAbr311qCsw3s4PLOwdKjJbbfdFpSvuuoqGzZsWFBGYehQqvBw2GuuucZ23HHHoBx3TzzxhP2///f/XM3siCOOsP/8z/90tfjS4VTh4bDXXnut7bDDDkEZhaHDqcLDYX/1q1/ZoEGDgjIKQ+t2eDjsb37zGxswYEBQLrVsv+/Ljbbd4eGw119/vW2//fZBGYWhfZPwcNg4Hi5oClloncQXs4JqMEybNs2NRa6O+tG0RkMmV199dcPyfuaZZ9xYFMrkyZMblvfMmTPdWBTKpEmTGpb3Sy+95MbG3y233NIw3RpOP/10d0u8XXrppQ3TPHv2bDcWhXLxxRc3LO85c+a4sSiUiy66qGF5z5s3z40tvWy/78vNxIkTG5b3/Pnz3VgUyvnnn9+wvBMhy42NDw4XBAAAAIAIEbIAAAAAIEKELAAAAACIECELAAAAACJEyAIAtFpdXZ0rJdXW1roSAADVh5AFAAAAABEiZAEAAABAhAhZAAAAABAhQhYAAAAARIiQBQAAAAARImQBAAAAQIQIWQAAAAAQIUIWAAAAAESIkAUAAAAAESJkAQAAAECECFkAAAAAECFCFgAAAABEiJAFAGi1lStXulJSbW2tKwEAUH0IWQAAAAAQIUIWAAAAAESIkAUAAAAAESJkAQAAAECECFkAAAAAECFCFgAAAABEiJAFAAAAABEiZAEAAABAhAhZAAAAABAhQhYAAAAARIiQBQAAAAARImQBAFqtrq7OlZJ69uzpSgAAVB9CFgAAAABEiJAFAAAAABEiZAEAAABAhAhZAAAAABAhQhYAAAAARIiQBQAAAAARImQBAAAAQIQIWQAAAAAQIUIWAAAAAESIkAUAAAAAESJkAQAAAECECFkAgFarq6tzpaTa2lpXAgCg+hCyAAAAACBChCwAAAAAiBAhCwAAAAAiRMgCAAAAgAgRsgAAAAAgQoQsAAAAAIgQIQsAAAAAIkTIAgAAAIAIEbIAAAAAIEKELAAAAACIECELAAAAACJEyAIAtFpdXZ0rJdXW1roSAADVh5AFAAAAABEiZAEAAABAhAhZAAAAABAhQhYAAAAARIiQBQAAAAARImQBAAAAQIQIWQAAAAAQIUIWAAAAAESIkAUAAAAAESJkAQAAAECECFkAAAAAECFCFgAAAABEiJAFAGi1uro6V0qqra11JQAAqg8hCwAAAAAiRMgCAAAAgAgRsgAAAAAgQoQsAAAAAIgQIQsAAAAAIkTIAgAAAIAIEbIAAAAAIEKELAAAAACIECELAAAAACJEyAIAAACACBGyAAAAACBChCwAQKvV1dW5UlJtba0rAQBQfQhZAAAAABAhQhYAAAAARIiQBQAAAAARImQBAAAAQIQIWQAAAAAQIUIWAAAAAESoZkuCKyNPP/vZz+zSSy8Nyoceeqj16dMnKCM3nw49z5WSur19tSs19tZbb9mcOXOC8tixY613795BGYXx5ptv2ty5c4PyYYcdxqW5C2z+/Pn22muvBeXDDz/cevbsGZTj7sknn7SVK1e6WvlM+xtvvGHz5s0LykcccYT16NEjKKMwXn/99WCQI4880rp37x6UURhat7WOS5yWd7bf9+VG225tw+Woo46ybt26BWUUhvZNtI8iCxYssKFDhwbluCBkReDEE0+0KVOmuBryddSPprlS0j9/eYgrAQCASsH3PaI2depUGzdunKvFAyErAqeccordc889Qbldu3ZWU1MTlJGbcd9/0pWS/v2bw12psc2bN1t9fX1QZnkXHsu7uMp1eW/atMn8r5NymXbW7+JieRdXXJd3tt/35UbLWstcWL8Lz1/ezz77rB144IFBOS4IWYiN8f813ZWSHr9mjCsBiLt99tnHZs2a5WpmL7/8su29996uBgBb8X2PasCFLwAAAAAgQoQsAECr1dXVuVISF0gBAFQzQhYAAAAARIiQBQAAAAARImQBAAAAQIQIWQAAAAAQIUIWAAAAAESIkAUAAAAAESJkAQAAAECECFkAAAAAECFCFgAAAABEiJAFAAAAABEiZAEAAABAhAhZAAAAABAhQhYAAAAARIiQBQBotbq6OldKqq2tdSUAAKoPIQsAAAAAIkTIAgAAAIAIEbIAAAAAIEKELAAAAACIECELAAAAACJEyAIAAACACBGyAAAAACBChCwAAAAAiBAhCwAAAAAiRMgCAAAAgAgRsgAArXb66afbD3/4w4YBADIZs3ufRgNQiWq2JLgyUFKfrtvkSkndOrdzJQAAAKB8ELIAAAAAIEIcLggAAAAAESJkAQAAAECECFkAAAAAECFCFgAAAABEiJAFAAAAABEiZAEAAABAhAhZAAAAABAhQhaQhZtuuslOPfVUe/vtt90YoHl33XVXsM5ceeWVwfqTj2nTptnw4cNtwoQJds4559js2bPdLdFZtmxZTuu1pknzpccBAMpH+J3E9rs4CFlFoB2YmpqaYEdJQ747XCgN7VSeddZZdvfdd9t+++3H+4esvPfee8E6c/7557sx+VmwYIE9+uijQXmvvfYK/kfpueees2HDhgXbpocfftiNzewXv/hFMF8jRozI6v7FpiAaBtMLL7ywIMEUqCb6gSf8TPFjY/lSuAq/kw488MBg3waFVbMlwZXLhj7gixcvtkMOOcSNab3wOfv3729Dhw51Y6OjkBWaNWtWQXaWSkEb37FjxwYb3nT0a8m8efNcLXrdu3cv+LLUPPzhD39otLOssKWNVSHWFVQGfaGF64yCUj7rita9vn37BuUbb7zRzjzzzKAcJX2Gb7jhBlcze+ihh+zYY491tcYUqo477jhXM5s4caJddtllrhYf4fb2lFNOCVoUgTjRzm3U+xrhDnOU+0Uhf1tWqZ+patiX0X6uttnadwmdffbZdumll1qfPn3cGERKIavcTJ48WcGwIIOeuxDC5z/mmGPcmPKX+HA2zJfKmYT3KcRQzOWZCMdbEuGqJK+N8vP00083rCutET6Hnq8QevXq1fAad955pxvb1NKlS7cMGzas4b6JMOZuiZ9wGgu1PQdaI1w/CzEUgr/PVajtUClV276Mtt3+dp/tZOGUZUuW/6tK1BIrm/3kJz9xteiEv6wW6vlLQYfN6TC6kH7huv7665v8IuK34kVNv8L89re/dbXmhS1So0ePdmPyo8OldPhWYofUBg4c6MZmZ8aMGXbSSSfRAlYF9MvyoYceGpRbs5kNPz+JnZvIf6X2pzHxJW+PPPJIUE7Hb/HK5tdsHaa3evXqvH+x17Tl++tua7a34XQXokUAkEJ+JxZil87f5yrDXcYWldu+jLZRzz77rO22225uTO5WrVplP/jBD2z58uX2wAMPuLHZ0WPnzJlTMfuyhVTSkKUVe9CgQTZy5MgWv4TVzPn8889bjx49gvtLc4/RSrj33nsH5eYOf/HpMfpSL8QOcGu+9ONMy+zwww+3FStWBHUdRqcdNX/jVIh517HhCjq5PmchN5LZKsTOMopP26S//OUvGUP73LlzG7649Z7nKwxBOlww9UtVr6Fx+a5PfnBqbr1UoDrttNNcLXs610vnfOVzKEqpP6uVuDOJ6Pg7utl8/vSjwT/+8Y/g8FqVW3qMDlvTYV36Tp05c6Ybm1l4OFshvlsqPWRJOe3L+D+OlRLbyJaVNGSFK1cusl0R/V8m4rAihB9O/Vrx1a9+NSjnQ78gtBQYs23p0y/XCpQ6Dnn8+PF57QiJdjb1y88LL7wQ1FM3Tpk2TPpSyPc1CVm50/uklrzHHnus4b0S7QjrPTvhhBMyHo/eEu2ET5kyJXju8EuqV69edvTRR7fqeeMsLl90+X7h6/Oni1fo/dI68NZbb7lbGmvNfLbm/NNyCFnZfoeF29rPf/7zWf3gh/jL93OR7f5I7969g89mvp/vKPn7FK35wUhac+6RgpA+b0888UTwo3v4XSPh95iCkvZn8vmxvFz2Zao9ZIX7G3qfdL5zSNvZUaNG2ec+97mS7GOllVhIJaNjUDUJuQyJFdE9unnhcyc+MG5MaaXOR2uGlmgZpXtcS4OORdZ5F/nQ4xIbpIbn0vG+4XOF4/z3TrfpPjfeeKMb01Tiw+NKTYXnhkycONGNyU66aUlHxyxrSHyhuDHN03zoOfUYnbuViZ4v32WcL72ellM4780NWq7NTX8q3Td8L5obcn3ecqD3Mt28FnvIdpuYSudfhc+R6VwszaN/7H5Lnwd/m57vdIVas760dhqyfe18vsP0WdB2AuUt389/NvznjsN2U58jfx5aM+TzmdQyyPWzlu/+jB4T930Zf/1oaZus6dJ9sl2PNB2aPz0m03Rrnlt63ULQdjOb/Q0NWl/yef+jVtKQpTc93ULwP9A+3b+5ldUXPr65E7mLKZyeKIaW+MtPK5rq6QYFUH8HSoM2LvmumHqcHq/n9Jd7+Nx6zZC/069pTH1fwx3ATBse/7G5CB/nT0s6uj28bzbLRBv08P4qx0X4noTTpvdGy1QbyHDQRjj1CyybDag+j/76o/VJ71v4vCr7y0X3zXZDXw60bJtbTrotnPfWCJ8j3Wvlsk1MFX5Z6X1Jt36Hn8Fw8D/T6egLMLxvrp/LqIXT0dLnvLX8z43Wdb1euiH18xXeH+VLn5lM27PwPdZ7H2ppe+HT4/R4fUbjIJyeKAZ/mWQjdTukQd9peh5/0Pea/12nId/vnPB7U4/3t3vh8/rzUIp9Gf+7paV1KnUb1RI/xLS0zS+m1PVA86Jxmv9w0PviT382+26FVtKQlYkWVLiQ8uF/2Zd6AYfC6fE/nLnKdiPtL79sXk8rqr+znMuHPZWmMXWjlvq8uj0cpyHc6Q9pI+Xfrselvo/+bbkIH9fScvGXYTa/Ovv3j8s6J37IUQhqbtr8jVimHe+QbgvXGf1vbr3UbeF9tQGM0/IpJM13uDxbI3yObD772fLf69QvXr0/WlfC2zU09yut6DF+aMs3+KWj7UWuO0rhdGez/QvpNXJdxv4OTEuP1TLytxO5Th/KR2vf3zAsZNoxLzZ/vW0NfcZy2Takfl60rWrp8foc+p9LbY9y3X6IPq+pjwufs9T7MnqN8HEtbXf8ZZH62umE99c6GBdajv7+Rkvvp7/e5LJcC6FsQ5YWulaudCtN+MtCS4cKhs+RzwcwV+H85LvRzYW//LJ9PS2DcCXWENUy0fujZRwuZ9X9X5sy7bylTo8e09LGNRvh87W0XLJZB3253r8YtMzDacr2Fx1/PprbsfbDWzYh1P/hI9t1stz5y781wufQ80XF/7XPf97UH1w0ZPNlm836EG4LslkPff5OQjGGXPjTlu374wdcDVFs1xAv4Xvb3LZO60u671l9PsLHt/Q9rOfI5zOVq1J8v/nfGRr0ucmFv02KIjCE26/wfVO9VPsymobw+VRuTriNyjZs5Hr/YvDfy5bmN+T/UJjtYwohPnuEnmw+0Fqhw/u0dmgpjEUhfK1i7GD6yy+X1wvDaXOP0wZDO2j5rrT+h0Xl5mhD5G/EsvkFoyXhc2n+wpCdbkj9ULc0ZHv/Yspnw+R/wWf6YvLvk8uGONx4632sBlrm4XLy14FcB/85opC67dTz6j31g1chh1znI1xvijXkwp+2XObL/2zGpbUC0Qnf2+a+f1N/zGjN0NrvxZb4+xTFoO2Rv3xyDVgh//OZ+hzlvC+jaQ6fS2U9l/6nG8LX1f90t6cO2dy/0OtbqnBd0DRlS9MYLqNSbmPLNmTpjQ7v09qhuQ1hVIr5Wv7yy+X1/GWabuc59ZebXDd8fojT8+j5WpL6mq3dOIXPo+US5TqUzZBumRZSuNOs/7nwv5jS8X+Jz6YVK5Tv48pV1OuXnq+19GWfunMXPm/4/uh2lf3PXZRDrvR5z2Zb4QtfK9ftba7LON+QpfchfFyun0/EX/jeNrf++etOa4dC8/cpisF/vdb8CK7PmT5f+mHJ34aU+76M/92isr+8ijHkul1trfB1WwqzqcLHFXvfy9cmMQFlL7GS6ZOf84Dc+ZcpVb85LXVIGtIlYCdNmhSUExuXJv1P6NKpuiypLoXq033UR0jiwxXUdclWXaJVl3JF84YPHx5cglb/o6RLp4ZyuRy1Lqsb+vvf/+5KKCb1i+Vf9tiny+wndjbsySefDMrh5zPxhZp2+6lBt0liRybt7eGgbXS+dLnnfC+PnKtiXfZXl5fWMpPEjmDwH9UpsQOY9jPT0hB+9irRFVdc4UrWsN+QD33O1DXFmWee2WQb4tfZlykPQ4YMcaXyUREhq1TCD1M2Q2jhwoVpb29uKAX1NZBKGwltUMKNhGjjpB235uj2sI8NbZS0E5e6wVOnrur3oW/fvrb//vs32UCpJ3R/43TPPfcE5dbYZZddgn58WvoCS3d76tDS/ZcuXVr0L0W9V9qo63+Uwj5EtHOQC73nCn2STeealSTdOpHtEBXtHIR9OoU7+KkUrnLpw0b91Yj6Q4tCph2UUtG0FGonKOofP4Bc+fsZzQ3abwmlu725QZ/pXDz88MMNPwSdcsopefV31ZJK25c56aSTgh9r0n1/hN/T2Yb5lu6v19HrlYK/HuaitrbWlUogsdBiJ7Ez2tDMl0lqc2k+wsfr9fLhT0OhhsSK7l4te/7yy2Xe/CbwlprP/dfQkNhouFsa0/T798vUPO6fJ9Lc+6nXybZ5Pp3wNVpaLv78ZSPX+6fyH9/StBVaeEiDDmdIJ5zOfI5z9k9GrXT+9qE1wufIdzsn4aGAGvS++ieVZ3re8LObaX30D3lr6fDPbJeF/zmIy9DcNtjfvuX6/viPRWUJ39fmtuXh+9/c+tUc/7OSL38dLNSQ6+dC3/HhY3M9jC8fqducctiX8benLS3fXNezXO+fyl9Oub73mYT7JLkcWq33J5wOvSelUrEtWfoFRb+I6H85K1YC168tN9xwQ1DWLzT+oV3pqGdyHVoU0mPT/Qr005/+tOFXc90/06/ku+22myslW5gyufTSS5s0zyM6+tUxbKlK1zrhf5569uzpStnbd999XSn5Wig8HQajX2lDDzzwgPXo0cPV8qdfbEXbi1wOG0VSXFrrEE833XRTXi1BcdO9e3dXyo5/lMMBBxzgSoXDvkz8fec73wn+qxUt2316fX5CLe3PFlLFhqwZM2bYcccdFzTb6rCMQnyh+R+gRGLXz0mRDce4Jlt/p7RQtBGfMGFCQxP9n//856w++OE5HKF0XwY6x+G5556zhx56KLh/Npp7bd0W541SeDhcuQp3nOWEE05wpfQGDx7sSvlZvHixK1U+fTHkO7RGasCaOHFizucd6fCYmpqaJkN42Iy2G+lu9wdth7PR3GEvmQYdinu2d9iPTJ6c+TwyHSKsYKhtV7rbUwc9V9T0fRT+mJHp0E1Ut7POOiv43Gj98HcYoxSeFqD9jXTrfr6D9odCuRx+LOHnQp/RQhwqmA77Mk2lO2WkVPS9EO5bfeELX2jxEG5974WNBvrOK9Z6lE5VnJP161//uiArc5w/IC3RRkQtffrFRhtxbdjCHY9cfpXWxkY7OHqsjjVOR8upnH/pTrfjmzqExwprBzEf+jUt/IJSuRS04Qp3nLVOpPsi+eCDD1zJbODAga6UvdYGs3KiH3pC2lnKdwj5z5cN7chfc801rpb8AeBHP/qRq7WsUC0tzX1B6sswly9EPZd+IAq/ULWzqG1Y+CNVKn356mRzBcNsT3bPdScxG3/4wx9cKXneCZCJPre6cEMh5HM0QrEUoxXLV+n7Mtqep9t3SR3C7X6++zJqnQv3ZaK6kJCW++9///vgvdG2W9vwCy+8sNF3iaZb+7R6H8MfFvV+XnbZZUG5VKoiZB144IGuVH0y/QqtnWi19GnnRCuuVkYFrWx/ofFpg6QTQFN3jvQBSPchTjfMnTvXPSr3X/31wSqkdDu+qUO4kxe2BpYbbaDCJnm59dZbXamx9957z5Xyk08wQ370xaRDb/RLnj7j+pLK5Yeha6+9NmglCr8wNajuB5hsW4PCC8zofxTrgNZXXchj7733DrZb2p7pF2Z9wWsblhqMdH/9oKQvX31Gw21eKegHLv/qad/+9rddCWgqqovKlAN9n5dSJe/LaDuZbt8ldQhbEuvq6oL/caFt+ptvvhlst7UN1xUetf0P92l1oRHt0959993B94G+mzKF5aJKfPHFTjYndLZ04l82zxHervvmK3yOqE7wCyV2ZPKeNn/esxkSOxzBBQkSK2XeF5QI+Y/PdTpaM2QrvH9Ly7U1016OwhNLNTR3QQt/ueSzzrf0ua0kujCEhuboc67lreXa3PLI5rmak/q5zud90Ov764m2F9nQvGkbk+lE8VxoPvS6iS/RYBr0vHr+5rZbuihHeH8NiS/pVm/nQuF2WkM2y1HLwJ+W5j5rKF/h+6t1M5Nw3dH/dFp6Do0P75Ov8DkyTUO+/O1LLvzHRT1NuYrzvkwu229/G5XLUOrln064/fe/h1IHf382DriEe4VLfFCCcwrSDfqFW7frVwGlf/3KO2LEiFb9mqJDd8Lm5nKm5ZLYqdQWL6chscFzz1A+9At/+OtVHJrXK0U2h77pkur6RS48TDOTbJ6rObm0YKWjbYIOWwrXE/1SmM3JxDocT/MWHuLR3KGCmYSHgejwEG2ftJ3SZ1M0HbqM/Ne+9rVg2xMOvXv3bviFU79u6v6afn0+9etma5dHLvxDs/XLazjtmh4+a0A8Vcq+jC7YkQgnafdXMg26v/YR40TfHToqTdt/fQ9pXyURpIJtejjceOONwXdCuD8bi/cwsUBjJ/HmNqTSTBILtOE+KqcKn0OpNpPw8bpvvpqbhtYIf33IZ9r85ZfN4/XrgO6nZRU+Lp9fAfSLsR4b/gKiX75b+vVa9/FfNxzC52iJpj2XZR8+f2ve80qhZef/IqRf+Fvir1v5rPMtfW6rTfg51/tQTNm+D7otnMbUQZ/b5j7f2oak3l+/MObDb/3JddDrpm7PtO5raK1My6alQS1YUbw+4il8n5v7ngnXnUzfdeFzZLr8tL8tzlf4HJmmIV/+9iUX2p6Ej4t6mnIR932ZbLfflULLPly2+q5s6b3Q++ffv5Tb2opvySr2yZPlSL/q6mILOhZZvwKIfgXQMcK5+NOf/hT816/z+vVWv7y3dNK4TvpOdx6TniOb19e0t/bkylyOt85lyOdX+2LRrzv6lcdvwcrm+OXdd9/dlfLjH69ezrR+65ygdO97LoP/K1u623MZND1R0DSpBUrrh47RDzswTuwsBK0wiR2zoN5c61R4/pMkvuyCXxmXL1+e1YUm0vnud78b/Nc0aF3VNKT+iqlB48JtmOh+Oo4/9VxTzZtaxbTciknbO02nWrCK2ZqG8uVfErzSFeIiM/ko130Z//sgykHLoJR0vriWrb5LdN5tS++FLk6iq2SL9nH8Cw0VnQtbsZLNLzSJL6qG+6icSr/K67bmfkUIH6/Xy4fScfgc+rVJ0xHVELYw5DNt/vLL9fF67fCx2f4CI/oVJ3xcNi0iol9zw8f4LSphWb9eR/kLhD9v/i/b/vKKcmjp15ZS8X8V0pDt+yX+Msyngz9/Weu5ypW/HOI0ZMuf/vB90GfC/xyGg9YV/73W/VJvDz+n+q/tRnhbsX5F1Dz4r6t1WtukdMJfqcMhn21sKPU19Vypg16vnNd15C6bdStcd9J9z/rfp5nWHT13eJ98hd/B+pzqdaIatL3Id9rCx+Xz2CiUw76M/9772zl/exTVEPW058rfXvv7bdkIl4e+o0qlNGtxC7LZeOiDHN5H5VThwm1uIxc+vrn7NMefhkIN+Rxe4y+/fObN30hk2lFJ5W9ksnmM/8EJN/BhXSEgLOcSAFqSaZ3xl1dUQ77rVKGlBiy9b7nwl2E+8+gv61JuuFurGJ/9fIZspfss6P3wP/taT/R++e+TH7D8L3SVtW7pCzkcp+cq9HucGgw1Hf5nOxPdx/8c6HH5TKu/DLJ5XVSHcJ1obhsZrjv6n8r/fGbib0vz5a+/hRpy/bHRn6ZcHxuFctiXyfTeF+L9LPV2TcstnJZct9F+2C/VfFTs4YLPP/988D/O/UBkoxSX0fzKV77iStl1GKvDi8JLmCc+EC2eoK/Di77+9a8H5cSOTnCSok9NwYkNXVDW8+Z7iFEqv48nvxf61A5QEx9Gd0vznZr6g/+YxIa2ZH1dNUfLPewjSBI7qDmfeO8fzhD2DZYLXaQgVM6HS6kjcr3niY1+2vUh06BlHtJ6kvhSDMr6r8NNQrpfusdnGjQd/jqYD70fusy7DrfTeq/D7LQeh++TPofhIYD6nOuwjfBzqkNi/Is6SHgoatS0HusiGOpkPjwJWtOs+dc0ZXvIjQ4n0fZHNP2lOHwQSCc8rDpcP8vZ6tWrXSk7fie48+bNc6XiKJd9mfC7N3X90Hbb/05SPaTto/+dkWnwH6Npj6qvq3z5hyrmus/gH2pbslMVEgs1dhJvckP6zCSxwmRMqPr1IdNtvvA+er18KFUX8pcWzUc+z+8vv3zmzX98c8svlMv9NT+JDUPD/cP589/PkP8LtX6xbi1/OluSy69pWg/CX/A1b9n8+lVsqcu9NcsznFe9P7kKp0HLt9r470G4noTrmf7765GGKNb5TPzPWzafcf/XXf8XWf+XQg2afj1fOJ/5HFLq0zLRL8X67Op1/eXjv6ZuD++jZekPqfdvachlufvPn81yRHUI1wmtk5mE647+p9J6nOm2UC7fZ5lom6TPWKHoM5Hr8/stQ83NfyH4y7Slz3Pqd2q4n6DHheNCUe/LNLfu+LTsw2nUdrKl90LzEE5nPt/vhRDOq4Zc+e9Fc5/FQsr/01lA2Ww8/IWX+mHQStzS4yW8T6kWfqH4yy+fefN3qFra0Pgf4pY+8KkbJX9jk27DpJ3QTPfPR/hhzWbj4b+2/mcKTpp/fwMabmjjxH+PNLR2OYY7ABpa2mj7tAzDx1XaZ64lqet++LlK/bL076f/hVqfmtt++vT6/vrth6bUedIQrg/hOqIv9tZKF6zyGTStWs7+oPVQg7/N05DtZ0TPET6mpW0lqke4TjS3nQvXHf1PFa7zzT1et4WvU2n8z3ym795saflqu9XSd5X/PZnuPfGlbvuKvS8TPo+2Wy1JPZwxE3+esglkxeJvY3Plz3trf/DLVyw/ndlsPJrbSdB5TBrf0gclfLx2COJKK35zG9p0/OWX62Mll9Dgv1ZLO2vNbWTSbZikpcflInyebN/v1I1Tuo2OHzhau+EsFP/9zGaj3BJ/ueQyz/660tJ6VUmaW4fDLxB/W+UvXz2uEOtVc9tP0U6Bv25rOjRdIX+e/HkLn8sP1K2dfr+1TOuylpUGrctap8JB06fX1xCu8xqfrXCe9Nhshe+fhnTLEdUpXCeaW//SffZF62E265SeO7xfa4NIIWk6c93e+/OWunxy4W87Wvre91+zueXe3PZc9NjwNl9Lj8uWv35k+xz+j0jploP2bcJtpqYx1/erkPzvoVzX82zf00Iq25Dlf3j8L3//y91Prqlvjup6HQ35rux6rDYA6d54rbT+dKXSbQqDza00/gejuedK5S8/lXPhbyBa+hXa/+Wnuftq+ba0ccm0YRLNe3ibBn3ocv2VJZ8Nk6Tu4IWvq//+hz/X5Vws/rqQz0VUMgnfz1x2SMNfJ1tarypJS1+smXa0dL/wMeke11r+583/8tFnzV+vNaRu4/x50vvvP5f/OQifR/fN9fPq02NzfXy4XFM/ly09l25rbpucKnwdDf5yRHUL14nmvhcybUP9z40vdb3UNkHPryGXdTakdV3bYn8/yafPeaadbb1e+NqZ6LHhNj+X7wkJpy1cjpmmsTn+dkr/m1tGer3wvs19P2mZh/fTkG67XOh9GX+fJJf3PWx8CF83pOfQ+xPeFrftmP9d2Nz6lo4/X7ku56iUbcjSiqGVQYO/ooUrkj4I4UINP2z68ES1AvkfSg3+m///2zV3HKeWIAyfuUtB5ASETEIAQmQkiJAtzB6IWBQRIUsgJGUPlw9NSb9K/Txuj4/N/0l1bY/7dFfXq6vNVf1L62miabBnNJl0Pz10/Zmg1KI08qyuUyo26KuJXRsH2CnGlMBmqtusL+PgQmaTTZ+NplKTt+XDS0JehI7Ya3bfLdT3IwdgL1ZukRyzpX3XLlmghwtCnK3yoeZb5JHGOYLu2bfoFHsiB0KfeEZrhsbfygt+gC7YrWST2iWLz+jP6wpb+pJlSkRM5PhTiJeQgDO49GzkJj+8rqoBzB9rcT5EH8Urn/l7qS6Bnn/afynoGfMgLVuUwC7xLDJzbmBH1bF3RqktSuuwl6P0MmFT9jcDe1CbsB/W7Z1Rlwa9Q0dea/GWYS+xr0v2aFd7ySqhRtWEzsnB51MLlf4rE/Op4zXJas4dPZx13GigqP1GChu2wHaabL0E1sAn6RW+Y12dj/etBO4VJsiXQAT79AqU6ro32eKQy7IqeWd9NsI5G0Bsqgdoy7eal7VD+9ZQf7bsEz6q2QW/acyTl+TBqWi+aWyEPsQ1Pg54n/+XE/0+YiHng9phVa6A6oJNVBeIfWguMWamJo0Q6yCrc8xcLxETM7Wc+IwmmNiMmNaLV3xHo34K9CuRC6U80LguNbVaP2q1C3Rcba4W+kMzknutEuwl9ob06o7WhaP3Mjr3ntqlMZbl1FoYnKMm6jkycgbqRZbX2bhbyeEuWQRBHNgYZxQCRJ2QKSXK3kKlgY6uUQwVLZYlcHrM0SpSjFO9R4JWA5K5+VwTvtf5EXQv7UmhcMV45glygUOwUS8p1KYtsEepSFB8a6iue5Mee2jxQNjnquTFhjGv2nMvejBjf/a9R1r7ywcF9sH/8Szv1WYjcXXtYC/dM/bBFjViLK81sHOO+VN/0UanmEv1Y87sc+pk1GSkFJ+tfajup160SrZgzVzLQ5+sK3uN70IiP/agc+2dw9wWejEY+Vd+IO80rnM8E/c5bk/5sVjnKunI+q3vYfRc1R9EWHcW7e10HnJbBX1y7zFSb3QfWi+O2MtEHUavvb5n3bwv7HnKeaJobK2sieonhM/abyDEqq6PMOaSHOKSlY0Swt9HIDHiGYK2Fiy5AUJmCxVjteGoBZEW2tplToOmFYw6F2v3UHvMCImnRaYGuuozaj/e675G7atz9shr8L6GzjsaTxnsn4uSCnts+W8E9dmID3rsjYEsPV1KTW9JsP1IHFwz2ErjBLv0DuSoR73YzDGPsBYNTL4UjaB5UYtdDif1LevVxsa+S/vIhzpzzurM/nNMt+wbdq3FL/uIMSF87vkro3OcWgPMdaK5lGUkJnINbTWF+Szifa2/qKH9RClfg1gH3UqQwyPzkLvaM+1perFRzteWsN6IXdR37FfPqFxzL93LaP3rncslWEsvvFnYP+vvOU+Uc9bEfMa2hBhYvf4eDnHJIulKRuolI99r8lIMRpIgF6oZZ5Bo8RwBW0MLUC1xRosUaBHuJZgmY09YF/2w5YjtGKM2r+0N22DnUWYKU0ARbfmAwqx+nkk49on+ulcEe7FuqeAzFn1mGzU4tYBmZmKgJaO6ED/kRs4r4uMIhe5cECe5DiHseySfIo56+R8Qe6VDhvpAvI7GnuZb+Idn2Qu65zVaDQZ/j3G1eMm5iLBO70BnbubMz/biMuzaG4c9s+/I4RHfgdaBW45z0ybHEMLfWhD75IA+Q/714Ll8/ozGLHkYz5BTrfxT3WrjdEwr/smzGMe6o/mVQX/2mveP8Df0Ya0R0EH9xrMlWO/SvQxxEXPO2g/fMXep/pbqHxLnSSs+apy7JrJ3dGOdrDt6s6+RPHoqDnHJwpEYiCDoJQpOqwXMbODpxQXpJRJrxFie7a0X86NrDb20tQJSExfZE/wroMip3Vbpofub8WON3NRh5xGIO/yc44tkzv7hc6nYIzzPmjR5jLuUv8x5iMM+xwmfZwp8xA+vo5AfrK3rhozUJdB8433Ol5BS3Ge0AWhdavIarZpdy0PsNJJLYdfeJStgnK7DuivqkPk3iN6A/CP2iKdS/BC75EvEp8ZbL88y9Cs6B2u3ciPnX69OkYMxttYbMWeM6dUw3TP2ujTofg29jNZXpNenAuvynPaXIfgh75WxpcsWwt/xF+uyN9fFOQ5xyRoBx+YDF+FvtQvZCLlZqRUePYRZkwTtoXPXCmgUMubsFb0o5MjopeEc4AvWX6mDFvTZw6YGc1JQsG2pgOJD1sK3+dAL4e89vzBHqZjVpDefOT74PNej0uHVI+KO11mIX41bDsPRAxD947nIN+aLPfFauqAwFmEdhBxTO/TqIs+gc6/J0lqHtC57oZPaPuxS2kMNno/njtAEmttCewgVzo7RvM2Qb9oc874Esa3jRuIbnWJ8qz7FRYUxrX2gQ8yH9GrFU4C+R+9l0DEuQdi6BOuwLj2nXhxV8HlPH9apPZ+Fun8EHx6dq7lkAQGiTiag9hYnhcAiYGqJFt/HuqNNcjQgBHcrGCm+I/vQIsXeL402NaeiB9CKwqSU9MxNXJaRgpRhHX7tiUatJCuLubks+JsDiRwfrQmZiJVWE9ODOOX5mQNPa6nGOTWrVY/YZzyXZSa2R+odOUhj0bNtS6c9fiGHV5wrxmT0bCC2V5x1xGrMW6oB+j1CzRqNb8YirX89oWaM7iPOXfZ+pAb9WnsZ/Ni6FHE20SvO7g/ftC5syMi/qJkru2QBAUyirkwKIKh6hYegYu1RRgvZDOhwpOK0inMWphq5gFD4se+K2ML3pV+WbtF3/zL4+ZQ8j7jgMHxKyLFYmzgdhb3GcyqrfvDaQ02nUy6uxpwDYpXzYO+PMi165ybn2uyPMatzGh0462+Zp+5lsKn+I0DUPmJshf+Yn7niRy/mf+rz6pq54z9/jGbMP8f379+3h4eH7e3bt9vHjx+3Fy9ePH5zHljv/v7+8ZMx23Z3d/f47s/J9YSlmFj88uXL3/efP3/ePn369Pf9CO/evdt+/vy5/WkWt9evX29v3rzZnj179vjtZUD/Hz9+bM+fP99evny5vXr1anv//v3jt8YYc7t8/fp1+/bt2/bhw4ez1+Pfv39vv379Onu/dCv4kmWMMcYYY4wxC/nv8dUYY4wxxhhjzAJ8yTLGGGOMMcaYhfiSZYwxxhhjjDEL8SXLGGOMMcYYYxbiS5YxxhhjjDHGLMSXLGOMMcYYY4xZiC9ZxhhjjDHGGLMQX7KMMcYYY4wxZiG+ZBljjDHGGGPMMrbtf6+5WcmpMBdaAAAAAElFTkSuQmCC;" vertex="1" parent="1">
          <mxGeometry x="-490" y="40" width="857" height="889" as="geometry" />
        </mxCell>
        <mxCell id="0NX7Yyfh2O2KS_RMifQC-3" value="" style="shape=image;verticalLabelPosition=bottom;labelBackgroundColor=default;verticalAlign=top;aspect=fixed;imageAspect=0;image=data:image/png,iVBORw0KGgoAAAANSUhEUgAAAzQAAAOGCAYAAAA6cNUJAAAAAXNSR0IArs4c6QAAAARnQU1BAACxjwv8YQUAAAAJcEhZcwAADsMAAA7DAcdvqGQAAKWkSURBVHhe7d0HvBTlof//59A7h6ZIUaQYDNZgR8GGEo2JpFiS3ES9+V9LbvKLuUYNxqhXRbEnuUa9N1ETY08iajCWRImCilhAQRRFsYCFdgAB6f/9zj7P4Tlztu/Onp3dz/v1GniePVtmZqd995mZp25rggEAAACAGGpl/wcAAACA2CHQAAAAAIgtAg0AAACA2CLQAAAAAIgtAg0AAACA2CLQAAAAAIgtAg0AAACA2CLQAAAAAIgtAg0AAACA2CLQAAAAAIgtAg0AAACA2CLQAAAAAIgtAg0AAACA2CLQAAAAAIgtAg0AAACA2CLQAAAAAIgtAg0AAACA2CLQAAAAAIgtAg0AAACA2CLQAAAAAIgtAg0AAACA2CLQAAAAAIgtAg0AAIitW265xZx00knmnXfesY8AqDUEGgBATbnnnntMz549zbhx44Jh2rRp9i+IG313Z5xxhrn33nvNPvvsE4QbALWnbmuCLQMAkDf9Mr548WJz8MEH20eK596zX79+ZvDgwfbR0tBB8CGHHBKUhwwZYmbMmGF69eoV1KvJWWedZUaPHh20XqSybNkyM2/ePFsrva5du5o999zT1qKhafj9739vzjvvPPuICYKNAk6plxsAlYtAAwAoylVXXdXkgLKUJk2aZM4991xbKw0/0ETx/pVAYeamm24Kymeeeab57W9/G5TD6urqbKn0jj76aPPoo4/aWrRmz55tfvCDH5gXX3wxqJfzswG0PAINAKAocQ40zzzzTElbliqFTr3SqVjOiSeeaG688cZmLVFRBppMQSrMtbQcdNBB9pHCXHbZZeaxxx4zd999txkwYIB9NDfPPvus+eY3v0nLDhBDBBoAQEAHwQMHDjTDhw/PelCnU8JeeOEF061bt+D5kuk1+gV9r732CspTpkwxxxxzTFDORK/RaUtRnnJWrYFGNP8OO+wws2LFiqCuU7HUauGHGhdoShkcdV2SQkW+7xlluMpVNS8PQDXjpgAAgMADDzxgjj322OC6Eh1cZhr0nJNPPtnMmTMnCBzZQsfzzz9vSyanMCO6/qLUYSZs7ty5QcApZiiWblLgz1vVS0HzT6dgKciIygobag3JJpfnoPQ03y+44ILGZUGtn8XS8qTrqHQjDPe+KuuxUi1rQItTCw0AAEcffbRa7PMaJk2aZF+dmXvvE0880T7Scp555plm01HooOkqViJwNHnPUs+jpUuXNvmMHj16BI+Je8z/HvU3Pefmm2+2jzS3YMECW2ouEXaD95wwYYJ9JDepxiWVKVOmBIO+x1xoOvSees2sWbPso83p/dx8aQn6fDfvcp0XmWhaw++XatBzMs0XIA5ooQEABBIHTyZxQKcfupoMetzxH08cBAXXHORCpyDJ8ccfH/yPJJ265y5kdy0pukNXKftU0SlmOtVM758IKsF1LZnu6nbdddcFp6npGhy16ITHRb/qq4VOLQmpJMJO8P9LL70U/F9qahVUS6JOG9x3332ztibp1Dtd46XXZLqts041a4m73blWGU2Pm3fFcqcbuvfTNVS6rkin1GlQWdc4iZ6j5+o1QFwRaAAAAZ2ilM8BXa6nhD3yyCO2ZMzYsWNtqTLo4M4PafkMOhD0w14hdCG887vf/c6WjHniiSdsqTRcqHnqqadS3sb5ySefDP7XQe3EiRODsowcOTK4fbajcKNTDUXPy/UUtqhccsklWZfZQYMG2ZIxl156qS1VBp2yuP/++zfOc92d7eabbw7KhdL34a6dUoDVMu5OO1No06Cygq3+pufoud/4xjda9LsEikGgAQAUTQe6OjhLdUA0ffr04H/9Spzp4NO9R1x+KVaYK7afFXdrZc0bvZdrpbn66quD/0tJ894fX31X7hd7BTPVdetjRwfWl19+eZOL5DXNapnTQbCo5S3ciuMCXzlum5zr9VhOPoE9an6rjOanWk00z0aMGGGfUZgLL7yw8UYQf/rTnzLe5EB/03NE4+EHbCBOCDQAgKKpRUEHZ71792688NgN7tdnnUoV/ps/6DQmvccVV1wRPL/aqeXKHXi6U/FcoNDBZb43HFAQHDp0aM6v08G9+8VeQUcHwu70N52OdPrppwflMD03fLMBlUsZRF24TTUsXLjQPivZwpFtyPX55ebWiwkTJpi33norZctZvhRKXUhWa08ugU/P0XPlyiuvDP4HYmcrAAAZ6MJk7S4y7TKeKeGF9vq8KPnjqnJL0cX/Goce3kX6+t+NWyJUBI/lQq9LhIrG19599932L7nRBfzutXqfXC6OD3+mpqOYi8vd++j7L+XylMtQips75EufmQiutraNP+35rgv63t1rdROEXBX6OqBS0EIDACipxAFZ42lH+Qy1RC0QarES/TLvToXS/zr9THTdQz7XNPinU+k6l1xvyatbA7vWAp36FO6rJt3phHrOzJkzGy8uV2sTF5fnTvO51Lclnzx5si3ldzqef23b3/72N1sC4oNAAwCoCjqQDp9GlGpQ3zNOvv3QlOpg3b/o/9vf/rYtJX3ve98L/ldAyPXmAAoXOkB24UIUas466yxbS01/1x3ARGFGNw3ww4z8+c9/bjydMNVdxXRxuR9q7rvvvqBcjF133TW4VidV8NX1Pk6qv4eHbM9funRp0Td3qBTulEF3Clmu9J27UwgVUoHYSazMAACkpdNetLvItMsoxWlc7vX5nmbj+OMZ1VDouIW5/kH0fyo6fUt/1yld+QrPh3SnrumUJ/956U4XUz8u7jmZvlt9Tq6nq6XiPiPbPPanLxf5Pj/Mn0+FLtv58NelfJc397p8+wASdwqkBiBuaKEBAEROrRu6CF7/x1n37t1tqXCaB7roX372s58F/4e5Fg/94u7fQSwX5557bnDHLEcXiadqqfnFL34R3IhB9Px0d2zz77qllpN0dEvk8OlqKB9/3SpkOf3Sl75kS8nTDIE4IdAAACL37LPPNnaGqDtx5XNtSK522203Wwp+Yi7p4BR7S1256667bCl9vzz//u//bktN+6rJla7L8UNNqgNU3d1sxowZZsqUKTnfYStTWNHfKjnMuFOqasGOO+5oS4Xx+x4C4oBAAwAoq1//+teRHPh269bNliqXgpy7WF8X/6e7KFyPuwNwdxvefCmkqKVH18boOpdU9D3k25dLJVGrRLbB3bbZtYrlS61OLthm6tOlpX344Ye2ZMyAAQNsKXfFhiCgJRFoAABlpZ7Ra5Uu8nd9z7iL/9P5r//6r+B/PV+n6xVCQUYX+oeDU643UNDg30Qh1d8zDYWOd67U4pdtcIHQzfdq9f7779tSYQoJQUClINAAAMqqkk9Litq1114b/K9Wk2wtI/7paH/84x9tKX/u2hj/ND/18J/q4D/VcMYZZ9hX5RYg/EGnGQJA1Ag0AACUga5j8Xviz0bBzz1PfdYUe93RuHHjIrl2qdx0S2KdPuZf45TL8Mwzz9h3AFBtCDQAgLJRy0St8i/u9y/6z8Tvo0b9wRRKp34pTH3nO98J6t/85jfT9vPiBoWGVN+XAkWq54cH9e8SRYhQi1MhHVJW8vUvAIpDoAEAlM1+++1nS7XHXcuhi/1zPSDXQbi7tfLVV18d/F8Id8qaTjVTS5E+P91tmh3dtCDVdSd6D10fk41amIoNEflc65PPUKoOUiuJf5e/QvjXSgFxQ6ABAETO3WkqSqtWrbKl/C9ezzYUSy0kLhyopaSuri7nwd2dS/8XciCuAKNT1kSnsOUSpi644ILG0+P82x278imnnFLS09f8eezfbSufa33yGaqRf5e/QsLJypUrbQmIHwINACByrh+Uww8/PPg/CnPmzLGl/C9ezzY4hf6KXcxF/b5bbrnFlnLnn+p2zjnn2FJ6Cl8TJ04Mygow119/fVCW3/3ud8H/ClcXXnhhUC61qO+2NWnSpKytU3FXbDjJ1IEqUIkINACAyL3wwgvB/6Xoab8lFXKg6LeQKCDogDrfwZ12pj5s8mkZ0XPdqW65tM6oBei73/1uUNb1M268HQWBCRMmBGW9r+tTp1h+Hypdu3a1peS1Pv4NAPxrcjRf/Gt20g3+azT/zz33XFurLv7pfYW0iD755JO2VNt3IkRMJVZ2AADSShw4qqv8YEgncdDY+ByVfYkD0rR/87nn6PMKoc/REJVZs2YV9P4333xz47Tdfffd9tH8FPoe/neXad6Lpi8RYhqfr7r4362TCAaNjxU6Tb5cljHn6KOPbnyuG8d0li5dujURBoPnatqiXD5KxZ/f+a4Lblr1/eTLffeav0Dc0EIDAIiUa52RKO80pdaHXC+2L0Shd9dyF/OrxcPvWyYf/utuv/12W8pMrTNXXnllUNadyTLNe7XMHHbYYY3X+SRCSsbTstRyo+mRk08+ueiWGtc6oBaUbNRZqPtsjbM7nTFM069bVSdCTFBP1cFotTnqqKOC/3X9Uz4teZqH7ruP8rRQICoEGgBApCZPnhz8r4PqXJTjBgKF0vUl+Ry862J3d0B90kknFXwqjw7E3fxzdyrLRtfOuIPUX/ziF8H/qaQKMxrXTDQ+CgilCjUu9O67777B/5nos//0pz8FZY2z7saW6uBd1/i4GxtkC2jV4itf+YotGfPEE0/YUnb+LcFzXU+BSkKgAQAUzb9Y3r/bmH/9yPjx44P/JXxArvoke73I6NGj7aP50a/xujtXqoNbvX+6u5Xp+ToYz3QQ737tV8/3Z511Vk6BQu666y5banqwWQjdWczxL/RPRePrWmd0/U261hlNd75hxlFAcMFCFGo0b1LN/0wUqNzn5/rdH3PMMebmm28Oygotfqeh+l/j4a4d0jKV6zTFneaLC5nXXntt8H8u/vd//zf4X8tKLQQ/VCF76hkAACnlcn2Drk3Quf8a/OsUTjzxxOB1iYOs4HoGcddq6Hz/bNd15Mq/7kDvPWXKFPuXbddc+OPgmzBhQuNrM10P4qZFg94zG32WPlPP17QWK5/387+zVNOk9/KnJ93zxJ+3qWheu/HSkO/3euaZZza+NtX3k4n/Wl03os/1r+/R3+PGn9/6HvPlf/e69iqbbMsKEAcEGgBARrkEmlR0cORe5x+YhQ+kVc/3QDbMP4jVZ/nvl+2AzQ8K6UKP+M9L914+f/oVmkrBP4D3Q5vPH89w8NHfND/86VA507RkCzQSvqGABoW+bMHGH9dCw4c/T/yhVGHGBWIN+QS1QhUbaDRP9b2798j03frLaC4hHahUBBoAQFr+wZEOPHPlHyiluuNSqoPqdAfo2fiBReEoTNOQ6e/ij2+mg0iNo3uexlnvnY4fskp1dy3/YDfdAbt/gO9Pi6bRn+ca9N1mu1NYLoFGNI3+NLsh3TwXf1wLDQv6DvzQoUHTWap5HkWg0TzXe6Ua/Dvaaf6keo6GTMIBU9Og79+9VmV/uvS9ZVqWgUpHoAEANBE+OHSDHs+FHzAyHSjpgDP8Wfm21ujAzb02U8DQ+7rnpXuOH9wyjYP/XulChabNPSdVoCuG/+t7eDx1sOr+Fp4Olf0Akeu89t8zm/BnpJs/4r9vrstWmA7+/QP38KBp1OcUw19Gi30vJ906ls+QjdaNVAEzPGhcclkOgEpGoAEANOG3VviDHs9Ef/cPtnP91Td8UKr3yOXAUe/tf16mFh5/mtJNh/+cTK00Civ++KYa11yvyymEHxj9ayTC8yNdmNC45XJtheMHj1zpu8h0ml24BSGfoKDp1Pj706pBB+b63FRhQc/V+Ohz8xXXQONo+VOwC69jWj5KNT1ASyPQAACacK0LOgDSgZcOfNKFBR0Q6UDRP1jSoNfk86uvPjP8a3Kmg269t//8TC0Boue75+rgLh03Hfo/0/j7oUIHh5Ug/Iu85mkp+IEmn+80nXCYyfR9+LQM6nsOL2ua/+EDc9XThQa9Xp+p71DPK9V8AtByCDQAgLzpwDZ8YOkOFjO1lGTjt2xoSNW6oc/WAal7Tq4tQf7Bfjru83WQnO3XfD3HvV8+LR5RcvMm15CQC32fbjrDwaFQriVFy0uqQKF5r89S6EgXTPR4ttYvvYe/rGQbSt2aBqA8CDQAgILoYNE/GFQYKMUv+DqodL+ip+KHHj0v19OI9DqFkEzjqffK9aBWz3PjUGkHwqVsdfBbo0oVaJxU46lWGPd5qQb9Pd/x0OcodKYLRxpKGQIBlFed/kmsyAAA5O2qq64KevY/55xzgh7cS0WdLQ4YMCBtz/rqPFE9wasjxlw7TdRrCu2pPx115PnTn/605O9bSfQdn3feeUE5ESTSdtJZSvvuu29jL/+SCKLmZz/7mRk7dmzRy5mWgxkzZpjp06ebxx9/vPFzEmGWTiWBmCLQAACAijJt2jRz9tlnm6OOOsqccMIJkQcNfV45ghqAaBBoAAAAAMRWK/s/AAAAAMQOgQYAAABAbBFoAAAAAMQWgQYAAABAbBFoAAAAAMQWgQYAAABAbHHbZgAAKtzY/5puS0lPXDvKlgAAtNAAAAAAiC0CDQAAAIDYItAAAAAAiC0CDQAAAIDYItAAAAAAiC0CDQAAAIDYItAAAAAAiC0CDQAAAIDYItAAAAAAiC0CDQAAAIDYItAAAAAAiC0CDQAAAIDYItAAAAAAiC0CDQAAAIDYqtuaYMtV58QTTzT33XdfUG7Tpo2pq6sLyojGli1bzObNm4My8zt6zO/yYn6XF/O7qTE/esqWkv71m8NsqTSY3+XF/C4vzWvNc2F+R8+f388//7zZf//9g3KUqjrQjB8/3kyePNnWAACIpyN/Os2Wkv5x3cG2BACVa+rUqWbMmDG2Fp2qDjS//OUvzaWXXhqUDznkENOrV6+gjGi8/fbbZs6cOUF59OjRpmfPnkEZ0XjrrbfM3Llzg/Khhx5q6uvrgzKiMX/+fPP6668H5cMOO8x07949KCMab775ppk3b15QPvzww023bt2Ccq36bPA5tpTU5Z1rbKk03njjjWCQI444wnTt2jUoIxpatrWMC/M7etp2axsuRx55pOnSpUtQRjR0bKJjFFmwYIEZPHhwUI6UAk21uv766xXWgmHatGn2UUTlmmuuaZzfzz33nH0UUZk0aVLj/J45c6Z9FFGZOHFi4/x++eWX7aOIyqWXXto4v2fPnm0frV1H/nRak6HULr744sb5PWfOHPsoonLhhRc2zu9EuLGPIioTJkxonN+JYGMfRVTOO++8xvmdCDT20WhxUwAAAAAAsUWgAQAAABBbBBoAAAAAsUWgAQAAABBbBBoAAAAAsUWgAQAAABBbBBoAAAAAsUWgAQAAABBbBBoAAAAAsUWgAQAAABBbBBoAAAAAsUWgAQAAABBbBBoAAAAAsUWgAQAAABBbBBoAAAAAsUWgAQAAABBbBBoAAAAAsUWgAQAAABBbBBoAAAAAsUWgAQAAABBbBBoAAAAAsUWgAQAAABBbBBoAAAAAsUWgAQAAABBbBBoAAAAAsUWgAQAAABBbBBoAAAAAsUWgAQAAABBbBBoAAAAAsUWgAQAAABBbBBoAAAAAsUWgAQAAABBbBBoAAAAAsUWgAQAAABBbBBoAAAAAsUWgAQAAABBbBBoAAAAAsUWgAQAAABBbBBoAAAAAsUWgAQAAABBbBBoAAAAAsUWgAQAAABBbBBoAAAAAsUWgAQAAABBbBBoAAAAAsUWgAQAAABBbBBoAAAAAsUWgAQAAABBbBBoAAAAAsUWgAQAAABBbBBoAAAAAsUWgAQAAABBbBBoAAAAAsUWgAQAAABBbBBoAAAAAsUWgAQAAABBbBBoAAAAAsUWgAQAAABBbBBoAAAAAsUWgAQAAABBbBBoAAAAAsUWgAQAAABBbBBoAAAAAsUWgAQAAABBbBBoAAAAAsUWgAQAAABBbBBoAAAAAsUWgAQAAABBbBBoAAAAAsUWgAQAAABBbBBoAAAAAsUWgAQAAABBbBBoAAAAAsUWgAQAAABBbBBoAAAAAsUWgAQAAABBbBBoAAAAAsUWgAQAAABBbBBoAAAAAsUWgAQAAABBbBBoAAAAAsUWgAQAAABBbBBoAAAAAsUWgAQAAABBbBBoAAAAAsVW3NcGWq84NN9xgzj777KA8ceJEM3z48KCMaDz00EPm9ttvD8pXXnml2WWXXYIyovHAAw+YO+64IyhfffXVZsiQIUEZ0fjLX/5i7rzzzqB87bXXmp133jkoIxr333+/ufvuu4Py9ddfb3baaaegXKt+O207W0o66+BPbak07r333mCQX/3qV2bgwIFBGdHQsq1lXH7zm9+Y/v37B2VEQ9tubcPlxhtvNDvssENQRjR0bKJjFFmwYIEZPHhwUI5SVQea8ePHm8mTJ9saAADxdORPp9lS0j+uO9iWAKByTZ061YwZM8bWosMpZwAAAABiq2ZOObv44os5BSpiU6ZMaTwl57//+7/N0KFDgzKi8fDDDzeeknPZZZeVpUm3lj344IONp+ToFNZBgwYFZURDpyu4U3J0CuuOO+4YlGvVrS82nf7T9nnflkpDp+O4U3KuuuoqM2DAgKCMaGjZdqfkXHPNNaZfv35BGdHQtlvbcLnuuutM3759gzKioWMTHaNIuU45Mwo01er6669XWAuGadOm2UcRlcRGuXF+P/fcc/ZRRGXSpEmN83vmzJn2UUQlEWIa5/fLL79sH0VULr300sb5PXv2bPto7Tryp9OaDKV28cUXN87vOXPm2EcRlQsvvLBxfs+bN88+iqhMmDChcX7Pnz/fPoqonHfeeY3zOxFo7KPR4pQzAAAAALFFoAEAAAAQWwQaAAAAALFFoAEAoEKccd0sM/a/pjcbwlI955zfzrF/BYDaQqABAKBC/OzEYbaUv387is4wAdQmAg0AABViSP/OwZCvPYd0N3sO7W5rAFBbCDQAAFSQQlppaJ0BUMsINAAAVJB8W2lonQFQ6wg0AABUmHxaaWidAVDrCDQAAFSYXFtpaJ0BAAINAAAVKZdWGlpnAIBAAwBARcrWSkPrDAAkEWgAAKhQmVppaJ0BgCQCDQAAFSpdKw2tMwCwDYEGAIAKlqqVhtYZANiGQAMAQAULt9LQOgMATRFoAACocH4rDa0zANAUgQYAgArnWmlonQGA5gg0AADEgFppaJ0BgOYINAAAxEDQQkPrDAA0Q6ABAAAAEFsEGgAAAACxRaABAAAAEFsEGgAAAACxRaABAAAAEFsEGgAAAACxRaABAAAAEFsEGgAAAACxRaABAAAAEFsEGgAAKsBrb31s/vqPOebm+543l978T/P/rnjIfPtnd5mx/9/vzF7fuCH4/9vn3mV+PPHB4O963l+eeC14HQDUMgINAAAtZPorC80Vv3vKHHPmrebfzr/H/PdN/zA335sMKv968R3z+jufmiXLPwueq/9fX/Cpefqld4O/63kKNnqdXn/l76YG7wcAtYZAAwBAGSl0TPjVo+bgf/ut+eFlk829f59tFn+6yv61MHr9PX+fFbyf3lfvT7gBUCsINAAAlMGctz42P5n0cBA6Hnn6DfPZ2g32L0mtWrc1bdp2MJ3r+5kuvXYy3bYbZnrs8EXTa+CepteOI4P/Vdfj+ruep+frdT69r95fn6PP0+cCQDUj0AAAEKEPPl5pLr7xCfPd8+8xU19YYB9NatO2o+nUbXtT33d4IrDsZXr03910qu9vOnbdzrTvVG/atO+cCCztTKtWrYL/Vdfj+ruep+frdXq93kfv59Pn6XP1+RoPAKhGBBoAACJy/R+fMcf98DYz+cm59pEkBZIe/XZLBJLdTOeeO5q2HbravxRGr9f76P30vnp/nz5f46HxAYBqQ6ABAKDEVn72ufnRxAfNHx58yT6S1L5TzyBw6JSxNu2atqaUit5X76/P0ef5ND4aL40fAFQLAg0AACX0+oJPzCkT7jXPvPSufcSYdh26mu7bf8F0225IZEEmTJ+jz9Pn6vMdjZfGT+MJANWAQAMAQIk8Nn2++f6E+8y7i1bYR4zp3GOg6d53uGnXsZt9pLz0ufp8jYej8dN4anwBIO4INAAAlMCtD8w05133iNm4aXPygbo6063PUNOpe99kvYVpPDQ+Gi/ReGp8Nd4AEGcEGgAAiqSWjl//abqtGdO6bcfgFsvtO/ewj1QGjY/GS+PnaLw/bGh662cAiBMCDQAARdC1KL/49WO2ltixtmqbCA27mjbtOtlHKovGS+On8XRe+qCT6eSdkgYAcUKgAQCgQLpb2AW/erTxNDO1fPQcsLupa9U6qFcqjZ/G07XUbNlqzI77fMe0rtAQBgCZEGgAACiQWmYabwAQXDMzuOLDjKPx1Pi6a2rad90+CDUAEDcEGgAACqBOKv1bM3frrVsyx6uFQ+Or8Xa69f2iuesx7nwGIF4INAAA5OmDj1c26TRTt0SutBsA5Erj7d/Secr094LpA4C4INAAAJCn3//lBVtKdppZKbdmLpTG3+98058+AKh0BBoAAPIw562PzeQn59qaMR2797OlePOnQ9On6QSAOCDQAACQh9/9dVtHlO079Qx64q8Gmg5Nj+NPJwBUMgINAAA5mv7KQjP1hQW2Zkyn+uponXH86dF0anoBoNIRaAAAyNGUp9+wJWM6dt3OtGm3rcf9aqDp0XQ5/vQCQKUi0AAAkKOnX3zHlozp4B34VxN/uvzpBYBKRaABACAHOv3qs7UbgnKbth2rrnXG0XS1adshKGt6Oe0MQKUj0AAAkINnXtp2YF8tNwJIp12nelsy5mmv81AAqEQEGgAAcvD0S9tOv2rXKZ6daOaqXYdtgeYZAg2ACkegAQAgi9fe+tgs/nRVUG7Vuq1p63VCWY3aduwaTKdoujX9AFCpCDQAAGQxf+ESW0rsOFu1tqXq5k/nW+8ttSUAqDwEGgAAsliyYo0tGdO+87bOJ6uZP52fLv/MlgCg8hBoAADIYsnybYGmzp6KVe386fSnHwAqDYEGAIAslngtFK1at7Ol6uZP51KvhQoAKg2BBgCALJY2bDugb13GFpp1qz6ypfLzp9MPdABQaQg0AABksWTFWltK7DjblCfQrF7ylplxx6nm/Zfvs49ss+LDWebNJ68zW7dusY+Unj+dSxq2TT8AVBoCDQAAWfgtFHWtog80CjMv3fcjs2n9Z2b+1F+bd567NXh82XsvJB7/z2D4YNZfzYezJwePR6KujS3QQgOgshFoAADIok/PLrZkzNYtm2wpGgoxrz44IfjfUaBZ8vYzpuHDWUHrjLPo1QgDzdZt0+lPPwBUGgINAABZ9KnvZEvGbNm80ZZKTyFm9kM/b3btzI5fOsH0GXqI6b/H8faRpM+WvmM+fftpWyutLZu2TWefHtumHwAqDYEGAIAs/BaKLZs22FJpKczMfexys+KDV+wjSQozuxz646Dcoet2pt+IY4Oysyii0842e8Gtd31nWwKAykOgAQAgi949th3QR9VCo2tldFqZr9+IY8zgA0+ztaQBe37NlpJ0Xc3Kj+baWuls2bwtuHHKGYBKRqABACCLPj2jDTS6k9niuY/YWlLXPsOClpk27ZuGiW59v2h6Ddrf1pKiuDnAVm86/ekHgEpDoAEAIIvtvBaK9WuW2VJpKMyodcbXsdsOZuQJv2kWZpwBoWtpPnr97+bz1Z/YWmmsX7PClnQNDYEGQOUi0AAAkMWwnXrbkjFbtmy2peKpVcbdktlRiNnjaxPThhnRDQK69Blia0mlbqXZ4t3NbZdBfWwJACoPgQYAgCx2H9bX9NuuW1DWKWcbP18dlIuhvmbUMuPfnlkhZsTRFwSnm2UTbqXRLZxLdUtpTZ87tU7TrekHgEpFoAEAIAeHjNzZlozZsHbb6ViF8DvOdFyYUetLLvrv8TXTtmN3W0uGkFK10vjTN3rkYFsCgMpEoAEAIAej/UCzbpUt5U8h5vVHJzYJM6K7meUaZqSurlWzVpoPX33QlorjT98hIwfZEgBUJgINAAA5GLX3INOlU7ugvGnjOrNpw7qgnA/X14xaaHzqa0ZDvgbs2TTQrFn2rvn0ram2VhhNl6ZPNL2abgCoZAQaAAByNHqfbadffb76U1vKjQsz4b5m/I4z89W+Sx/Tb7emHW0We9qZP13+9AJApSLQAACQo2NHD7clY9YlDvzzaaXJtePMfIVPO1v+/otm5eLXbC0/mh5Nl+NPLwBUKgINAAA50ulXh+637XbJaxsW21Jm+XScma9ufXc1vXY+wNaSCr2Wxp8eTSenmwGIAwINAAB5+MHX97UlY9avXZ71BgHpOs7M1tdMPpp3tPmoWbfqI1vLjaZD0+P40wkAlYxAAwBAHnYb1tccf/gIWzNm3cr0rTSZOs5UqCmVPkMONl37DLW1pEV5XkvjT4emT9MJAHFAoAEAIE///o39bMmYDZ+vNmtXfmxr2xTbcWa++ofueKbTzlznmNlo/DUdjj99AFDpCDQAAORpYN/u5vtfG2lrxqxZ8YFZv2ZbZ5Q63avYjjPzpdPO2nXqYWvJu6otejV7K43GW+PvHDtqp2D6ACAuCDQAABTg7O8dYg7xOttctXSB2bRhbRAkXn1wQpMwI/l2nFmIZh1tzs58cwCNr8bbWfXx6+bbR+9iawAQDwQaAAAKdNmPjzY797etIlu3mhWL55i5j5au48x89d/ja7aUtGb5QvPJ/KdsramtWzabVUveCcZb1q/+xLz/4p1BGQDihEADAECBunfpYC7/f+NM2zatzeaN68zC528zSxaUruPMfLXv0tv03/04W0tKddqZwszyD18Lxlla1ZkgzGzesDaoA0CcEGgAACjCF4dsH7TUfDLvsWYdWuoUs2I7zsxX/2Ydbb5kGrzx0mlmKz6aZ7Zs2XbDgJED15q13nU0ABAnBBoAAIo0b+YjZsnb/7K1pI71/c3QQ35Ysr5mctVt+y+Y3oMPsrUkdwtn3QBgxUevN7bMyI+/O8oMqM/tbmgAUInqtibYctW59NJLzS9/+cugfOSRR5revXsHZUTjjTfeMLNmzQrKY8eONb169QrKiMa8efPM7Nmzg/JRRx1levbsGZQRjddff928+uqrQfnoo482PXpsu5sUSm/u3LnmtdeSrQrjxo0z9fX1QbkSvfnmm+aVV16xtaR2nXqaIaN/GPzfucdA06l7eft0WfLOdDN78nm2lvSlE240mzdtsLXEAYDZavq1WWC6tVpm5syZEwzy5S9/2XTvzl3OoqRlW8u4HHPMMaZbt25BGdHQtlvbcDn22GNN165dgzKioWMTHaPIggULzODBg4NylKo60IwfP95Mnpxfx2IAgJa359evt6XKtvy9F8ziVyc3afFo3bZjIsycZTp2H2AfSQScDl0T9X6mXcfyHbjO+NNpZvWn823NmO12OdzssJu7vka7/rpkMWT2X8+2JQAoztSpU82YMWNsLTqccgYAQAHWrVyUMswMHHlykzAj6rRy5SdvmlWf6tbO254fpR1GHGNLScvefdZs3bzJ1lKHGQCIo6puobnhhhvM2Wcnf2l6+umnzUEHNT2nGKV13XXXmXPPPTcoT58+3ey///5BGdG4+uqrzc9//vOgPGPGDDNy5LZO/lB6V155pfnFL34RlF988UWz1157BWVEY+QJv7GlyrRh7XKz4Okbg/99gw44zXTvt7utpdex63amQ2Jo066jfaR0FJg+X/2pWZcY5j7yS7MpEaacfnscb/oMzfxr6R0XH2G++MUv2hqicPHFF5vLLrssKOtUv+HDhwdlROPCCy80V1xxRVDWqVDDhg0LyojGhAkTzFVXXRWUOeWsBPxAM23aNDNq1KigjGhce+215pxzzgnKzz33nDnggAOCMqKhjcV55yXPkZ85c6bZZ599gjKioZ2hNtLy8ssvm7333jsoIxp7feMGWzLmlJOa3oa4pa1bs8rceMl3zKKFyXPEneO/f4EZc+yptrbNqs/WmtfmvmXeevd9+8g2bdp2DE5DUw//bTsUfl7/xkRo2bB2hdmwbpXZ5LUYfTzv0eDua852/Qabn9/wuK1tc/s9D9uSMXf+91gzYsQIW0MUdH2vrvMVHWATaKJ1wQUXmIkTJwbl+fPnE2gidv7555tJkyYF5XIFGk45AwAgRwozd//2vGZhRkEmVZiRbl06mVH772m+MvZgM3BA05sDKHysXfWJafj4DbPsg1lmxaLXzNqGRUHryvq1DWbT+jVmy+YNZsuWLcH/qutx/V3P0/P1Or1e7+OHGdljVNNbOH+6+B0z67lHbA0AqgOBBgCAHLgw89rMJ+wjSQoyap3JpnevHuaIg/c1Y8fsbwYPGmDatm1j/5K0ZfPGRCD53KxpWGw+W/aeWfXpW8Etlpd9MNsse/+l4H/V9bj+rufp+XqdT++r99fnHHPUWHPgkSfZvyRNf/wuWwKA6kCgAQAgB4/9+TfNwkz/Qbuao7/5I1vLTf8dtjOjD9jbfOcbXw5Cx67DdjZdOneyfy2MXj982KDg/fS+en99jhw09uTgf+ftuc+bd+bNtDUAiD8CDQAAWfxrym3B4FOY+eFFd5qOnQu/FbNCx/4jdzPfPO4Ic+zYQ8xB++5h9tptF7PLkJ3MwH7bm949u5tOHTsEz9X/vXt0Dx7X3/W8g/bbM3idXn/AyN0bQ4xvwM4jzIiRh9ta0vQn7rYlAIg/Ag0AABkoyEz+w+W2ltSzzwBz2s9uKirMhPXpVW+DyheCYHPE6P3MV44abU742tjgxgj6/ytHjw4eTwafL5hdBu8YvC6bcCvNy9MeMks/aX6TAgCIIwINAABp6BQznWrmU4hRmFGoiYsvfukwM3DwbraW9CzX0gCoEgQaAABS0J3MdBMA3QzAUZg5+axJwelmcXNgqJXm2SfuMhvWl6eTTwCIEoEGAICQ5Us+NLdefWaTMCO6m9nu+461tXg58IgTTbce266xWf/52kSo4VoaAPFHoAEAwKMQozCjUONTmNnv0G/YWjyFr6Uh0ACoBgQaAACsQjrOjJNRY79tS0lLPnrXvDL9b7YGAPFEoAEAwErVcaZaZfLta6ZSdeneq1krzfQnuDkAgHgj0AAAkKBbM6fqOFOnmpXy9swt7aBQK82C118wny1dYGsAED8EGgBAzYuq48xKpOnabZ8jbC1p2bvP2hIAxA+BBgBQ08rVcWYlCbfSNHzwsln/2RJbA4B4IdAAAGqWLv6vho4z87Xr3mPMwCG721oSrTQA4opAAwCoSQozN17ynarpODNf4VYaBZotmzbYGgDEB4EGAFBzqrHjzHwdcPi3TPee29uaCcIMrTQA4ohAAwCoKdXccWa+mrfSTLclAIgPAg0AoGZUe8eZ+VKfNHV1dbZmzPrPlpopU6bYGgDEA4EGAFAzUvU1U00dZ+arS7eezVpp7r//flsCgHgg0AAAaoLCzAtT/2JrSdXYcWa+1Erje/HFF83UqVNtDQAqH4EGAFD1aqnjzHz122m46d6v6S2cb775ZlsCgMpHoAEAVDW1yoT7mqn2jjPz1Wvng2wp6d577zVvvvmmrQFAZSPQAACqli7+16lmqfqaqeaOM/PVdfvhplOPHW0t6ZZbbrElAKhsBBoAQFXK1HHm0BH720fg9Bo8ypaSdNrZ6tWrbQ0AKheBBgBQdeg4M389d9rPtO1Yb2vGrFu3jmtpAMQCgQYAUFXSdZw57ls/rrmOM/MVvpaG084AxAGBBgBQNTJ1nHl0ItAgs16DDzKtWm07NFiwYIG58847bQ0AKhOBBgBQNeg4szht2nU2J554oq0lcdoZgEpHoAEAVAU6ziyNE044wZaSpk2bZp588klbA4DKQ6ABAMQeHWeWzrBhw8z48eNtLYlraQBUMgINACDWUnWcqRBDx5mFO+OMM2wp6b777jNvvPGGrQFAZSHQAABiK13HmaedcxMdZxbhqKOOMgcccICtJXEtDYBKRaABAMQSHWdG6/TTT7elJAWalStX2hoAVA4CDQAgdug4M3qnnHKK2XHHHW3NmPXr13MtDYCKRKABAMSK62sm3HGm+pqh48zSCl9Lw2lnACoRgQYAEBsuzLw9d4Z9JElhRq0zKC0FmrZt29qaMe+++6654447bA0AKgOBBgAQG3ScWV49evRIeS0NAFQSAg0AIBYeu//XdJzZAsKnnT377LPmn//8p60BQMsj0AAAKp46zXw0EWh8dJxZHiNGjDDf+EbTa5NopQFQSQg0AICKRseZLS/cSvPnP//ZvP7667YGAC2LQAMAqFjrVi6i48wKcOSRR5oDDzzQ1pJopQFQKQg0AICKpDCz4Okb6TizQoRbadQnTUNDg60BQMsh0AAAKs7mjevMwuduDf730XFmy/ne975nBg0aZGvGbNiwgVYaABWBQAMAqCj61X/h87eaDWuX20eS6Diz5dHRJoBKRKABAFQMhZlTTz3VfLbkbftIEh1nVgb1SdOuXTtbM+a9994zf/jDH2wNAFoGgQYAUDHOPvtsM3nyZFtLouPMylFfX5/yWhoAaEkEGgBARbjhhhvM7bffbmtJHbv3p+PMChMONM8995x54oknbA0Ayo9AAwBocQozap3xKcwMGf1DwkyF2XXXXc23vvUtW0viWhoALYlAAwBoUWqVueSSS2wtqXXbjmbgPicH/6Py6Foa31//+lczZ84cWwOA8iLQAABazKxZs4KWGb8/E12nMXDkyUELDSrTEUccYUaNGmVrSVxLA6ClEGgAAC1CYeawww5rFmZuu+02073f7vYRVKpUt3BevrzprbYBoBwINACAslOIGT9+fJMwI9dff705/vjjbQ2V7Lvf/a4ZPHiwrRmzadMmrqUB0CIINACAsnJhZuHChfaRpJ/85CfmlFNOsTXEQfhaGk47A9ASCDQAgLJRmFHHmVOnTrWPJCnMqHUG8aLTzjp06GBrxrz//vvNbr0NAFEj0AAAyiZVx5lqlbnoootsDXHSrVu3lNfSAEA5EWgAAGWRquPMvfbaK2iZ0c0AEE/h085mzJhhHnvsMVsDgOgRaAAAkUvVceagQYPMU089RZiJueHDh5sTTjjB1pK4lgZAORFoAACRStVxpkLMAw88QJipEuHTzvTdvvbaa7YGANEi0AAAIpOu40z1NaPTzVAd1J/QIYccYmtJXEsDoFwINACASGTqOJO+ZqpP+FoaBZqlS5faGgBEh0ADACg5d3tmP8yI7mZGmKlO3/nOd8yQIUNszZgtW7ZwLQ2AsiDQAABKyoUZtdD41NeMBlQvbuEMoCUQaAAAJePCTLivGTrOrA0KNJ06dbI1Yz788ENz66232hoARINAAwAomVQdZ+oUMzrOrA1dunRpdi0Np50BiBqBBgBQEuk6ztRNALg9c+0In3b2wgsvmEcffdTWAKD0CDQAgKKl6ziTvmZqzy677GJOOukkW0viWhoAUSLQAACKkqnjTIUa1J5wK82DDz5oZs+ebWsAUFoEGgBAweg4E6mMGTPGjB492taSuJYGQFQINACAgixcuJCOM5FWqls4L1myxNYAoHQINACAvCnEjB8/vkmYETrOhHPyySebYcOG2ZoxW7du5VoaAJEg0AAA8uL6mqHjTGRDR5sAyoFAAwDImQszdJyJXKhPms6dO9uaMYsXLza///3vbQ0ASoNAAwDIme5mRseZyJXCDK00AKJGoAEA5ER9zWjw0XEmsgkHmhdffNE88sgjtgYAxSPQAACyouNMFGro0KHm29/+tq0l0UoDoJQINACAjHSKGR1nohi6lsb38MMPN7upBAAUikADAEhLB526CUCqvmboOBO5Uiebhx56qK0l0UoDoFQINACAlNRxZqq+Zug4E4UIX0tzyy23mE8++cTWAKBwBBoAQDMKMQozCjU+3ZqZMINCnHjiiWaXXXaxtSRaaQCUAoEGANAEHWciKqlaaQCgWAQaAEAjOs5ElBRounbtamvGfPTRR+b//u//bA0ACkOgAQA0StVxpi7+p+NMlELHjh3paBNAyRFoAACBdB1nPvXUU/Q1g5IJ38L55ZdfNn/7299sDQDyR6ABANBxJspmyJAh5jvf+Y6tJXEtDYBi1G1NsOWq8/Wvfz3YGUtdXV3wP6LlFifmd3kwv8trj/HX2VJ1+WzJ22bh87eazRvX2UeMad22oxky+oemY/f+9hGgdNYse8e8/a/f2FrSLof/l+lYP8DWaserD/zUlhAV/1CX/WX0/Pk9depUM2bMGFuLTlW30PgzVGWG6Acn1d8YSj84qf7GUPqhGq1buShlmBk48mTCDCLTuddg06XPMFtLWvbOs7ZUW1JtaxhKO/hS/Z2htENLqOoWmosvvji4wFUOO+ww06tXr6CMaMyfP9+8+uqrQfnwww83PXv2DMqIxptvvmlee+21oHzEEUeYHj16BGVE44033jCtd/l3W6sOG9YuNwuevjH436cw03On/WwNiEbDh7PMey/8wdaSvnjMJaZth262Vhv6rnm0yZ3fUHpz5swJtuEybtw406VLl6CMaOjYRMcosmDBAjN48OCgHKWqDjT+OeHTpk0zo0aNCsqIxrXXXmvOOeecoPzcc8+ZAw44ICgjGldddZU577zzgvLMmTPNPvvsE5QRjSuuuMLc+2JHWzPmlJOOs6V4Wrdmlbnxku+YRQvn2UeSjv/+BWbMsafaWsu6/Z6HbSn+87vStdS8vuLso82nixbYmjFHf+vHZlxiqHb+/L7n8nFm+PDhtoYoXHDBBWbixIlBWT++DhvWtHUQpXX++eebSZMmBeVyBRpuCgAANUZh5u7fntcszCjIVEqYQW0YNfZkW0p69vG7bAkAckegAYAaozDz2swnbC1pv0O/YY7+5o9sDSiPg8Z+23TotO10q9Url5pnn7jb1gAgNwQaAKghk/9webMw03/QrsGpZh0719a1C2h5bdq2S4SaUCvNPwg0APJDoAGAGvGvKbcFg09h5ocX3UmYQYtRK41v0buvm7kvPWlrAJAdgQYAaoCCjFpnfD37DDCn/ewmwgxaVK/tBph9Rh9va0nTuZYGQB4INABQ5XTx/2N/btqJoUKMwoxCDdDSwq00816Zaj5YkLwtPQBkQ6ABgCqmMKPbM+vOZo7CzMlnTQpONwMqwc5f+JLZZfeDbC2Ja2kA5IpAAwBVavmSD82tV5/ZJMyIbgCw+75jbQ2oDOFWmuf/eZ9ZueJTWwOA9Ag0AFCFFGIUZhRqfAozukUzUGn2PGCc6TtgqK0l0S8NgFwQaACgytBxJuLqwPAtnJ+4y2zdutXWACA1Ag0AVJlUfc3QcSbiYNTYbze5695nq5ab57iWBkAWBBoAqCIKMy9M/YutJdFxJuKidZu2za6lmf44gQZAZgQaAKgSdJyJajAqdNrZ4vfmmTkz/2FrANAcgQYAqoBaZcJ9zdBxJuKoR5/+Zt8xX7e1JG7hDCATAg0AxJwu/tepZqn6mqHjTMTRQaFWmnmv/Mu8v+BVWwOApgg0ABBjmTrOHDpif/sIEC+DdtnbfGGPg20t6VmupQGQBoEGAGKKjjNRzcKtNDOeut80LPvY1gBgGwINAMRQuo4zx33rx3Sciaqwx/5Hm74Dh9laErdwBpAKgQYAYiZTx5lHJwINUC2a38JZHW1usTUASCLQAEDM0HEmaoU62uzUpd7WjFmzegXX0gBohkADADFCx5moJa1at252Lc30J+6yJQBIItAAQEzQcSZqUTjQfPT+m81aKAHUNgINAMRAqo4zFWLoOBPVrkfvfs1udPHs47TSANiGQAMAFS5dx5mnnXMTHWeiJoRvDvDG7GfMe2/NtjUAtY5AAwAVjI4zAWN2GranGb7nIbaW9CzX0gCwCDQAUKHoOBPYJnwtjU7DbFj2ka0BqGUEGgCoQK6vmXDHmeprho4zUYt23+8os8OOX7C1JPVLAwAEGgCoMC7MvD13hn0kSWFGrTNArVK/NL5nn7jbbNm82dYA1CoCDQBUGDrOBFI76KiTTeeuPWzNmLWfNdAvDQACDQBUksfu/zUdZwJp1NW1anYtzXNP3G1LAGoVgQYAKoQ6zXw0EWh8dJwJNBW+hfNHH8w3r854zNYA1CICDQBUADrOBHJT36uv2f+wb9lakq6lAVC7CDQA0MLoOBPIz0FjT7KlpDdfnWYWzn/F1gDUGgINALQgOs4E8rfj0D3N8L1G21oSrTRA7SLQAEALUYih40ygMOFbOM/811/NiiWLbA1ALSHQAEALCMLMNWfScSZQoN32PdL022lXW0uaTisNUJMINABQZgozdJwJFC98LY1u4bx500ZbA1ArCDQAUGZ0nAmUhm7h3KVbT1szZu2alVxLA9QgAg0AlJH6mqHjTKA06urqmvVL8+wTd9kSgFpBoAGAMlGYUeuMj44zgeIcdFTTQPPxh2+b2c8/amsAagGBBgDKIF3HmSefdRVhBihC9x7bmQMOp6NNoJYRaAAgYuk6zlRfM2qhAVCc8Gln81+bbt5982VbA1DtCDQAEKFMHWfS1wxQGgOH7G523ftQW0viWhqgdhBoACAiQV8zdJwJlMWo0LU0Lz492Sz7tGk/TwCqE4EGACIQhBk6zgTKZsTIw5udwql+aQBUPwINAJSYwgwdZwLlF76WZvoTd5lNGzfYGoBqRaABgBKj40ygZRw09mTTtXtvWzPm87WruZYGqAEEGgAoITrOBFpWuF+a6Zx2BlQ9Ag0AlEiqjjN79hlAx5lAGR105Em2lPTpogVm1nN/tzUA1YhAAwAlkK7jzNN+dhNhBiijbj22MwcecaKtJXHaGVDdCDQAUCQ6zgQqS/i0s7fmPGfeeeNFWwNQbQg0AFAEOs4EKs+AnUcEt3H2cQtnoHoRaACgQMnbM5/bJMyI7mZWiWFGfeKE774GVKsDQ9fSvPjMg2bZJx/YGoBqQqABgAK4vmbUQuNTXzMaKtHTj/whGGegFqiFRi01Pq6lAaoTgQYA8rR547ogGIRbOyq540y1zujGBQpi4dtKA9Wq+S2c7zIbN3xuawCqBYEGAPK0+NXJzcKMTjGr5I4z1TrjTo0L31oaqFa625nueuasX7fGPMu1NEDVIdAAQB6WvP0vs/y9F2wtSXcy000AKvX2zK51xqGVBrUk3C8NgQaoPgQaAMiRwoxaZ3zqOLPS+5p57P7fNLtxgR4DakH4tLNPF79jXnl2iq0BqAYEGgDIwcsvv2w+mfeYrSUpxCjMKNRUqnR3Ngu32gDVqmv33uagsSfbWhI3BwCqC4EGALKYNWuW+dvf/hbcDMCJS8eZqVpnHFppUCsOOrJpoHl77gzzzryZtgYg7gg0AJDBwoULzWGHHWY+/3zbnZFat+0Yi44zs/U7QysNakX/nb/YrKPN6VxLA1QNAg0ApNHQ0GDGjx8f/O/bftejKz7MSKbWGYdWGtSKUaFraV6e9pBZ+vF7tgYgzgg0AJCCQsypp54anG7m6zN0TDBUOnX4mUvrS7ZWHKBa7Lr3oWbgkN1tLUn90gCIPwINAIS4MDN5ctM7minI9NvjeFurbE8/crstZTf5dvqlQW0IX0vz3BN3mw3rt10bByCeCDQAEHLJJZc0CzODBw8OTjWLg1xbZxxaaVArDjjiBNPd72jz87X0SwNUAQINAHhuuOGGYPDttdde5rvf/W5wM4A4yKd1xqGVBrUi3C8Nt3AG4o9AAwCWgszZZ59ta0mDBg0yDzzwgOnQoYN9pLLpdrSF3LmMVhrUioPGftvU1dXZmjFLPlpoXp7+sK0BiCMCDQAk6BQznWrmq6+vD8KMQk1cFNI64zx2/69tCaheXbr1NAeGrqXhtDMg3gg0AGqe7mSmmwD4t2dWmLntttuC083i5LSf3WSuv+/tZoM6AvVdeONUM/G2l5sMP7zoTvtXoLqNOqppoFnw+gvBACCeCDQAapo6zkzV14zCzPHHx+OOZoXo2KlbEHLCA1AL+u20q9lt3yNtLYlbOAPxRaABULMUYhRmFGp8119/fVWHGQDGjBrb9OYAr0z/m1ny0bu2BiBOCDQAalK6jjN/8pOfBAOA6jZ8r9FmxyF72FoS19IA8USgAVBz0nWcqSCj1hkAteGg0LU0CjTqmwZAvBBoANScVB1n6uL/iy66yNYA1IL9D/uWqe/V19aM2bB+Hf3SADFEoAFQU9J1nPnUU08FdzYDUFvUL42P086A+CHQAKgZmTrOJMwAtemgsSeburpth0NLP37PvDztIVsDEAcEGgA1YerUqVXRcSaA0urctUeza2mm00oDxAqBBkDV053Mwn3NxLXjTAClF76F8zvzZpq35z5vawAqHYEGQFVL13FmrfU1s27NKltKohNNYJsddvyC2X2/o2wtiWtpgPgg0ACoWpk6zjzllFNsDQCS19L4Xnl2ivl08Tu2BqCSEWgAVCU6zgSQj+F7HmJ2GranrSXRSgPEA4EGQFXS3czCfc2oVYa+ZgCkE76F8/TH7zKfr/vM1gBUKgINgKqjMHP77bfbWpIu/tepZtyeGUA6+x36DdOjdz9bM2bTxvW00gAxQKABUFXoOBNAMcLX0jz7xF22BKBSEWgAVA06zgRQLAWaVq1b25oxyz75wLz4zIO2BqAS1W1NsOWq4x/cXHrppeYLX/hCUEY0Hn74YXPHHXcE5csvv9wMGzYsKCMaDz74oLnzzjuD8hVXXGGGDBkSlGuV7mSmjjPXrFljHzGmc+fOwTUzpeg4U6Ho9fX72Zoxp5x0nC3Fw9knDLWlpOvve9uWKtft9zxsS/Gb33HDvG7qr7deYp55NLk/k52/MNL8+NJ7ba14Teb3Icb079/f1hCFu+++O9iGy69+9Suzww47BGVEQ8cmOkaRBQsWmMGDBwflKFV1oNHtWsMXBQPVZM+vX29LtW3dykVmwdM3ms0b19lHjGndtqMZOPJk073f7vaR2jb7r01brlh2gPQ+X/WRefMfV9la0pBDzjJd+pT+h7rwuglUk6lTp5oxY8bYWnQ45QxArG1Yu9wsfO7WJmFG+u1xPGEGQEE6dNshsf3Yw9aSlr3zrC0BqDSccoaS4ZSz8lJz7px1+9habVKIUcuMWmh8CjN9hkb/i1Cc0EID5Gf1p2+ad6bdbGtJXxh7vunQdXtbKw1OOYsep5yVF6eclZgfaKZNm2ZGjRoVlBGNa6+91pxzzjlB+bnnnjMHHHBAUEY0rrrqKnPXjHa2Vnvnva9bs8rc/dvzzGszn7CPJI059lRz/PcvsLXSifs1BlxDg0yY16n96hffMgvnv2Jrxow+5hQz/pRf2Frh/Pl9z+XjzPDhw20NUbjgggvMxIkTg/L8+fP5wTVi559/vpk0aVJQLleg4ZQzALE0+Q+XNwsz6kPi6G/+yNYAoDipbuH8+drVtgagUhBoAMSOwswLU/9ia0n9B+0atMx07NzNPgJHrVk+5hGQm33HfN306LPtdLBNGzeY6fRLA1QcAg2AWPnXlNuCwacw88OL7uRAHUDJjQq30jx+ty0BqBQEGgCxoVaZx/78G1tL6tlngDntZzcRZgBE4qCx3zat27S1NWOWL/nQzPxX8gJzAJWBQAMgFhYtnBecauafPqUQc/JZk4JQAwBR0HYmfC3Nc/+glQaoJAQaABVPYebGS76TMswMHbG/fQQAoqFWGt+7b75s5r823dYAtDQCDYCKptM7br36zGYXtusGALvvO9bWACA6fQcMNXseMM7WkriWBqgcBBoAFUshRmFGocY37ls/Dm7RDADlEm6lmT3jUfPxh5XfnxNQCwg0ACqSwow6ztTpZj51nHl0ItAAQDntsvtBZucvfMnWktQvDYCWR6ABUJHoOBNApQm30jz7+F1m7ZqVtgagpRBoAFQcOs4EUIn2GX286bXdtrsqbt68iWtpgApAoAFQUeg4E0Ala9ZKwy2cgRZHoAFQMVJ1nKkQQ8eZxVm3tukd4jp2Yl4ChVKfNG3atrM1Y1YsWWRm/uuvtgagJRBoAFSEdB1nnnbOTXScCaBidOjUtVkrzfTHuTkA0JIINABaHB1nAoiTUWNPtqWk996aZd6cPc3WAJQbgQZAi6LjTABxs13/IWavA4+xtSSupQFaDoEGQItxfc2EO85UXzN0nAmgkulaGt+rMx4zH30w39YAlBOBBkCLcGHm7bkz7CNJCjNqnQGASjZstwPN4OH72FqS+qUBUH4EGgAtgo4zAcRduJVGp52tWd1gawDKhUADoOweu//XdJwJIPZGHvI102v7gbZmzJbNm81zXEsDlB2BBkBZqdPMRxOBxkfHmQDiils4Ay2PQAOgbOg4E0C1GZUING3bdbA1YxqWfWReeOrPtgagHAg0AMqCjjMBVKP2HTunvJYGQPkQaABEjo4zAVSzcKB5763Z5o3Zz9gagKgRaABESiGGjjMBVLPt+g02ex90rK0lcQtnoHwINAAiE4SZa86k48wWtm7NaltK6ti5qy0BKJXwzQF0W/rF771hawCiRKABEAmFGTrOBFArdPrskF33tbUkrqUByoNAAyASdJwJoNY0uznA4+poc4WtAYgKgQZAyamvGTrOBFBrvnTwV03vvjvZmjFbt26hXxqgDAg0AEpKYUatMz46zgRQK9Qvje/ZJwg0QNQINABKJl3HmSefdRVhBkBNOOiob5t27TvamjErl39iZjx1v60BiAKBBkBJpOs4U33NqIUGAGqBwkyqa2kARIdAA6BomTrOpK8ZALUmfAvn9xe8aua98i9bA1BqBBoARQn6mqHjTABo1GeHQeZLo46ztSSupQGiQ6ABULAgzNBxJgA0o2tpfHNe/KdZ/N48WwNQSgQaAAVRmKHjTABITZ1sDvnifraWNJ1raYBIEGgAFISOMwEgs1S3cP5s5TJbA1AqBBoAeaPjTADIbu9RXzF9dtjZ1pKmcy0NUHIEGgB5SdVxZs8+A+g4s4KFb9jA9wSUz6jQtTTPPcFpZ0CpEWgA5Cxdx5mn/ewmDpIBIIUDjzzJtO/QydaMWbniU7N84fO2BqAUCDQAckLHmQCQv2RHm01baZa+86wtASgFAg2ArOg4EwAKF76F87qGD8yqj1+3NQDFItAAyCh5e+Zzm12HobuZEWYAILve2+9oRh7yNVtLWvYurTRAqRBoAKSVDDPnBS00PvU1owEAkJuDjjzJlpJWfTTXrGtYZGsAikGgAZCSCzPhvmboOBMA8jd4133N0BEH2FrSsnen2xKAYhBoAKSku5mFw4xOMaPjTAAoTPgWzsvefc4sW0ZHm0CxCDQAmlFfMxp8upOZbgLA7ZkBoDB7HXiM2a7fYFtLuueee2wJQKEINACaSNdxJn3NAEDxDhp7si0lEWiA4hFoADTK1HGmQg0AoDg67ax12w62ZszSpUvN//7v/9oagEIQaAAE6DgTAKLXpm1702vng2wt6ZZbbrElAIUg0AAwy5d8SMeZVWzd2qZ9CHXsxKmDQEsKB5qXX37Z/O1vf7M1APki0AA1TiHm1qvPbBJmhI4zASAa7Tr3Mj123MfWkm6++WZbApAvAg1Qw1xfM3ScCQDlFW6lmTJlinnppZdsDUA+CDRAjXJhho4zAaD8Ovfa2XTZbhdbS+JaGqAwBBqgRqXqOHPoiP3pOBMAyqTXzgfaUtL//d//mY8++sjWAOSKQAPUoHQdZ552Dn3NAEC51PffywwZMsTWkriWBsgfgQaoMXScCQCV48QTT7SlJE47A/JHoAFqiE4xo+NMAKgcJ510kqmvr7c1Yz755BNCDZAnAg1QI3QnM90EIFVfM3ScCQAto23btub000+3tSROOwPyQ6ABaoA6zkzV14zuZkZfMwDQss444wxbSpo1a5Z56KGHbA1ANgQaoMopxCjMKNT4FGb2O/QbtgYAaCmDBg0y3/ve92wtidPOgNwRaIAqRseZABAP4dPOHnnkEfPiiy/aGoBMCDRAlaLjTDjhUw25mx1QeQ466CBz5JFH2loS19IAuSHQAFUqVceZuvifjjMBoDKFr6X5/e9/bxYtWmRrANIh0ABVKF3HmT+86E5+nQeACvWNb3zDjBgxwtaSuJYGyI5AA1QZOs4EgPhKdQvnrVu32hqAVAg0QBV5e+4MOs4EgBjTaWc9evSwNWOWLFnCtTRAFgQaoEroTma3XtO0rxk6zgSAeFFHm+FraQg0QGYEGqAKbFi7nI4zAaBKhAPNq6++ah588EFbAxBGoAFibvPGdWbhc7fScSYAVIkdd9zRfP/737e1JFppgPQINECMKcx88NLdZt3Kprf1pONMAIi3cCvNo48+al544QVbA+Aj0AAxtvjVyWbl4tdsLUmtMvQ1AwDxdsABB5ijjjrK1pJopQFSI9AAMfXwww+b5e81/bVOF//rVDNuzwwA8RdupbntttvMhx82Pb0YAIEGiKUbbrjBTJs2zdaS6DgTAKrL+PHjzW677WZrSbTSAM0RaICYUZg5++yzbS2pXaeedJwJAFUo1S2cN2/ebGsAhEADxMisWbPMJZdcYmtJrdt2NIMOPI2OM5FW+HbeBF8gPhRoevXqZWvGLFu2jFYaIIRAA8SEwsxhhx1mGhoa7CPJMDNw5MmmY/f+9hEAQDVp3bp1s1aaW265xZYACIEGiIGFCxcG51L7YUb67XG86d5vd1sDAFSj008/3ZaSXnvtNfPAAw/YGgACDVDhFGIUZhRqfMcdd5zpudN+tgYAqFYDBw40p57atG8xTjsDtiHQABVMYUY7MZ1u5vvJT35iDj74YFsDAFS78Glnjz/+uHn++edtDahtBBqgguluZpMnT7a1pFNOOcVcdNFFtgYAqAX77befGTdunK0lcS0NkESgASqUwsztt99ua0l77bWXuf766019fb19BABQK8LX0mgf8f7779saULsINEAFUl8zGnwKM0899RRhBgBq1PHHH2/22GMPW0viWhqAQANUHP3iFu5rZtCgQcEdbQgzAFDbUt3CedOmTbYG1CYCDVBBdPG/TjXzb8+sEHPbbbcFoQYAUNsUaPr06WNrxixfvpxWGtS8uq0Jtlx1Lr744sZfutUhod/TLkpv/vz5pm5o09tKInfrVi4yC56+0WzeuM4+sq3jTPqaQTGWvP0vs/jVbTeX6DN0TNCHEYCW13fNo6Zr1662lpu5c+eaefPm2Zox3bp1M0cddZStIWzOnDnmjTfeCMq6sUKXLl2CMqKhfpLefPPNoLxgwQIzePDgoBylqg406rsjfIcoRGvPr19vS8jHhrXLgzCj/30KM/Q1g2IRaIDKNfuvZ9sSUH2mTp1qxowZY2vRqepTzurq6mwpWWaIfkD+1CKz8Llbm4WZvruOI8wAQJVLtS/NZUgl1fMYms6rVH9nKO3QEqq6hUZ3idL1CDJt2jQzatSooIxoXHvtteaOZ1vbmjGnnHScLSGddWtWmbt/e555beYT9pGkMceeao7//gW2lt7t9zxsS8zvqMV5Xj92/6/No4nBGfetH5ujE0OlY/kuH+Z1efnz+57Lx5nhw4fbWu5mzpwZ9E3je/bZZ82BBx5oa3AuuOACM3HixKCs0+OHDRsWlBGN888/30yaNCkol+uUM24KALSgyX+4vFmY2e/Qb5ijv/kjWwMAoLl9993XfPnLX7a1JG4OgFpFoAFaiMLMC1P/YmtJ/QftGrTMdOzczT4CAEBq4Vs4//GPfzQLFy60NaB2EGiAFvCvKbcFg09h5ocX3UmYAQDk5Ktf/WrQ6bJP/dIAtYZAA5SZWmUe+/NvbC1JIea0n91EmAEA5OX000+3pSSddrZhwwZbA2oDgQYoo0UL5wWnmulmAE4QZs65yfTsM8A+AgBAbnTa2XbbbWdrJuiYmWtpUGsINECZKMzceMl3moWZk8+aZIaO2N8+AgBAfsLX0nDaGWoNgQYog+VLPjS3Xn1mkzAjugHA7vuOtTUAAPIXDjSvv/66+fOf/2xrSes3bDJPPPeWufNvr5jr//iMmfCrR83/d9FfzPE/+oMZ9d3fBoPKekx/03P0XL1GrwUqGYEGiJjra0ahxqe+ZnSLZgAAirHDDjuYH/zgB7aWpNPOlq9cayY/OdecPelhc+B3bjQ/u2aKufq2f5k/PPiSeeTpN8zMOR+YhYtXmDXrNgSDynpMf9Nz9Fy9Rq/VezzwzznBewKVhkADRMiFmbfnzrCPJOXacSYAALkIt9L885//NPt/7efm4hufME+9sMBs2VJ4P+p6rd7jkt/+wxx+2v+a0y/5q7lryiz7V6DlEWiACNFxJgCgHEaOHGn2O3CMrSUte/dZW0pq066z6dh1e9O5xwDTtfdg0337L5ge/XczvXfcOxhU1mP6m56j5+o1YTNefd9cdetU882z7zCPTnvTPgq0HAINEJHH7v81HWcCACKn08ROv/gvZkndMPtI0or3XzRbNq03XXoMND0H7G569Pui6dJrR9Op+w6mQ5depl3HbqZN246mrlWbYFBZj+lveo6eq9fotXqPth262ndOevv9Zeb86/8efLbGAWgpBBogAuo089FEoPHRcSZayrq1q20pqUOnpgclAOKpYfXn5uc3/D24kH/Gax+Ybn1HmI71/e1fk1Z99Jrp2L2vad2mg30kf3qt3qO+73DTa+BepkvPgaZVIgA5+myNg8ZF4wSUG4EGKDE6zgQARG3eO5+aU39xn/n7M01P+drhi8fYUtKi2ZPNlk2l62izVeu2pmO3vqbngD0SIWcH+2iSxkXjpHEDyolAA5QQHWcCAKL2z+ffNqdccJ9598Pl9hFj2nfubXr238MMPuD7pl3nnvZRYzZtWGM+fPVBWyudulatTZceA4LP1Gc7GieNm8YRKBcCDVAidJwJAIjanx5+xfzX1X9r7Bumrq7OdOszNDHsbFq3bR88NmCP44P/nUWvTral0tNn6rM1DhoX0bhpHDWuQDkQaIASUIih40wAQJR0Z7Frbv+XrSlMdAiua2nfuYd9JCkcaNYsf898Mv9JW4uGxqG+767BODkaV40zEDUCDVCkIMxccyYdZwIAIvOnh19u0vdL247dgjDTpn0X+8g2OuWs/x5ftbWkD2dH10rjtGnfORindh2720dMMM4adyBKBBqgCAozdJwJAIjS0y++Y665/WlbM6ZDlz6mfvsvBBfopxNupVnxwcumYdGrthYdjVP37XcJxtHRuGsagKgQaIAi0HEmACBK7y1eYS78zeO2ZkzbDt1M196DbC29rtvtYvoMHmVrSR9GeC1NmMZR4+poGjQtQBQINECB1NcMHWcCAKKydasxv/j1Y2blZ8m+XVq1aW+69R4clHPRf4+v2VLSx/MeN+saFtla9DSuGmfRNGhaNE1AqRFogAIozKh1xkfHmQCAUrrkt0+Y19762NZcQEh/mllY78EHmW7bf8HWksrZSqNx7dZ7Z1szwbRomoBSI9AAeUrXcebJZ11FmAEAlMTrCz4xk5+ca2vGdO2lU7ia3wAgm/6ha2nUJ82WTettLXptO3RNjPtOtmaCadK0AaVEoAHykK7jTPU1oxYaAABK4da/vmhLybuWdei67SL7fPTf/TjTvsu2ji83b1hbljue+Tp03c609zr79KcNKAUCDZCjTB1n0tcMKlm4fyRaEoHKNuO1D8w/nn/L1ozp3H0HWypM+Fqacp525nTs1teWTDBtmkagVAg0QA6CvmZSdJypu5kRZgAApXTbX2faUiIIdO1j2rTrZGuFCd/Cee2KD8wnb/7D1sqjbfvOpoPXUnSrN41AsQg0QBZBmEnTcaYGAABKRa0Xz7/6vq2pZaO41hlp16lHs1Cja2nKrXP3frZkzIzENPqtUEAxCDRABgozdJwJACiXvz/zpi0Z06lbX9O6bfK2x8Xqv2fT085WfPCKWfHhLFsrj1aJadE0Of60AsUg0AAZ0HEmAKBcNm/eYp556V1b08X0hd0IIJWufYaZPkMOtrWkRS1wLY1uEOBoWjXNQLEINEAadJwJACinZ15eaDZs3ByUdd1M67YdgnKphE87+/iNf5i1K5qeTh01tTi1adcxKGtaNc1AsQg0QAqpOs7s2WcAHWcCACLjt86071RvS6XTa+cDTLe+TbsYaIlWmvadethS02kGCkWgAULSdZx52s9uIswAACIz7eVtB/dtO3a3pdIakOIWzps3fm5r5eFPmz/NQKEINICHjjMBAC1h9huLzSfLPgvKrVq3M23bdwnKpdZvt6+Y9l22XZujMFPufmk0bZpG0TRr2oFiEGgAi44zAQAtZf57S23JmLpW0R6eDdiz6bU0LXHamT+N/rQDhSDQAAnJ2zOf2yTMCB1nAgDKYemKNbZkTPvOPW0pGro5QF3dtkNA3RhANwgoJ38a/WkHCkGgQc1zfc2ohcZHx5kAgHJZ0rDtoL61PR0rKrqGpX/oWppyt9L40+hPO1AIAg1qmgsz4b5m6DgT1STc8sjNLYDKs3TFWlsypq5NW1uKTvgWzupkU51tlos/jf60A4Ug0KCm6W5m4TCjU8zoOBMAUE5LlidvCCDugvkodei2vekx8Eu2lvTalF+aGXecauZP/bV9JDqtW28LNP60A4Ug0KBmqa8ZDT7dyUw3AeAXbABAOS3xriNp3aq4FppN6z8z61Z9FLS4LJ77iHn/5fuCkPLS/T8KAsvUG8cFw4oPXravSNqwdoVZveSt4LVRa+UHGq6hQZEINKhJ6TrOpK8ZAEBL8C+Mb5XllDMFFgWPJW8/E4SVd5671bz+2MQgrEz/3bfMtN99M/hfAUaPK8zoeQo4ep1en0k5Tj3zW6G4KQCKRaBBzcnUcaZCDQAA5da7R2dbUktJQ5PAkqp1ReXZD/08+JsCjVpiXOtKtsBSCbZs2mhLTacdKASBBjWFjjMBAC1t88Z1Zt3KRWbl4tfMH//4R3P22WebOU/cYOb/8xoz5+EJ5umbv9IksOTTupKrNu27mK59hpk+Qw8xO37pBLPLoT82I7/1G7P/v91mDv7Bn+2zorN5y7ZA04dAgyIRaFAzli/5kI4zAQCR0j5G+5u3584Izghwpzhr/3PNuceZCad+KQgtCi8Ln7/VXHHFFeaGG24wn7z/ehByFHZKIVNgOfSHjwaDynt+9Yrgb3pOj4F7B6/Ra6O2ZfMGW0oEmp7Rfx6qG4EGNUE7mFuvPrPZ7WvpOBMAkA/tR9TarztkKqw8dv+vg9v/K6xc+sNDzaX/mRgS/yvA6HGFGT1PAUevC++HCqHA0bHbDkEA6TfimIoMLNlsbXLKWSdbAgpDoEHV086DjjMBALkIB5Zw64oGlfUjmf72aCLQqCVGr1HLTEkCS7vOTVpXBh94mvni0ROCgDLqB/cHp4TpfwUYPV6JgSWbzX4LTT2nnKE4BBpUNRdm6DgTACD5BpZSt65I67YdTcfu/U33frub733ve+b66683F131O7PLEeeY3Y6baPYYf02T1hUFGrXEKKyoZSYOgSWb9WuW2xI3BUDxCDSoaqk6zhw6Yn86zgSAKqTAke36lXIEFl2fqRvN6JRm9wPaDy+605xz1cNm4m0vB6FF4WXQAaeZn//85+YnP/mJGX/cl4OQo7CzdcsW+07Vy5/GXXbqbUtAYQg0qFraSWnwaQdz2jn0NQMAcRRuXWmJ61e0/9At/vXj2H6HfiNlYNGgsroD0N/0HD1f+6B0+589h/cz2/dKtrzogvmNMbj1cqE0be6mAJpmTTtQDAINqpJ2YNqR+eg4EwAqWziwZGtdieL6lVStK7obpgLKhTdONRf+T2JI/K8Ao8dzDSy5OPhLO9tS4qB/3Upbqj7+tPnTDBSKQIOqox0hHWcC26xb2/Qgr2MnQj1aRr6BpdStK5IqsGRrXVFLjF6jfUiUP4odMnLbwf36tStsqfqsX9tgS02nGSgUgQZVRTs9nWbg7/i086HjTACIlra7LX39irb3hQSWUrSulMIhXxpk2rVtHZQ3bVhnNm9cH5SryeaNnyembW1Q1rRqmoFiEWhQNbQj1U4yvFPUDou+ZgCgONq2hltXWvr6lXHf+nGTwKLTwSo5sGTTunWrJi0Wn6/+1Jaqx+erl9hSsnVG0wwUi6UIVUE7SoUZhRqfdmba6QEAMlMP9eqpPp/TwVr6+pWjE4EmToElF18+5Au2ZMzaVR+bLVXUSqMWJ02T408rUAwCDWJPO1H9Gqidqk87OQ0AUOu0ndQQbmFxgWXOwxOCYf4/r6nZ61cqxZEHDDP777GjrRmzZuViW4q/das+siVjDkhMo6YVKAUCDWLNhRntoH1uRwkAtUDbQv/6Fd3O2A8sOh0s0/Urap0plsJGIYGlmlpXSuW0r+9rS8Z8/tlSs3H9GluLL103s8473exUbxqBYhFoEGupOs7UjpGOMwFUk1StK5muX9HtjEvdwqLAUc3Xr1SS/Xcf2KT1Yp13mlZcrVm5rXUmaIVKTCNQKgQaxJZ21hp82mlq58qOE0CcpAos5b5+RT3Uq6f6Wr5+pZKc9vV9bMmY9WuWx/oGAboRwIbENDj+tAGlQKBBLLkdvk+/HOpXQXaqACqJwkYhgaWc16/sdtzEYNjliHNq+vqVSvLFIdub4w8fYWvGrF72ntn4+Wpbi4+Nn3+WGPeFtmaCadK0AaVEoEHsaCdPx5kAKoUCRzHXr5QisGgbmCmwZLt+Ra0zqDwXnTXW7D6sr60Zs2rpu2bLpo22Vvk0rquWvmNrJpgWTRNQagQaxIp2/rde07SvGe3E6TgTQFRSta5w/QrKoa7OmMt+fLTp3qVDUN+yaX2TgFDpNK4aZ9E0aFo0TUCpEWgQG/oFVL9uhg8OtOPWL5IAUIhUgaXc16+kal3h+hXITv16mEt/dJSt6RSuVWb10m2ncFUqjaPG1dE0aFqAKBBoEAs6YNDBhA4efNrp03EmkFn4gLuWDn417YUElnJev5LudDCuX4Ezep/B5pxTRtuabuW8xKz8ZL7ZsrnyTj/TODV88mYwjo7GXdMARIVAg4qnAwqdxqGDC592+BoA1C5tHyrh+hWFjnwDC60ryMd3j/uS+faxe9maMRvWrTQNH79hNlVQHzWb1n8WjNPGddvWK42zxh2IEoEGFU8HIPpl1adfLulrBqh+6vBx3cpFLX79ioJHputXdDoYgQVRO/e0Q805p4yxNa0fnycCxDyzfs0K+0jL0TgozGicHI2rxhmIGoEGFU0HL/rV1acDBB0wcJAAxJ8CR7rTweY8PCEY5v/zmha/fkVlrl9BJfjucXuba3/2FdO+XZugvnXrVrNqyduJ4d1EmEhegF9O+kx9tsZB4yIaN42jxhUoBwINKpYOXDT4dPCggwoOIIDK504HSxdYsl2/otaZUkgVWLh+BXF2xAFDze2Xn2B2HtDTPqIWkqVm+aJXzWcrPjRbt2y2j0ZHn6HP0mfqsx2Nk8ZN4wiUC4EGFckd+Ph0YKEDDg4ugMrgWlcyXb+i08HSBZZSta5w/Qpq0a6DtzO3XXaC+fIhX7CPJK1b+ZFZ/uGrZt2qjyO5aYDeU+8dfEbis3waF42Txg0op7qtrn2wCt1www3m7LPPDsrTpk0zo0aNCsqIxrXXXmvueLa1rRlzyknH2VJ+dKCjAyL/YEcHHTpA0QEItrn9nodtqfD5jdzEeV4rUGi9cnRwn8u6lGxhWRS0siz/9EOzYuliG2JeT/y/2qxbm7yDWJTU4WO7Tj1N/wEDguDSs09/06FT18T4f9GGmf6EkhJgW1Je/vy+5/JxZvjw4bZWmJlzPjC/+/MLZsZrH9hHtmnboatp37HetOtcb1q3SfZnk6/Nmz43G9Y0mPXrGszGz1fbR7fZf/eB5gff3M/su9tA+0hlueCCC8zEiROD8vz5882wYcOCMqJx/vnnm0mTJgXlBQsWmMGDo7/DHYEGJVOKQJMuzOi8df36iqY4CCmfagw0qQJLMqwkH486rIgLJUFY2W6A6dG7X/CYAsuUJ18IAo0Glu9osS0pr1IHGufRaW+a3/3lBfP2+8vsI021adfZtG3fxbRq09a0at0uMST+T5RbJ/6XzZs3Br37qxVmy+YNQXnj+s/Mpg2p76Q2dMde5gff2M+MO7hpK1GlIdCUF4GmxAg0+XvtrY/NW+8tNZ8u/8wsWb7GLF2xJvF/otywNvi/T88upk+PTqZ3fedkuWfi/x6dzS6D+pjHH7qzqECjg6obL/5u8L9PYYa+ZlLjIKR84javFUaSLSirza3XnBkEFme7fjub1SuXtVhgybV1heW7fJjX5RVVoHHumjLL/OvFd8yMV9+3j5TW/nvsaMbsM7jJbaQrGYGmvAg0JUagyc30Vxaap1961zyTGBZ/WvgBTpcOxny27W6Nee0UdWCllhn/V2TR7VF1RyGkxkFI+VTavPZbUfQjwAqV164uawuLwkjHTomhc9eCAks2LN/lw7wur6gDjbN85dog2Dz94rvB/1u2ZD/ka9u+q9m6dbPZtGGtfcSYVq3qggAzZt/BZvTInU3P7p3sX+KBQFNeBJoSI9CkpxAz5ek3Ehu5d8xnazfYR0sr152iDrrUf0S4rxl3cS/S4yCkfMo9r10oacnrV/xQ0hLXr7B8lw/zurzKFWh86zdsCn68/HTZZ8mzMIIzMOxZGImy6IyLzR12NK3atDaH7lpntuvZxWzXq0sQYtxtouOIQFNeBJoSI9A0N+etj83v/jrTTH1hgX2kqeB82latTfvOPU2dyq3bBefW6hxbU5fYmG3dFJxTG5xnu3mD2Zr4f/2a5WbLls3N7qaS605RYSbc14xOMVOYifJgqRpwEFI+pZ7XqQJLJV2/olaXZOtLy62DLN/lw7wur5YINLmY/fZKc85Nc4LyzT/dywzp3zkoxx2BprxaItBw2+Ya8cHHK83FNz5hvnv+Pc3CTJu2HU2nbtub+r7DTa+Be5ke/Xc3ner7m45dtzPtO9WbNu07Jy8ebNUq+F91Pa6/63l6vl6n1+dLt3Gl40xUm2QoKbz/lVKFmWQ42dW0a9/RPpL0//389/S/AqCZOx7fdpe0q+99y5aAykegqQHX//EZc9wPEwdUT861jyQpkPTot1sikOxmOvfcMbi1YzHyfb0O4DT4dCBFx5modAocCh5x6X+lS7de9lVJfQcMYR0D0IRaZ2YvWGlrxixYtCYYgDgg0FSxlZ99bn408UHzhwdfso8kte/UMwgyXXrtZNq0a/rLbbkEB4F//o2tJengjI4zUQlcYPFbVz546W4z/5/XmHmPXhoEFoUVBRidMvloItBEEVgUVtQBpFpNdIMMP7Bc+D9TzYU3Tm3WwkKHkQAK4bfOOLTSIC4INFXq9QWfmFMm3Bvcucxp16Gr6b79F0y37Ya0WJARHfDpANE/6NPBl27PrFADRC1VYMl2Otjy914w61YuMhvWLi9pYPFbV7QOBGElEVQUWFRWgNHjutsfgQVAFMKtMw6tNIgLAk0Vemz6fPP9CfeZdxetsI8Y07nHQNO973DTrmPLHgTpIFIHjqnCjA7UgGJp2aqk61eynQ7G9SsAWlqq1hmHVhrEAYGmytz6wExz3nWPmI2bNicfqKsz3foMNZ26903WW5AOMnUAGT5g1MGcDvqAXGj5cWElDtevcDoYgEqWrnXGoZUGcUCgqSJqmfn1n6bbmjGt23Y0PXb4omnfuYd9pOXoIFIHlwo1Pl0XoF+lAccPLK51RdepBGElEVT81pWor19RWHHXr/Tb43gz5JAfml2OOIfrVwBUjUytMw6tNKh0BJoqoWtmfvHrx2wt8cW2apsIM7uaNu1avjdfHWDqwFMHmz4dAOq6ANSWVIEl2+lgaonRa8KBuFB+YHGtK/71K37rirt+pc/QMaZLn6GmY/doO5MEgHLJ1jrj0EqDSkegqQK6m9kFv3q08TQztcz0HLC7qWvVOqi3NB2U6uDVp1+9j/7mj2wN1UJhpRquXwGAWpBL64xDKw0qGYGmCqhlpvEGAME1M4MrJszo+gY6zqwefusK168AQHzl2jrj0EqDSkagiTl1munfmrlbb92SueVPMxMdyOr6Bp8OKHXgyUFlZUp1OlglXL/iBxauXwGA4uXTOuPQSoNKRaCJsQ8+Xtmk00zdmrkSbgAg6rMj3HGmDjR1AMoBZ8tJFVjicP0KgQUASiff1hmHVhpUKgJNjP3+Ly/YUrLTzEq4NbOo88HFr05u8mt9EGbOuYnrEyKk+c31KwCAbAppnXFopUElqtuaYMtV54YbbjBnn312UH766afNQQcdFJSrwdy3PzHfm3CfrRnTffsvtHinmfL+7MlmwdM3ms0b19lHkge4+qVdB7goXDKwLApCi8orEuWXXpkdBMjNG9YFPdj78z0KuuGEG9p17mnadepp2nbqEdz5q3W7xGOJuv5W7U456ThbigcFWT+wKlTGoaXr9nsetiWget3532PN8OHDba1ljTv3eVtKevSqA2wp3i688EJzxRVXBOV58+aZYcOGBWVEY8KECeaqq64KygsWLDCDBw8OylGq6kAzfvx4M3nyZFurLoMO/HfTfYfdgnL7xEFkt+2GBOWWtG7VR2bmXacHB9a+gSNPNj132s/WkI7CiObdhjWJIfH/xrUrgsfWNSQCi/1b1IKgklieFFZcuVXbDjUXWKrNnIcnNAm7ux03ke8RqBCz/5r84bUSHPnTabaU9I/rDrYloDBTp041Y8aMsbXoEGhiqFvfXc3OB/2HrRnTo99upk3iYLMlbVr/mZn90M/Nig9esY8kqe8OdUiI1IGlnK0r4gcW/a/WFT3WsT4RWOzfUH0INEDlItCgmhFoSuDSSy81v/zlL4PykUceaXr37h2U427RpiFm1ZbktHTsup3p0munoNxSFGbmPna5WfL2M/aRpFoKMzpYdENLBpZ27dqZzp07Nw6dOnUyPXr0MG3btg3q+jsKM2/D/rYUP9UQaHZtN8OWEIU5c+YEg3z5y1823bt3D8qIxmuvvWbmzp0blI855hjTrVtlnAK6tN9/2lJS78X/Y0vx9uqrr5rXX389KB977LGma9euQRnRmD17dnBqn3DKWQn419BMmzbNjBo1KijH3cH/9lvz2doNQbkSWmdef2yiWTz3EVtL6jfiGLPLoT82bdp3sY/kZ1MiBKxYnNy5dunUzky746yg3FIaGhrMwoULg0Hl9957r7HuHtMQpfr6+sZh0KBBZunSpcFyLXfeeWewU9TfEA2df63zguXll182e++9d1COA4Vaf/lcsWJFxS8rl112WXDeu2jnuMceewRlROOSSy4xF198cVBWsBkxYkRQRjT0Y6t+dBUd+FXKNTRj/2u6LSU9cW11HDddcMEFZuLEiUF5/vz5XEMTsfPPP99MmjQpKJcr0HCXs5iZ/srCxjDTpm3HFg8z7798X7Mw07XPsKLCjGi6NH2i6dV0R0kHe7NmzQpOUXRBWKcs6qBVB4MaVNZjp556arDjv/3224OmVBdoiqUDzL322sscf/zx5pRTTgk+47bbbjNPPfWUeffddxuHV155xTzwwAPmuOO2XZi+yy67EGYAAEBNItDEzDMvbTuwb+m7minMzJ/atONMhZmRJ/ymqDDj+NP3tNd5aCFSBZbDDjssZWDR3/QcPVevKVXLix9YfvKTn5jrr78+CCwKKAoq+tXchRU9ftFFFwXB5tBDDw1aZAgsAAAAzRFoYubpl96xpcQBf6eW60RTrTLvPHerrSUpxOzxtYklCTPiT98zGQKNAodaSfINLGpdiTqwqHVFIUVhxQ8s+pueo8Ci1yiwAAAAIH8Emhh57a2PzeJPk31JtGrd1rTt0DIXta1e8lbQMqObATgKMXt+9QrTsdsO9pHiafo0nbqYecFb88yvfntbcJqXzvXWaV8KLDvvvHPjEGVgUVhR6Mg3sKh1Ra+hdQUAACAaBJoYmb9wiS0lvrhWrW2pvBRmXrrvR83CzIijLzA9BhZ2kbTeS++ru6S509h0C+gZd5xqXp38s+AOTfP/eY35yQ9Pq5jrVwgsAAAAlYFAEyNLVqyxJWPady5/fyEKHq8+OKFJmBHdAKDP0ENsrblUgeWl+38UBJapN44LBpUVYvQ3PUfP1WtKdavjVKeDcf0KAABA/BFoYmTJ8m2Bpq51W1sqD4USBY51qz6yjyQN2HN80DKTb2BRB5x6TTgcFSpVYOH6FQAAgOpHoImRJcu3Hfy3al2+DhKDlpm/XRiEEF+bdp3Nx288Yab/7luRBhbXg33vHXbm+hWgAOHTMlknAADVhEATI0sbtrXQtC5jC41aZZa/N9PWttm0YU1JAouuwdHtnnXamjrkHHzgaeaLR08wI7/1G3PA9/5odh13YTCM/c5lBBYAAAA0QaCJkSUr1tpS4otrU75Ao7Cx/7/dZmv58wPLjl86IbjmRmFF73noDx8NBpV1lzQFGQUaBRudytapx4CghUaWNGybfgAAAEAINDHin3JW16q819AokLTv0tvWmsonsOhveo7Cil6j12ZU18YWmk4/AAAAIASaGOnTc9vB/9Ytm2ypfPrv/tXSB5Zstm6bTn/6AQAAACHQxEif+k62ZMyWzRttqXx0KljJA0sWWzZtm84+PbZNPwAAACAEmhjxWyi2bNpgS9Vtsxfcetd3tiUAAAAgiUATI717bDugb4kWmpawZfO24MYpZwAAAAgj0MRIn561F2i2etPpTz8AAAAgBJoY2c5roVi/ZpktVbf1a5bbkq6hIdAAAACgKQJNjAzbadttk7ds2WxL1c2fzl0G9bElAAAAIIlAEyO7D+tr+m3XLSjrlLONn68OytVK0+dOrdN0a/oBAAAAH4EmZg4ZubMtGbNh7Qpbqk7+9I0eOdiWAAAAgG0INDEz2g8061bZUnXyp++QkYNsCUA+GhoabCmpvr7elgAAqA4EmpgZtfcg06VTu6C8aeM6s2nDuqBcbTRdmj7R9Gq6AQAAgDACTQyN3mfb6Vefr/7UlqqLP13+9AIAAAA+Ak0MHTt6uC0Zsy5x4F9trTSaHk2X408vAAAA4CPQxJBOvzp0vyG2ZszahsW2VB386dF0croZAAAA0iHQxNQPvr6vLRmzfu3yqrlBgKZD0+P40wkAAACEEWhiardhfc3xh4+wNWPWrayOVhp/OjR9mk4AAAAgHQJNjP37N/azJWM2fL7arF35sa3Fk8Zf0+H40wcAAACkQqCJsYF9u5vvf22krRmzZsUHZv2aeHa2qfHW+DuaLk0fAAAAkAmBJubO/t4h5hCvs81VSxeYTRvW2lo8aHw13o6mR9MFAAAAZEOgqQKX/fhos3P/HsnK1q1m1ZJ3zNYtm5P1Cqfx1PhqvEXToekBAAAAckGgqQLdu3Qwl/+/caZtm9ZBffPGdWb5h69VfKjR+Gk8Nb6i8dd0aHoAAACAXBBoqsQXh2zfpGVjy5aNZsVH8yr29DONl8ZP4+lo/DUdAEqnoaHBlpLq6+ttCQCA6kCgqSJHj9rF/Pi7o2wt2VKz4qPXK+5GARofjZdrmRGNt8YfAAAAyAeBpsqcNn5fM+mnxzSefpa8pubtirmls8ZD4+OumdF4anw13gAAAEC+CDRVSC0df5h4wrYbBSTolsgrP34j6Im/Jehz9fn+rZk1fhpPWmYAAABQKAJNldK1KLdPPLHJLZ3VaeXKT940qz7VrZ23ne4VJX2OPk+f63eaqfHS+HHNDAAAAIpBoKliulvYbyZ8rUnnm7J+7XKzYvEc89my9yILNnpfvb8+R5/n0/hovLibGQAAAIpFoKkB6qTy4RtPNccfPsI+krRu9adB4FixaI5Zs/x9s9FrQSnExnWrg1PKVix6LXhfvb9Pn6/xoNNMAAAAlAqBpkYM7NvdXPzDseZPV55kDt1viH00adPGdWbtqk9Mw8dvmGUfzAoCztqGRUEgWb+2wWxav8Zs2bzBbNmyJfhfdT2uv+t5CjB6XcMnbwQX/W/a+Ll95yR9nj5Xn6/xAAAAAEqFQFNjdhvW19xw3nHmxl8cb44ZPdx06dTO/iVpy+aNQcBZ07A4OGVs1advBbdYXvbBbLPs/ZeC/1XX4/q7nqcAo9f5OrZvHby/Pkefp88FAAAASo1AU6NG7T3ITPx/48y0O84KQsdJX97L9Nuum/1rc23bdzVt2nWytdR0SczSd6aZd6bfYq7/8b7B++tzAAAAgKgQaBCEjvN/cKh55KbTzB1XnmQuPOMIc8aJB5hvjN3djB65s/nikO1Mj+12NF1772z69Oxivjh4OzNmn8HB3/W8X555ZPC68V/abBbN+otZ/ckb9p0BAACAaBFo0MTuw/omg8oJBwTB5tcTvmbO+49jzdbWnYIWmpsvPtncdfW3za9+/tVk8Ek87+tH7ha8DgAAACg3Ag2yuuPxbZ1hXn3vW7YEIA4aGhpsKam+vt6WAACoDgQaZDT77ZVm9oKVtmbMgkVrggEAAACoBAQaZOS3zji00gAAAKBSEGiQVrh1xqGVBgAAAJWCQIO0UrXOOLTSAAAAoBIQaJBSutYZh1YaAAAAVAICDVLK1Drj0EoDAACAlkagQTPZWmccWmkAAADQ0gg0aCaX1hmHVhoAAAC0JAINmsi1dcahlQYAAAAtiUCDJvJpnXFopQEAAEBLIdCgUb6tMw6tNAAAAGgpBBo0KqR1xqGVBgAAAC2BQING15y1m3ni2lHNhrBUz7n5p3vZvwKoJA0NDbaUVF9fb0sAAFQHAg0AAACA2CLQAAAAAIgtAg0AAACA2CLQAAAAAIgtAg0AAACA2CLQAAAAAIgtAg0AAACA2CLQAAAAAIgtAg0AAACA2CLQAAAAAIgtAg0AAACA2CLQAAAAAIgtAg0AVLGGhgZbSqqvr7clAACqA4EGAAAAQGwRaAAAAADEFoEGAAAAQGwRaAAAAADEFoEGAAAAQGwRaAAAAADEFoEGAAAAQGwRaAAAAADEFoEGAAAAQGwRaAAAAADEFoEGAKpYQ0ODLSXV19fbEgAA1YFAAwAAACC2CDQAAAAAYotAAwAAACC26rYm2HLVueGGG8zZZ58dlC+++GKzyy67BGXk59YXd7SlpNP2ed+WmpoyZYq58847g/J///d/m6FDhwZlROPhhx82d999d1C+7LLLzODBg4MyovHggw+ae++9NyhPnDjRDBo0KChXuqefftrcfPPNtmbM6NGjzRlnnGFrleuBBx4w999/f1C+8sorzY47Nt0OobT+8pe/BINcddVVZsCAAUEZ0dCyrWVcrrnmGtOvX7+g3NJy3d/Hjbbd2obLddddZ/r27RuUEQ0dm+gYRRYsWFCW45OqDjTjx483kydPtjUU6sifTrOlpH9cd7AtAQCAasH+HqU2depUM2bMGFuLDqecAQAAAIitmjnlTKeIDB8+PCgjP7+dtp0tJZ118Ke21NRDDz1kbr/99qCsU0Q4xS9aOl3hjjvuCMpXX321GTJkSFBGNHQ6jjul8tprrzU777xzUK50Tz75pPmf//kfWzPm8MMPN//5n/9pa5VLp+S4Uyqvv/56s9NOOwVlREOn5LhTKn/1q1+ZgQMHBmVEQ8u2O6XyN7/5jenfv39Qbmm57u/jRttud0rljTfeaHbYYYegjGjo2MSdUlmuU86MAk21SuwEFdaCYdq0afZR5OvIn05rMqRzzTXXNM7v5557zj6KqEyaNKlxfs+cOdM+iqhMnDixcX6//PLL9tHKd9tttzWOt4ZTTjnF/qWyXXrppY3jPHv2bPsoonLxxRc3zu85c+bYRxGVCy+8sHF+z5s3zz7a8nLd38fNhAkTGuf3/Pnz7aOIynnnndc4vxOBxj4aLU45AwAAABBbBBoAAAAAsUWgAQAAABBbBBoAAAAAsUWgAYAq1tDQYEtJ9fX1tgQAQHUg0AAAAACILQINAAAAgNgi0AAAAACILQINAAAAgNgi0AAAAACILQINAAAAgNgi0AAAAACILQINAAAAgNgi0AAAAACILQINAAAAgNgi0AAAAACILQINAAAAgNgi0ABAFVu5cqUtJdXX19sSAADVgUADAAAAILYINAAAAABii0ADAAAAILYINAAAAABii0ADAAAAILYINAAAAABii0ADAAAAILYINAAAAABii0ADAAAAILYINAAAAABii0ADAAAAILYINABQxRoaGmwpqXv37rYEAEB1INAAAAAAiC0CDQAAAIDYItAAAAAAiC0CDQAAAIDYItAAAAAAiC0CDQAAAIDYItAAAAAAiC0CDQAAAIDYItAAAAAAiC0CDQAAAIDYItAAAAAAiC0CDQBUsYaGBltKqq+vtyUAAKoDgQYAAABAbBFoAAAAAMQWgQYAAABAbBFoAAAAAMQWgQYAAABAbBFoAAAAAMQWgQYAAABAbBFoAAAAAMQWgQYAAABAbBFoAAAAAMQWgQYAAABAbBFoAKCKNTQ02FJSfX29LQEAUB0INAAAAABii0ADAAAAILYINAAAAABii0ADAAAAILYINAAAAABii0ADAAAAILYINAAAAABii0ADAAAAILYINAAAAABii0ADAAAAILYINAAAAABii0ADAAAAILYINABQxRoaGmwpqb6+3pYAAKgOBBoAAAAAsUWgAQAAABBbBBoAAAAAsUWgAQAAABBbBBoAAAAAsUWgAQAAABBbBBoAAAAAsUWgAQAAABBbBBoAAAAAsUWgAQAAABBbBBoAAAAAsUWgAYAq1tDQYEtJ9fX1tgQAQHUg0AAAAACILQINAAAAgNgi0AAAAACILQINAAAAgNgi0AAAAACILQINAAAAgNiq25pgy1Xnl7/8pbn00kuD8iGHHGJ69eoVlJGfzwafY0tJXd65xpaaevvtt82cOXOC8ujRo03Pnj2DMqLx1ltvmblz5wblQw89lNvxRmz+/Pnm9ddfD8qHHXaY6d69e1CudE899ZRZuXKlrcVn3N98800zb968oHz44Yebbt26BWVE44033ggGOeKII0zXrl2DMqKhZVvLuFTS/M51fx832nZrGy5HHnmk6dKlS1BGNHRsomMUWbBggRk8eHBQjlJVB5rx48ebyZMn2xoKdeRPp9lS0j+uO9iWAABAtWB/j1KbOnWqGTNmjK1Fp6oDzYknnmjuu+++oNymTRtTV1cXlJGfMT96ypaS/vWbw2ypqS1btpjNmzcHZeZ39Jjf5RXX+b1p0ybjb+bjMu4s3+XF/C6vSp3fue7v40bzWvNcWL6j58/v559/3uy///5BOUpVHWhQGmP/a7otJT1x7ShbAlDp9t57bzNr1ixbM+aVV14xe+21l60BwDbs7xFX3BQAAAAAQGwRaACgijU0NNhSEjePAABUGwINAAAAgNgi0AAAAACILQINAAAAgNgi0AAAAACILQINAAAAgNgi0AAAAACILQINAAAAgNgi0AAAAACILQINAAAAgNgi0AAAAACILQINAAAAgNgi0AAAAACILQINAAAAgNgi0ABAFWtoaLClpPr6elsCAKA6EGgAAAAAxBaBBgAAAEBsEWgAAAAAxBaBBgAAAEBsEWgAAAAAxBaBBgAAAEBsEWgAAAAAxBaBBgAAAEBsEWgAAAAAxBaBBgAAAEBsEWgAoIqdcsop5ic/+UnjAADpjNqtV5MBiIu6rQm2DKT02bpNtpTUpWMbWwIAAABaFoEGAAAAQGxxyhkAAACA2CLQAAAAAIgtAg0AAACA2CLQAAAAAIgtAg0AAACA2CLQAAAAAIgtAg0AAACA2CLQINZuueUWc9JJJ5l33nnHPgJkds899wTLzFVXXRUsP4WYNm2aGTp0qBk3bpw566yzzOzZs+1fSmfZsmV5LdcaJ02XXgcAiA+3T2L7XbiaDjQ6WKirqwsOSjQUenCDlqEDuDPOOMPce++9Zp999uH7Q07ef//9YJk577zz7COFWbBggXnssceC8p577hn8X0ozZswwQ4YMCbZNjzzyiH00vcsuuyyYrmHDhuX0/HJT6HMh8IILLogkBAK1RD+muHWKH/biS0HG7ZP233//4NgG+avbmmDLRdPKtHjxYnPwwQfbR4rn3rNfv35m8ODB9tHSUaBxZs2aFcmBSUvQhm706NHBRi4V/Qowb948Wyu9rl27Rj4vNQ2///3vmxyYKthowxDFsoLqoJ2HW2YUSgpZVrTs9e7dOyjffPPN5vTTTw/KpaR1+KabbrI1Y6ZMmWKOOeYYW2tKAebYY4+1NWMmTJhgLr/8clurHG57e+KJJwYtZUAl0YFkqY813MFpKY+LHH9bVq3rVC0cy+g4V9tsHbs4Z555prn00ktNr1697CPISoGmVCZNmqRwFMmg946Ce/+jjz7aPhJ/iRWhcbpUTsc9J4qhnPMzEUS3JoJMi3w24ueZZ55pXFaK4d5D7xeFHj16NH7G3XffbR9tbunSpVuHDBnS+NxE8LF/qTxuHKPangPFcMtnFEMU/GOuqLZDLanWjmW07fa3+2wn81PSFhr/14JSS3yx5txzz7W10nG/GEb1/i1Bp17pVCxHv9zceOONzZK+3zpVavp14be//a2tZeZaWg466CD7SGF0yo1OAUoc/JkBAwbYR3Pz7LPPmm9+85u07NQA/WJ6yCGHBOViNn9u/UkcSJT811d/HBM7VPPoo48G5VT8lpxcfqXVqV6rV68u+JdojVuhv1oWs7114x3FL92ARLlPLOGhViP/mCuK929pcTuW0Tbq+eefNyNGjLCP5G/VqlXmxz/+sVm+fLl56KGH7KO50WvnzJlTNcey+UoZaLQQDRw40AwfPjzrDk9NZS+88ILp1q1b8HzJ9Bp94XvttVdQznQKhU+v0Q40ioPNYnawlUzz7LDDDjMrVqwI6joVSwdF/oYgimnXubwKFfm+Z5QbpFxFcWCK8tM26c9//nPagDx37tzGnaS+80K5wKFTzsI7MH2GHit0efJDSqblUuHl5JNPtrXc6docXaNTyOkMLb2uVuOBG0rHP6jMZf1TQP/73/8enKKpcrbX6NQnnRqkferMmTPto+m5U6Ki2LdUe6CROB3L+D9EtaRa3UamDDTui8xHrl+6n7grYaa7FUEp/Nvf/nZQLoSScbZwlmsLln6RVXjTeaNjx44t6KBDdGCnXzRefPHFoB7eEKTbCGgDXOhnEmjyp+9JLVSPP/5443clOujUd3b88cenPX84Gx3wTp48OXhvt0Po0aOHOeqoo4p630pWKTuVQneuWv90Yb++Ly0Db7/9tv1LU8VMZzHXC8Yh0OS6D3Pb2q985Ss5/biGylfoepHr8UjPnj2DdbPQ9buU/GOKYn6ckWKuFVHo0Pr25JNPBj9wu32NuP2YQomOZwr5YTouxzK1Hmjc8Ya+J12f6mg7O3LkSPPlL3852mOsxIQ3o3MG9ad8hsSXbl+dmXvvxMJpH2lZ4ekoZshG8yjV67INOndU58kXQq9LrPyN76XzM917ucf8705/03Nuvvlm+0hziQXVlppz5/JPmDDBPpKbVOOSis4x1ZDYeNtHMtN06D31Gl1rk47er9B5XCh9nuaTm/ZMg+ZrpvEP03Pdd5FpyPd940DfZappLfeQ6zYxTNfLuPdId+2MptE/1zrb+uBv0wsdL6eY5aXYccj1swvZh2ld0HYC8Vbo+p8L/70rYbup9cifhmKGQtZJzYN817VCj2f0mko/lvGXj2zbZI2XnpPrcqTx0PTpNenGW9Oc7XOjoO1mLscbGrS8FPL95yLlWqwZnOoD/ZXHp+dnWjB87vWZLnItJzc+pRiy8eefvlTVUw0Ke/7BigatyIUuBHqdXq/39Oe7e299puMfYGscw9+rO9hKt5L7r82He50/Lqno7+65ucwTbTzd81WuFO47ceOm70bzVBsjN2iDF95Z5LKx0vroLz9anvS9ufdV2Z8vem6uG9U40LzNNJ/0NzftxXDvkeqz8tkmhrkdg76XVMu3Wwfd4K/TqWhn456b73pZam48sq3nxfLXGy3r+rxUQ3j9cs9HfGmdSbc9c9+xvnsn2/bCp9fp9VpHK4Ebn1IM/jzJRXg7pEH7NL2PP2i/5u/rNBS6z3H7Tb3e3+659/WnoSWOZfx9S7ZlKryNysYPDNm2+eUUXg40LXpM0+8GfS/++Ody7FaIvPboGik3QoXwd6xRTEwh3Pj4K0K+ct0g+vMvl8/TQuEfmOazYoVpHMMbkPD76u/uMQ3uANvRBsH/u14X/h79v+XDvS7bfPHnYS6/pvrPr5RlTvxAocCRadz8DUa6g1xHf3PLjP7PtFzqb+652thU0vyJkqbbzc9iuPfIZd3Plf9dh3dy+n60rLi/a8j066PoNX5AKjRkpaLtRb4HJW68c9n+OfqMfOexf7CQ7bWaR/52It/xQ3wU+/26A/N0B8Hl5i+3xdA6ls+2Iby+aFuV7fVaD/31UtujfLcfovU1/Dr3ni19LKPPcK/Ltt3x50X4s1Nxz9cyWCk0H/3jjWzfp7/c5DNfc1XyQKMJ1BeZ6gtyiTnb6WbuPQpZ2PPlpqfQDVw+/PmX6+dpHrgFRkOp5om+H81jN59V939FSXegFB4fvSbbhiwX7v2yzZdclkFfvs8vB81zN065/lLhT0emg1g/KOUS+PwfGXJdJuPOn//FcO+h9ysV/1cs/33DP25oyGXHlsvy4LYFuSyHPn+HXI4hH/645fr9+GFSQym2a6gs7rvNtK3T8pJqP6v1w70+235Y71HIOpWvlti/+fsMDVpv8uFvk0pxcO62X+57U72ljmU0Du79VM7EbaNyPbDP9/nl4H+X2abX8X+Uy/U1ucprLchl5dHC455T7JAt+JSC+6xyHMz58y+fz3NBMNPrtHLqYKjQBcRfMFXORCu9v8HIJZln495L0+cCbaohvAJlG3J9fjkVshHwd6bpdgL+c/LZ6LkNpb7HWqB57uaTvwzkO/jvUQrhbafeV9+pH3KiHPKdDrfclGvIhz9u+UyXv25Wyq/wKB333Wba/4Z/OChmKHa/mI1/TFEO2h758yffMOP462f4PeJ8LKNxdu+lst5L/6ca3Ofq/1R/Dw+5PD/q5S3MLQsap1xpHN08KvU2tuSBRjPVPafYIdNGp1TK+Vn+/Mvn8/x5mupANfyLRL4bGT8w6X30ftmEP7PYDYF7H82XUi5DuQyp5mmU3AGq/s+HvxNIxf+FOZfWGafQ18VVqZcvvV+xtGMNH0i593Xfj/6usr/elXLIl9b3XLYVPvdZ+W5v853HhQYafQ/udfmun6h87rvNtPz5y06xQ9T8Y4py8D+vmB+ctZ5p/dKPOP42JO7HMv6+RWV/fpVjyHe7Wiz3udmCY5h7XamPvVol3jQyiS9Ua1neA/Ln35pQ/VJk61zP0W0fJ06cGJQTK3Kz+7vrdom6FaFuf+jTc3QP/sSCHNR1m0bdllG3b0RmQ4cODW47qf9LSbdLdPK5Ba1upen87W9/syWUk/qd8W916tOttRM7dvPUU08FZbd+JnZeKbefGvQ3SRw0pPy7G7SNLpRu8VroLVHzVa7bqeuWsppnkjjoCv5HbUocbKVcZ7INbt2rRldeeaUtmcbjhkJoPdPt6E8//fRm2xC/zrFMPAwaNMiWWlakgaaluAU3l8FZuHBhyr9nGlqC7uUdphVSK69bIUUbAh0kZaK/u3vYawOgA6bwxkUdFOq+6r179zb77rtvs42BetD1NwT33XdfUC7GrrvuGvSTkW1nkerv4SHb85cuXVr2HZC+K21A9X8puXv0a0ecD33nCliSS0dx1STVMpHrUCraEbs+U9zBdJiCTD59RKg/CFF/Q6WQ7mCgpWhcojrgKPUPDUC+/OOMTIOOW5xUf880aJ3OxyOPPNL4o8uJJ55YUH8y2VTbscw3v/nN4IeRVPsPt5/ONThne74+R5/XEvzlMB/19fW2VCKJGZGzxIFfY1NROuEmt0K41+vzCuGPQ1RDYqGyn5Y7f/7lM21+M2q2Jlj/MzQkVlD7l6Y0/v7z0jWx+uf1Z/o+9Tm5NvGm4j4j23zxpy8X+T4/zH99tnGLmmsWV5N4Km48Czkv1b9Qr9r524diuPcodDsn7nQyDfpe/Qtu072vW3fTLY/+aVPZTiHMdV7460GlDJm2wf72Ld/vx38tqov7XjNty933n2n5ysRfVwrlL4NRDfmuF9rHu9fmeypYIcLbnDgcy/jb02zzN9/lLN/nh/nzKd/vPh13TJLP6bn6ftx46DsppbK30OiXASV9/R9nJU+WaehXhJtuuiko65cH//SgVNSjrU5PcfTaVL9u/OIXv2j8NVjPT/fr74gRI2wp2XKSzqWXXtqsiRelo1/TXAtMql/d/fWpe/futpS7L33pS7aU/CxET6dS6NdH56GHHjLdunWztcLpl0jR9oLe7/NXKa1QqEy33HJLQS0claZr1662lBu/9X6//fazpehwLFP5fvCDHwT/q3Uo12N6rT9OtuPZfJU90Dz77LPm2GOPDZr+1LQfxc7DX1gTSVQ/k5RsSKTc4H39A8CoaIM5bty4xmbeP/3pTzmtZO6ceyfVhlfnpM+YMcNMmTIleH4uMn22/lbJGwB3SlVcuYNUOf74420ptR133NGWCrN48WJbqn7aCBc6FCMcZiZMmJD3dSI6xaKurq7Z4E690HYj1d/9QdvhXGQ6dSLdoNM5z/ROHZFJk9Jf96PTTBXCtO1K9ffwoPcqNe2P3A8H6U7/Q20744wzgvVGy4d/cFZK7tRyHW+kWvYLHXQ85ORzCqu49ULraBSnm6XCsUxzqS47aCnaL7hjq69+9atZTwPWfs/9QK99XqmXoxa9hubXv/51JAtOJS+M2WiFVQuWfonQBlMbEbeTz+fXVq3YOpjQa3VuaCqaT3H+BTfVQWZ4cOd26mCsEPqVyO0MVG4J2ki4g1QtE6k22h9++KEtGTNgwABbyl2xIShO9KOKowOTQgfHf79c6KD52muvtbVk2P7pT39qa9lF1YKQaWekHU8+Ox+9l36McTsvHZhpG+Z+EArTjk4X4iqE5XohcL4HZLn4/e9/b0vJ6wSAdLTe6qL2KBTSyl4u5Wid8VX7sYy256mOXcKD2+4XeiyjVid3LFOqm6xovv/ud78Lvhttu7UNv+CCC5rsSzTeOqbV9+h+xNP3efnllwflUmrRQLP//vvbUu1J9+uqDljVgqUDAS0k+uIVanL95cGnlV8Xx4UPRLSwpVphUg1z5861r8r/12wtxFFKdZAZHtwBlWvlihttDFyzrtx+++221NT7779vS4UpJAShMNoJ6PQN/UKldVw7hHx+hLn++uuD1g+3c9Kguh8Wcm3lcDff0P+lWAa0vOomB3vttVew3dL2TL+cameqbVg4hOj5+vFGOzqto26b1xL0Y5J/F6d///d/tyWguVLdcCMOtD9vSdV8LKPtZKpjl/DgWsgaGhqC/yuFtulvvfVWsN3WNlx3mtP23x3T6iYMOqa99957g/2B9k3pgmnREjuznOVysVu2i6JyeQ/3dz23UO49SnXxk5M4aCh43Pxpz2VI7NyDi7UTC0DBF9s7/uvzHY9ihly552ebr8WMexy5i+40ZLrY358vhSzz2dbbaqKL5jVkovVc81vzNdP8yOW9Mgmv14V8D/p8fznR9iIXmjZtY9JdRJsPTYc+N7HDCsZB76v3z7Td0g0L3PM1JHaIRW/nHLed1pDLfNQ88Mcl07qG+HLfr5bNdNyyo/9TyfYeetw9p1DuPdKNQ6H87Us+/NeVepzyVcnHMvlsv/1tVD5DS8//VNz2398PhQf/eDYqVXnb5jhILJTBOeCpBv1yq78r7SrV6tfLYcOGFfUrgU7/cE2Wcab5kjiA09YlryGxcbHvEB/65dr9KhNVE20tyuX0Kd1GWb80uVP90snlvTLJp2UmFW0TdOqLW070C1guF1rqlC5NmztNINPpZum4Uwl0ioG2T9pOad0UjYduHf2d73wn2Pa4oWfPno2/3OlXOz1f46/1U7/aFTs/8uGf3qtfFN24a3xY14DKVC3HMrqZQSIIpDxeSTfo+TpGrCTad+hsK23/tR/SsUoitATbdDfcfPPNwT7BHc9G9h0mZlLOEjOyMW2lkxj5xueoHObeQ2ktHfd6PbdQmcahGC5VFzJu/vzL5fVKvXqe5pV7XSHpVr+E6rUu2esX3Wy/yuo5/ue6wb1HNhr3fOa9e/9ivvNqoXnn/9KhX66z8ZetQpb5bOttrXHrub6Hcsr1e9Df3DiGB623mdZvbUPCz9cvZ4XwWzXyHfS54e2Zln0NxUo3b7INapkpxeejMrnvOdN+xi076fZ17j3S3XLW3xYXyr1HunEolL99yYe2J+51pR6nfFT6sUyu2+9qoXnv5q32ldm+C31//vNLva1tsRaacl9YFkf6tVIXouvcUaVbUbrVOZ35+OMf/xj8r1+d9aukflHOdkGtLohNdd2J3iOXz9e4F3vhWT7nx+YzFPJrdLnoVwv9euG3zORyvuluu+1mS4Xxzy+OMy3fuoYj1feez+D/epTq7/kMGp9S0DipZUXLh86pdp1xJnbMQetC4iAoqGdqdXHXq0hixxL8erZ8+fKcLsJP5T/+4z+C/zUOWlY1DuFf5zToMbcNEz1P512Hrw3UtKm1R/OtnLS903iqZaacrUSIL/82wNUuihtwFCKuxzL+/qCUg+ZBS9L1vZq32pfoOsls34Vu3KC79YqOcfybsJSEDTY5yeWXh8ROofE5Kofp12b9LVM6dq/X5xVCqc+9h35F0XiUanC/nBcybv78y/f1+mz32lx/WRD9OuFel8sv/aJfKd1r/JYCV9avsqVM1v60+b/Y+vOrlEO2XxFaiv9rh4Zcvy/x52EhnVX581rvFVf+fKikIVf++LvvQeuEvx66QcuK/13reeG/u/VU/2u74f4Wxa9jqWga/M/VMq1tUiru11c3FLKNdcKfqfcKD/q8OC/ryF8uy5ZbdlLtZ/39abplR+/tnlMotw/WeqrPKdWg7UWh4+ZeV8hrSyEOxzL+d+9v5/ztUamGUo97vvzttX/clgs3P7SPKqW8lsxcVlStNO45Koe5Ccm0QXGvz/ScTPxxiGoo5BQNf/4VMm3+CpnuoCDMX6FzeY2/kLqNqavrgNuV8znYzibdMuPPr1INhS5TUQuHGX1v+fDnYSHT6M/rltxIFqsc634hQ65SrQv6Pvx1X8uJvi//e/LDjL/zVFnLlnZ+7jG9V9TfcTiEaTz8dTsdPcdfD/S6QsbVnwe5fC5qg1smMm0j3bKj/8P89TMdf1taKH/5jWrI94c9f5zyfW0pxOFYJt13H8X32dLbNc03Ny75bqP9YF3K6Sj7KWcvvPBC8H8l32c9Fy1x67xvfetbtpRb54c6RcXdtjix8GW9eFmnqHz3u98NyomDiuACLp+aExMblaCs9y30NJUwvw8Vv/ficGd+iQXf/iVzB33+4L8msVFrsb5kMtF8d31wSOJgMO+Lkv0mcdf3Tj50AbcT51Nu1KmuvvPEBjbl8pBu0Dx3tJwkdkBBWf/rlAVHz0v1+nSDxsNfBguh70O3dtYpW1rudaqWlmP3PWk9dKeRaT1X079bT3VahX/Bu7jTGUtNy7FuEKAOk90FohpnTb/GKdfTNnRKgrY/ovFviVPQgFTcqblu+Yyz1atX21Ju/A4d582bZ0vlEZdjGbfvDS8f2m77+yTVHW0f/X1GusF/jca9VH3JFMo/3S3fYwb/dM2Snu6emFE5S8zQxlSVTuLLSZu8lKrT/c3nnqPPK4TSYpS/IGg6Cnl/f/4VMm3+6zPNPyef52t6Eith4/Pd9Pnfp+P/8qpfYovlj2c2+fxKpOXA/TKtacvlV51yC8/3Yuanm1Z9P/ly46D5W2v878AtJ2450//+cqShFMt8Ov76lss67v9q6f/S6P8CpkHjr/dz01nIaYk+zRP9Aqp1V5/rzx//M/V39xzNS38IPz/bkM98998/l/mI2uCWCS2T6bhlR/+HaTlO9zcnn/1ZOtomaR2LitaJfN/fb/HINP1R8OdptvU5vE91xwl6nXvMKfWxTKZlx6d578ZR28ls34WmwY1nIfv3KLhp1ZAv/7vItC7mK68xyWVF9Uc0vOBpgcn2enHPKeWEVgJ//hUybf7BS7aV2l9hsq1c4Q2Av2Kn2gjogC/d8wvhVoxcVlT/s/V/upCi6fc3Vm6jVkn870hDsfPR7Ww1ZNtA+jQP3euqbZ3LJrzsu/UqvGPyn6f/o1qeMm0/ffp8f/n2A0p4mjS45cEtI9qJFitViClk0LhqPvuDlkMN/jZPQ67riN7DvSbbthK1wy0TmbZzbtnR/2Fumc/0ev3NfU618df5dPveXGn+aruVbV/l7ydTfSe+8Lav3Mcy7n203comfEpcOv405RJ+ysXfxubLn/Zif1zz5TUmuayomXbIuu5Ej2dbKN3rtfOtVFrIMm3UUvHnX76vlXwO0P3PynZglGmFTrURkGyvy4d7n1y/7/CGINUK7h/cF7uRior/feayAczGny/5TLO/rGRbrqpJpmXYbaz9bZU/f/W6KJarTNtP0Q7YX7Y1Hhovx58mf9rce/nhtdjx91uBtCxrXmnQsqxlyg0aP32+BrfM6/FcuWnSa3Plvj8NqeYjapNbJjItf6nWfdFymMsypfd2zyv2oD9KGs98t/f+tIXnTz78bUe2/b7/mZnme6btuei17m++bK/Llb985Poe/g82qeaDjm3cNlPjmO/3FSV/P5Tvcp7rd5qvkgcaf0H1d7T+jtRPZOEZobo+R0OhC5Zeq5Ut1UzWAuKPV5j+puCV6QvyF8JM7xXmzz+V8+GvjNl+XfV/0cj0XM3fbCtyuo2AaNrd3zRoAc/314NCNgISPphyn6v//RUt3/lcLv6yUMgNJtJx32c+B3/uV7dsy1U1ybYTS3dQo+e516R6XbH89c3f0Gtd85drDeFtnD9N+v799/LXA/c+em6+66tPr8339W6+htfLbO+lv2XaJoe5z9Hgz0fUNrdMZNovpNuG+uuNL7xcapug99eQzzLraFnXttg/TvJpPU93YKvPc5+djl7rtvn57CfEjZubj+nGMRN/O6X/M80jfZ57bqb9k+a5e56GVNvlqI9l/GOSfL5390O/+1xH76Hvx/2t0rZj/r4w0/KWij9d+c7nTEoeaPQlaMZr8L9U96VpoXMT4BZsLail+rL8FUCDP6P98U/1ef5C7S9YYf6C609PNv7n57MA+BuAXF7rf06qFVvj669E6Z4nmk/uOalonvnjlu936XYSGvJdsP3XugM4f0XJ9B22JK0Xbhw1v/Kd7kz87z6XnU22ZaUahZfZVNOdLtCIvyHXoOWsVN+hv7659chfzjVo3MPfrcbJTZPWATc+7jX+NsNf/koZph2Ni+ZbqnmSLtCorvHX/6WYlwQapOKWifDy59Py4gZH++BUr3Xrpn7kLNU2QO/vPkv7B3ccpf9V1+Optkvi7//84y+fxtO9j4ZM8yIVzRf3Wg357Dc0H/1xzLaP8udFqs/RtFTKsYybp5q+fGga/Hmi6dHnZttHtTSNtxtH/Z9ueQvTtLjpKvUxWskDTSr+BPgrT3hBVL3YjYLfeqL382eyv0Cnm5G57gj95+X6pfjzL5eNiOaF5p2/YGdbWfyFTCuYT3/T5/rvp3KmlSXbRkDCgUuD5k+2jYE/roUu2G6HEh5KtaLk+53lIsqDLc1Tf2eV6bv118t0O8hq43+fmeaP+47SzRd9b/4yr/VS60Gx/PXNXzbc+Gi51nfsqBw+bcH/u1sWwuuDPx9Kta6IPy6aJ/64iJsOf13Sc/LZJuXCfY6GUq9jiC+3TOSzLdfy6Q44tWy6ZdoPOe5vOiguho5X3LqQaj3wl+tUB5D+9iPdtkv856V7r0z8H3U1hI+1UtG0uGnTkG27428XKv1Yxn/vQrZd/jIWHordFjpRbBP9/Ugu+0A/NOr/fJe7bHJOJprhbueoEcmVvgx/gsNSLZSFbhT8hUrj6jY8Pn/DlIpmsHuPTBsEPc8f71wWEP/L13urnm7Q3/3316BxTzVNPm0k3PP1Pk54Y6JB8yjbAujP00w0P1KtkNrQpeOPa6ErmOaHv6Jq0HSWakXRPHTv68/PQvk7Qc1/TXchQ6bpC2+UNX/0/bvXquzPs1yWq7jT/PKnWfNH8yId91z9n47mc3iZL/aXWo2Tey9//PSe4e9c20m3TdaQavnMNB3+uBcbalLNC31meFvuxic8rppW9zc3uPWjEP57FfoeqC7+QXgurdei9c5frsPLs5b78HJbzA+z/nulGkd9fqa/S677Vf/HB31uvvxjO/99tG77g8YnfOyRy/bGnw5/e1GJxzJuO6zxKvS71+eGp0vzs5j9ic9ftkq5TfS/Jw2q+8cbGrSs+p+vQc8ptYzfbHgE3KDHc6GF0L1GC0i6LyZ8sKEh342Cnuvv3NN9Yf5GLV1w8r+gTF+8/1767Gz8+ZHPoIXcX6HT0bj6r/Hnn8r+dOU6f/33zCb8GSqn479vrstTmOZ/eAPgD5rGTN9fLvzvLJfvIJtCl4HwkG1cUh1gpho073NZDuJM88pfTjRfsu383PYo27IZXuY16LN0sBAOILnw14t0y652BP53q89L91w33ammI7wD1XvmO86a/vAynWn+uvmabvnVdLjnuEH1bN9XmP8exW4DEE/+uhQeclkmwtvQTAdg4X2RyumOL9LxjydSra+O+xyNWypah3N5H627/jFTIQeYmkfh9TXToM/LZb74352m199Hhbe5LX0s42//su2XU9Fn+eEyPGj69fmF7E98UW4Tw/vYTIOWgVJ/vpPxm9UCnmqEsi34+ru/omjFy2WBC28U8plwLdTudVo40vFX9nQLaa4bBPE3eNkWZn/BzzboczV+mpe5zDs9x5/n6aZN80bzOVf5bAQcbbAyfQfaCPrfcz4Lt6ZT4+9PqwbNL31uqo2rnqvxyfegSIrdWIXlswxkGnIdFy0/WjfC65WWj6g2KpVAy0l4O6RB053L+uSWo2zrv6NlL9UGXdsHLa+5Lnv++ua+H71W06JxD39Gpp25HnfPS7e8hNdFDfqcbDtPvbfeM/zabMulm6/Znqf5Gf7utA7n8t2Jvx2o5uUcmYWXIQ16LBMt+1oH/Ndo/ctGrwvvf3JdZrUeutdoncq0/vnjlu55/nMyLf9az9zz9Lm5rl9hGn9Na3j6NegxjY8+KxcaB/9702tT0ee19LGMlgv3nvnOP313eu9U299U2z8Nbn+SaflIJ+ptoqZd46bPCY+7xlvTlct6VIyM36xmmkZGMzzbQqkZlO7LyfdL9kOChmwLrT7DPVevzfZ57v01run4ASnTl++vJBoKWdBKQRsUf76Vajz86cvne0wnfACl+ZwLLXf6nsPLl1ac8PejeqoNqwa9Xp+pAyo9r6W+L0TD7VjDy4nq+WxM3fKj/3Ol9UOf7X+uG3LZLom/vqkcXl/ckGq5D/N3tpkCRPgzMm2z062Hmk+5rEtuvmYLNI6e53+OPrcU2yHUBndsoPVPy56Wp1TLj5ZdrS9u+fSXt2zrWZiOV/z30GdnWjfC61+27ZTWQffcdMdGek/3nGzbMH+aNb9amsY9Dscy/vZVQ7bjVNHn6nX+8aUb9D2Ep1XPTRVsNOhxfV/6XE0b28U8rqFJRzMxvHPToMfShZ9chA8M0q3k/g5Pn6mVIRv/vdNtrNxGQ++ZbQPjNpoacj1Aj4K+C31+KcfB33jmu2FPR++plVfzNtXGSt+hPkvfbXgH4wY9nu170Xuk2nCkG7K9HyqfvvPw9ijVjiIbt9zp/3xp+fWXW+14ct3ZaPzd69z6pvdz06T/U4UBPVeDPkeD1jF/PmTbLuo1GudsBzT+tk5DpmDlxsmf926+pJqGdPR697pKOOBCdfGPIfxB+45c19swrW/+gajKqWjZ9p+Xy/KtcXLPz7R9cqFAz8k0HRoH934asm0rykHjW+nHMhpHFzg0r1PR5+hzdczphzR/0HeebXz0OeleHx603a+E77AlFB1oRF+GP0P15RW6IfDpS9SXk26hdn93n5vrAanb2WtByvTFa0OXy3T4GwRNe0vzDyCK5W/sS7ER8KUaz/ABU3jIZeUP0+foVwx3UJRqKOWGEy1L37c2/lrHc90mhLllJdMBQzZaTvX6fHYu/rbUX861zcq0PdJ0uteFh3yW7Vy2d1oHtRPPNm8zjVMh34vW4VLsV4Awf9+gZbsU+zotq+59U20D/L9r0DYr1+Vbz9WQqVVA24xcp8PtdzXtlXQwHNdjGX2PmQKI9k06Vsx3+vTdZApHGnJpKapWJQk0ooVFK0UpF0DRF5htJdcXqM/OVa4bjXxoHCppQ1AqUW4E0gmvrNrIav6WYtnSd5/qF5Nq/O5qmb7nYtZzt1xox1NOWsfcZ2s5zZWm1b3OH0r141Ih0o1TMSERiIKWVe0PCv0BJJNs+03t1/L94aPU67TGQfv6albuYxnNU/8Hd7ft0zJWiu9P76/3cj8w6f3Lvb+qNHX6JzEjgIoxbdo0c/bZZ5ujjjrKnHDCCWbPPfe0f4mGPu/ggw+2NcCYuro6W0rsJcq4idSyeNlllwXlU045xZx00klBORfjxo0zb7/9tkkcmJnDDjvMjB071gwePNj+tWVo/F988UUzdOhQM3LkSDNq1ChzzDHH2L8CQPW66qqrzJNPPmnGjx8f+fZ42bJl5sMPP4z8eKmSEWgAAAAAxFYr+z8AAAAAxA6BBgAAAEBsEWgAAAAAxBaBBgAAAEBsEWgAAAAAxBaBBgAAAEBsEWgAAAAAxBaBBgAAAEBsEWgAAAAAxBaBBgAAAEBsEWgAAAAAxBaBBgAAAEBsEWgAAAAAxBaBBgAAAEBsEWgAAAAAxBaBBgAAAEBsEWgAAAAAxJQx/z+2ZGeW2vsSFAAAAABJRU5ErkJggg==;" vertex="1" parent="1">
          <mxGeometry x="-453" y="40" width="820" height="902" as="geometry" />
        </mxCell>
      </root>
    </mxGraphModel>
  </diagram>
</mxfile>
